# Horn Lab; coordinates in millimeters
v 11 0 0
v 6.85838782044607 8.600146307148329 0
v -2.4477302735194577 10.72420703400006 0
v -9.91065754692661 4.7727211302931405 0
v -9.910657546926611 -4.772721130293138 0
v -2.4477302735194604 -10.72420703400006 0
v 6.858387820446067 -8.600146307148329 0
v 10.911695212570818 0.008310748299645397 4.532987101818131
v 6.861146613036631 8.45171820935981 4.726932862304862
v -2.2403534739830406 10.547846419708295 5.437306820476065
v -9.539189846195134 4.718268083729484 6.129182896840871
v -9.539189846195136 -4.6472254098577865 6.281564294196649
v -2.2403534739830433 -10.496226439130949 5.779704712320465
v 6.861146613036628 -8.424317931169783 5.001514652434909
v 11.281217286647303 0.08946127005744095 7.969336865423514
v 7.370316298221557 8.402392848551179 8.097044686261217
v -1.2899098082736766 10.627056158069024 10.210724936714087
v -8.178134138229016 5.08823435168264 12.718733276971536
v -8.107383277018512 -4.0432267790245655 13.732488272773004
v -1.1309340661882255 -9.891150754768905 12.488611735446675
v 7.497804944877455 -8.051931545905251 9.92376806805656
v 12.31555541381218 0.5625044328746674 11.226988151140542
v 8.326586264065394 8.60950136362767 10.52602043532838
v 0.3043411653761625 11.197821085242998 13.704317906466748
v -5.71026569896494 6.378406055243978 18.368557743335263
v -5.188112684488135 -2.219625910629529 21.006472215618416
v 1.477608338925135 -8.121781374185572 19.631657922038123
v 9.2674734847154 -6.883616889336061 15.279378066761103
v 14.18947077984515 2.1309134208102813 14.690822299010645
v 9.641942137205817 9.435470963546365 12.71027980788581
v 2.0200589729263054 12.275980191558004 16.14503315646442
v -2.936745232208457 8.513479720323682 22.408643017067057
v -1.4958958113529697 0.9812091457054852 26.784483410303537
v 5.2576182336167125 -4.64887815929033 25.977457269189813
v 12.238263080257866 -4.137211621150557 20.595271738317706
v 16.64771611529158 5.3782366901862915 18.185074879263432
v 11.340339667976465 11.478257117205615 15.112106736783284
v 3.676630814461939 14.020827771863278 18.214449116808883
v -0.5724813673845297 11.09134109221263 25.155974930929254
v 1.7926712614600229 4.8957602986686 30.709573659790042
v 8.991080531154399 0.099484095586166 30.693272187790328
v 15.60219744082948 0.3142062900909446 25.119345855835324
v 19.007476216746333 10.241133968921863 21.762326126180884
v 13.228653088289539 15.183294814643542 18.030667287202437
v 5.284150352965128 16.79802263698462 20.48475746763146
v 1.156340608794757 13.869394451277385 27.27661670728822
v 3.953548785112499 8.6027270144873 33.2918364700312
v 11.569420072502828 4.963928326954342 34.000833586393156
v 18.269048056098313 5.693088018356941 28.869718766848035
v 20.472873085318348 15.780659353451265 25.476554328859187
v 14.515286132069726 19.71567489562086 21.26320905054385
v 6.421061170846559 20.199155492733233 22.989255645008885
v 2.2853146895490895 16.867030393955908 29.354945821688116
v 5.222348142448028 12.228457761633159 35.566785041126714
v 13.02051543494636 9.776377397541975 36.94713167265966
v 19.807637542169502 11.35725582916692 32.45655654880274
v 20.829431191774134 21.506903444043402 29.23462512295079
v 14.893612236145827 24.51679882526927 24.59979268065374
v 6.871972962802189 23.865871547196804 25.602132790148723
v 2.804971356191972 20.044283126711242 31.486862904973947
v 5.7551425778065 15.929767590635365 37.82266122204797
v 13.500947525244278 14.620639058455664 39.8385423818815
v 20.209637087458503 17.10269801625887 36.01650675463821
v 20.062707477087837 27.18491368223558 33.02866722471474
v 14.310483358029128 29.393405255404318 28.037022352754892
v 6.577747880531277 27.66054897391072 28.32693098514678
v 2.6874085782077195 23.291220961545772 33.680086008640934
v 5.56897029416765 19.575614329668902 40.06545250608396
v 13.052558283146348 19.311656656646033 42.67471926716209
v 19.502878152067872 22.698113454018667 39.54305520144143
v 18.20955576041175 32.582541100243816 36.84997388552514
v 12.755307428521947 34.14149294021685 31.570645919091262
v 5.506801198500083 31.431021651291093 31.16696001682049
v 1.922310104133631 26.49216739756585 35.942899896814424
v 4.701029049773625 23.043988166362976 42.30208541801848
v 11.750525993816456 23.68303324881606 45.45592017922144
v 17.762385953866485 27.928088663693874 43.029502278732615
v 15.356272298538418 37.48204108356448 40.68890793917254
v 10.26245697009163 38.556041502818985 35.195267811251696
v 3.6591171558631093 35.01612478029605 34.12503127131886
v 0.5187024195514454 29.527920409197087 38.28410826279029
v 3.206009110385552 26.224158219926544 44.54062898137862
v 9.697440479100829 27.592638525472182 48.18330571622257
v 15.104816303986434 32.602867743847185 46.469128588920796
v 11.633809328406745 41.69093872737773 44.5349076299917
v 6.911193451227568 42.4412761331392 38.904077427219036
v 1.0689611071667597 38.25231347717062 37.20311628032682
v -1.4935675888763793 32.27842507868218 40.712882626209
v 1.1532437372779167 29.01807074685128 46.7904508202303
v 7.016292171923845 30.926363792654683 50.85928805249467
v 11.680582659380644 36.56632063051831 49.85547689795327
v 7.210606398903486 45.05153288681162 48.37661467691032
v 2.823283155091114 45.62100734986662 42.68862355761321
v -2.1936709731139397 40.98124584088541 40.40193735302949
v -4.062387199959418 34.62608341001744 43.23847741510859
v -1.3756840917665374 31.341086989394793 49.06227122223243
v 3.843296112239784 33.599925885461424 53.48788325389286
v 7.664554870648014 39.70164833756285 53.18273738421619
v 2.2833061430655155 47.4485203003862 52.20215060099484
v -1.841882632938787 47.94857619095699 46.5386866714797
v -6.023314148981295 43.05821018130181 43.720528978847646
v -7.112285187823406 36.45996762197784 45.86980774559114
v -4.288778346256033 33.12245973977548 51.36807222305535
v 0.3210481349773182 35.55889804274683 56.07501711555402
v 3.245900892184596 41.93459479447047 56.44621691485774
v -2.934311868891482 48.81384439152379 55.99956122433883
v -6.89483067804704 49.315400017602556 50.44231378365421
v -10.28157877414094 44.36067573298867 47.15583983764708
v -10.54426576374344 37.680679981952764 48.61492129951195
v -7.485082985845798 34.30558581210553 53.72084006862683
v -3.4076574681612 36.7769079727162 58.628735170086415
v -1.3823737898290105 43.23369047105993 59.642861489676505
v -8.223113440726937 49.12858226605316 59.75739715866565
v -12.125629311281912 49.65762409340227 54.38604487008196
v -14.80192880890823 44.79661829573786 50.70243462778301
v -14.236703825332578 38.20600138514888 51.48040007617516
v -10.855580301675882 34.84864231939339 56.134117365016024
v -7.2046132136023004 37.25270095262936 61.15924245727578
v -6.033055244587487 43.60787210017099 62.7717536646117
v -13.37032468084372 48.421768892998905 63.46537678466845
v -17.315178528820873 48.96026312835393 58.35534535154195
v -19.39688972454624 44.31193920456789 54.35236741404321
v -18.047887278468927 37.97707984477974 54.47076700497776
v -14.28399754712017 34.725963354491256 58.62138681746039
v -10.939506267563972 37.006746761580146 63.678725475477286
v -10.532883588495213 43.10195364100572 65.83450381863359
v -18.180221067410994 46.76595352405725 67.1150599264055
v -22.247360623605303 47.25795369804483 62.33523217011317
v -23.867463404271497 42.89577384611453 58.09529164693625
v -21.82055897149389 36.9642243690226 57.58800004985179
v -17.648008112395146 33.92988300457825 61.19535829832713
v -14.491826728402826 36.077670689491846 66.2009520545623
v -14.72868377603038 41.79025949013901 68.83546712460772
v -22.482812372862725 44.2703832324783 70.70042131432369
v -26.72093144164483 44.63248688246991 66.31101556387048
v -28.014059104725565 40.583286858191 61.91881165842867
v -25.388443856807967 35.171913366551316 60.831228723427714
v -20.821227532364407 32.47324101865817 63.867238891572164
v -17.751617177935426 34.519425135358766 68.74066458292808
v -18.491091999046105 39.769647342228204 71.78171685213717
v -26.14007814088265 41.07262003530291 74.21823272804431
v -30.560259397675864 41.207299331928205 70.2690591106737
v -31.648205461374364 37.45539798297784 65.80904534990914
v -28.58467075595788 32.6421742290514 64.19667277530715
v -23.67655939932443 30.39208372872706 66.64609082194958
v -20.61977935024493 32.39949052223063 71.31283774169218
v -21.71614833262577 37.152776350417795 74.68275791968007
v -29.049340006099015 37.32925088604586 77.66820609093192
v -33.62381748551054 37.139195401595636 74.19746243274466
v -34.60377678865664 33.634960722980054 69.75133536314516
v -31.251288572741476 29.45530703655723 67.67784925000575
v -26.090844842646018 27.74759881760102 69.53838142792898
v -23.00836498100045 29.79777518588477 73.9319132189987
v -24.32501919475405 34.06201152011437 77.55002557282369
v -31.144054723678476 33.20697975294814 81.05287399025991
v -35.809939812181305 32.60853263235592 78.08656434871001
v -36.74677183219459 29.28002166058405 73.73099596078609
v -33.24909716475776 25.727883488626954 71.26600065999828
v -27.950736174011467 24.626950610382067 72.5477701845804
v -24.841462752855406 26.80624793810583 76.61110593918876
v -26.262623205039258 30.624720134458226 80.39623322365917
v -32.39263021215575 28.874715794520377 84.37724476812369
v -37.05974758712703 27.8087565839081 81.92921427070624
v -37.98288528240694 24.57471171105758 77.73399347762795
v -34.46690178487247 21.607882927718215 74.95066921298536
v -29.15940438115987 21.142352820022637 75.67514141752243
v -26.057046869481315 23.52867505414922 79.36186774468295
v -27.495967732691085 26.969900315698144 83.23466807460329
v -32.79558131470148 24.49691098863355 87.64831628803991
v -37.357073572008424 22.936053473678072 85.72081778106502
v -38.26199781233551 19.718517932861232 81.74749229065984
v -34.82892762562595 17.267174254182063 78.72033495216876
v -29.643034884341542 17.427934225984234 78.91885698423192
v -26.609402595602972 20.079742310594906 82.1935672475943
v -28.012417747651646 23.225732933275324 86.07854212202828
v -32.381954687433556 20.228475941340623 90.87452367741655
v -36.726101027616785 18.180073411238677 89.45918048291246
v -37.57970116639218 14.915144897633052 85.76021234130701
v -34.29997678899226 12.892248163673196 82.56301770842842
v -29.356627245784203 13.634665709604201 82.27514935371929
v -26.472095568757616 16.583341980781995 85.1133780197199
v -27.818492944436578 19.51786360297538 88.94045963161804
v -31.205578835234682 16.210985976493617 94.06520126990685
v -35.22732243009078 13.716035664496665 93.14421176600831
v -35.976059174203016 10.361712885724636 89.7625949556322
v -32.88797502780871 8.673891108307973 86.46677726940361
v -28.288460338579497 9.92353455593126 85.73857664748138
v -25.641043480506102 13.169636224453338 88.12634301075856
v -26.939283345180005 15.967815349070321 91.83203958613008
v -29.341121345029773 12.569965650247768 97.23012906251512
v -32.95204576305217 9.698482903347996 96.7775690549058
v -33.53164998444791 6.239062213669044 93.746815630877
v -30.643480208734537 4.796717919860948 90.42008793482555
v -26.462387184950973 6.457564693622933 89.30247977475618
v -24.13681923876085 9.970951039212181 91.23557289025291
v -25.41797646658621 12.691225378379436 94.76370873743338
v -26.880474215249926 9.412993612619065 100.37918483889881
v -30.016324689900163 6.256740794278302 100.36229341889457
v -30.361779084119078 2.703694108743674 97.70667750452665
v -27.656703193074396 1.4293701791668045 94.4120700440066
v -23.93807433621491 3.393360915989982 92.95937765285058
v -22.006095888960616 7.116741236275394 94.44250733112355
v -23.31558702727225 9.795729815731136 97.744632180754
v -23.929443909156504 6.828239237242299 103.52211014116199
v -26.554675478226052 3.491845664001377 103.90248347121256
v -26.60938041867853 -0.11850249434218352 101.63743594807937
v -24.0523647945758 -1.2841394368746024 98.43259455523095
v -20.80911352448033 0.8726832287914426 96.70127022833266
v -19.32186096504324 4.727834044244958 97.74718549811907
v -20.710538627944054 7.3783058147042055 100.78274483365765
v -20.604436853253254 4.883499449759734 106.66839068718869
v -22.713633163269396 1.4750253290479645 107.40304749089815
v -22.436894346319733 -2.1363767991726266 105.53561186403941
v -19.98261037601046 -3.2312474731737875 102.47230092238178
v -17.19890714025373 -0.9851267441410396 100.5198502851489
v -16.18196995277205 2.9106106664509652 101.14849510491194
v -17.697573257477316 5.522395029865548 103.88485301037201
v -17.02937669968392 3.625472119294706 109.82721761912464
v -18.645691173545668 0.2473892683640061 110.86953487318362
v -18.01793588317817 -3.295669190455876 109.39882023836263
v -15.618823366102406 -4.335707972452211 106.52255183179308
v -13.25493428065316 -2.0895566618569195 104.4066184288049
v -12.706325322723373 1.7513869913150055 104.6443610390237
v -14.386110227217484 4.294814075253159 107.05675462788929
v -13.332662240963135 3.079144885752524 113.00750090709485
v -14.503678295180007 -0.1794356842723966 114.30804599197401
v -13.529076994835282 -3.57937634054246 113.22564159084234
v -11.142752997332016 -4.560452422736089 110.575360294778
v -9.141656944928638 -2.3838936306565204 108.3529179756035
v -9.032654980005349 1.3113068715522556 108.23185902921874
v -10.897827805384262 3.742587737373574 110.30334331140388
v -9.644032368180806 3.247641769301736 116.21791418446197
v -10.435624288673317 0.17843777322398363 117.72521993029345
v -9.1420479811053 -3.0061581520987346 117.01556460658914
v -6.7373927892233185 -3.908080320980165 114.62333314642888
v -5.032413118541193 -1.8481629443932124 112.34992463194209
v -5.310993436329639 1.6224341784353415 111.9072620436197
v -7.363357081291088 3.89028062673612 113.62867933913968
v -6.091469479385246 4.112241174040264 119.46692757442561
v -6.580377250114605 1.2795175038493665 121.12826908926337
v -5.016852933197318 -1.6273235145053975 120.76899644449158
v -2.5782622293558166 -2.4193713054522012 118.65964926944977
v -1.10091367676773 -0.5001977275775786 116.38860900978537
v -1.6972808679503646 2.6850203709723557 115.66601530180445
v -3.9182871442694727 4.7377487953812345 117.03599594584206
v -2.7979779335224544 5.632591989995813 122.76279709488654
v -3.0638924458856747 3.0597138002841566 124.5250333546407
v -1.295928717053839 0.4773171093336761 124.48733817889256
v 1.1746005052749589 -0.17000070327739714 122.6780968038219
v 2.487336327075109 1.6052038782240703 120.4597048866552
v 1.6537618996003876 4.4661655963932745 119.5026567879673
v -0.6984242314412064 6.2585219244652865 120.52762924629359
v 0.12165754526230899 7.747490373753377 126.11349300616793
v 0.003669387278519398 5.435667508096531 127.92403041934654
v 1.9003277478233214 3.2047187460552 128.17312192189027
v 4.383410196626689 2.7345940085077736 126.67319653184303
v 5.583105004088507 4.379306811624437 124.55372866081242
v 4.596017510875782 6.900354868631323 123.41072084495
v 2.165444732293091 8.399337572593799 124.10488128271055
v 2.564181640335584 10.375935766392036 129.5265350725464
v 2.5301086792575385 8.308092009344328 131.33445260128943
v 4.476581166860403 6.434269147263471 131.83017157159657
v 6.937865619176421 6.165494014316864 130.64040548800236
v 8.060564642558548 7.704159767626851 128.66107247825843
v 6.999262973513563 9.891619711889582 127.38265066973725
v 4.553142415441032 11.08067189302417 127.76781775930768
v 4.441368714278174 13.418633061293152 133.00872679072202
v 4.442841992027654 11.565043844720789 134.7660714145598
v 6.364240947245191 10.033531454507827 135.46374693712406
v 8.758712977256032 9.97735595764404 134.57638945993685
v 9.82317180513397 11.438818649039165 132.77219726211396
v 8.756058222483922 13.317408313666707 131.40976386742983
v 6.3609305221915 14.198508617816566 131.51502941065806
v 5.683407487559345 16.76026847622456 136.56581082749318
v 5.689930309332024 15.08522194202985 138.22902949364374
v 7.521652880635392 13.863875878495403 139.0806315046911
v 9.799250744946924 14.015928782382039 138.4793431768014
v 10.807646255910502 15.426881715749133 136.87794688492215
v 9.787497026250804 17.034258341576596 135.4823266993697
v 7.506996233153496 17.627671276108547 135.34341308532862
v 6.242282272189131 20.272458742553695 140.2020712578984
v 6.240877756408335 18.741033212281373 141.73349678817075
v 7.933263560304472 17.785428541673504 142.68910145877862
v 10.045038655164738 18.12523453848067 142.34929546197145
v 10.985993322197874 19.504570356327953 140.96995964412417
v 10.047569505150689 20.884767991053305 139.5897620093988
v 7.93641947861702 21.22651047280762 139.2480195276445
v 6.09500047209187 23.817650062942803 143.9199426179407
v 6.087408657107437 22.401654435938244 145.28920722256723
v 7.60816030830132 21.661281315823526 146.29873625495634
v 9.512098414644186 22.154046762904372 146.18833376307964
v 10.365518748800314 23.508888344945618 145.04113507512076
v 9.525778392547885 24.705582716938515 143.72100420170122
v 7.625218961726539 24.842994608655896 143.22202661626827
v 5.246014416417985 27.25405419692764 147.7197102301971
v 5.243949208269145 25.936287441484755 148.9049351502312
v 6.578032059743549 25.360961697494137 149.92006806350344
v 8.24367137335021 25.961308984687143 150.00069318138213
v 8.986606773093275 27.285255550954556 149.0860981456519
v 8.247392749845897 28.33584262830879 147.86499167255639
v 6.582672540331425 28.321956719431245 147.25689184236916
v 3.728751034581199 30.441458365375393 151.59936263620003
v 3.7480451294329624 29.217719812194936 152.58797771465464
v 4.895181923053051 28.763228764470522 153.56408382888893
v 6.30634401251939 29.420226251066453 153.7926531659484
v 6.918897562003151 30.693979764269628 153.10156835306245
v 6.2715772549277995 31.62532692880153 152.01123034989536
v 4.851828485448948 31.51294433374973 151.34268591167387
v 1.6058224774060024 33.247777914169404 155.5546461825405
v 1.6604607877922284 32.12646484137324 156.3437322332688
v 2.630732621934241 31.758609834868864 157.2416411427356
v 3.7860034987846425 32.4212152174287 157.57222918810854
v 4.256330884843874 33.61532562129862 157.08655682845463
v 3.6875486654790848 34.44175155695138 156.15034525650393
v 2.5079614529148078 34.27817743882359 155.46858088117108
v -1.0326445096518335 35.555721185326114 159.57935235515865
v -0.9356340972008843 34.5553082257086 160.17546301235058
v -0.1272815524952715 34.251819060948 160.96289270181705
v 0.7837071709147903 34.8737872221598 161.3486908067514
v 1.111338983518138 35.95285799811317 161.04234348529087
v 0.6089004479534339 36.6764690854828 160.27453651884178
v -0.34526197062077296 36.49972657650318 159.62344421354814
v -4.072289950091684 37.26907478229726 163.6658445934781
v -3.9363704849434322 36.41421157436147 164.08433021843382
v -3.27584351464966 36.16443439905555 164.73679547252308
v -2.5880993201362847 36.70783056391071 165.13192071155103
v -2.3910233072967797 37.6352116735293 164.97216857144358
v -2.8330177334173308 38.2482408372414 164.37783567205148
v -3.5812517805859696 38.08529459125577 163.79646680879867
v -7.379049840483262 38.31808941185373 167.80601783854928
v -7.219914089902368 37.63559706420044 168.06988582201714
v -6.699376467410355 37.43835393015256 168.57076707946143
v -6.209412419776125 37.87488811267481 168.93148780791094
v -6.1189748683134 38.61648046865343 168.88041794148128
v -6.496165133863465 39.104696828309294 168.45601413122944
v -7.0569512531878935 38.97190031502273 167.97786110253506
v -10.799663063968321 38.66289715818882 171.99702660133002
v -10.647332712490467 38.184284316156294 172.13418546587
v -10.274275520174458 38.046134459876534 172.4700876705857
v -9.961411161814143 38.35247724887171 172.75179200417
v -9.944332880524687 38.87263031477436 172.76716935771267
v -10.235900970450501 39.21490778977091 172.50464027035528
v -10.616558712972308 39.12156775400087 172.16189449949536
f 1 2 9 8
f 2 3 10 9
f 3 4 11 10
f 4 5 12 11
f 5 6 13 12
f 6 7 14 13
f 7 1 8 14
f 8 9 16 15
f 9 10 17 16
f 10 11 18 17
f 11 12 19 18
f 12 13 20 19
f 13 14 21 20
f 14 8 15 21
f 15 16 23 22
f 16 17 24 23
f 17 18 25 24
f 18 19 26 25
f 19 20 27 26
f 20 21 28 27
f 21 15 22 28
f 22 23 30 29
f 23 24 31 30
f 24 25 32 31
f 25 26 33 32
f 26 27 34 33
f 27 28 35 34
f 28 22 29 35
f 29 30 37 36
f 30 31 38 37
f 31 32 39 38
f 32 33 40 39
f 33 34 41 40
f 34 35 42 41
f 35 29 36 42
f 36 37 44 43
f 37 38 45 44
f 38 39 46 45
f 39 40 47 46
f 40 41 48 47
f 41 42 49 48
f 42 36 43 49
f 43 44 51 50
f 44 45 52 51
f 45 46 53 52
f 46 47 54 53
f 47 48 55 54
f 48 49 56 55
f 49 43 50 56
f 50 51 58 57
f 51 52 59 58
f 52 53 60 59
f 53 54 61 60
f 54 55 62 61
f 55 56 63 62
f 56 50 57 63
f 57 58 65 64
f 58 59 66 65
f 59 60 67 66
f 60 61 68 67
f 61 62 69 68
f 62 63 70 69
f 63 57 64 70
f 64 65 72 71
f 65 66 73 72
f 66 67 74 73
f 67 68 75 74
f 68 69 76 75
f 69 70 77 76
f 70 64 71 77
f 71 72 79 78
f 72 73 80 79
f 73 74 81 80
f 74 75 82 81
f 75 76 83 82
f 76 77 84 83
f 77 71 78 84
f 78 79 86 85
f 79 80 87 86
f 80 81 88 87
f 81 82 89 88
f 82 83 90 89
f 83 84 91 90
f 84 78 85 91
f 85 86 93 92
f 86 87 94 93
f 87 88 95 94
f 88 89 96 95
f 89 90 97 96
f 90 91 98 97
f 91 85 92 98
f 92 93 100 99
f 93 94 101 100
f 94 95 102 101
f 95 96 103 102
f 96 97 104 103
f 97 98 105 104
f 98 92 99 105
f 99 100 107 106
f 100 101 108 107
f 101 102 109 108
f 102 103 110 109
f 103 104 111 110
f 104 105 112 111
f 105 99 106 112
f 106 107 114 113
f 107 108 115 114
f 108 109 116 115
f 109 110 117 116
f 110 111 118 117
f 111 112 119 118
f 112 106 113 119
f 113 114 121 120
f 114 115 122 121
f 115 116 123 122
f 116 117 124 123
f 117 118 125 124
f 118 119 126 125
f 119 113 120 126
f 120 121 128 127
f 121 122 129 128
f 122 123 130 129
f 123 124 131 130
f 124 125 132 131
f 125 126 133 132
f 126 120 127 133
f 127 128 135 134
f 128 129 136 135
f 129 130 137 136
f 130 131 138 137
f 131 132 139 138
f 132 133 140 139
f 133 127 134 140
f 134 135 142 141
f 135 136 143 142
f 136 137 144 143
f 137 138 145 144
f 138 139 146 145
f 139 140 147 146
f 140 134 141 147
f 141 142 149 148
f 142 143 150 149
f 143 144 151 150
f 144 145 152 151
f 145 146 153 152
f 146 147 154 153
f 147 141 148 154
f 148 149 156 155
f 149 150 157 156
f 150 151 158 157
f 151 152 159 158
f 152 153 160 159
f 153 154 161 160
f 154 148 155 161
f 155 156 163 162
f 156 157 164 163
f 157 158 165 164
f 158 159 166 165
f 159 160 167 166
f 160 161 168 167
f 161 155 162 168
f 162 163 170 169
f 163 164 171 170
f 164 165 172 171
f 165 166 173 172
f 166 167 174 173
f 167 168 175 174
f 168 162 169 175
f 169 170 177 176
f 170 171 178 177
f 171 172 179 178
f 172 173 180 179
f 173 174 181 180
f 174 175 182 181
f 175 169 176 182
f 176 177 184 183
f 177 178 185 184
f 178 179 186 185
f 179 180 187 186
f 180 181 188 187
f 181 182 189 188
f 182 176 183 189
f 183 184 191 190
f 184 185 192 191
f 185 186 193 192
f 186 187 194 193
f 187 188 195 194
f 188 189 196 195
f 189 183 190 196
f 190 191 198 197
f 191 192 199 198
f 192 193 200 199
f 193 194 201 200
f 194 195 202 201
f 195 196 203 202
f 196 190 197 203
f 197 198 205 204
f 198 199 206 205
f 199 200 207 206
f 200 201 208 207
f 201 202 209 208
f 202 203 210 209
f 203 197 204 210
f 204 205 212 211
f 205 206 213 212
f 206 207 214 213
f 207 208 215 214
f 208 209 216 215
f 209 210 217 216
f 210 204 211 217
f 211 212 219 218
f 212 213 220 219
f 213 214 221 220
f 214 215 222 221
f 215 216 223 222
f 216 217 224 223
f 217 211 218 224
f 218 219 226 225
f 219 220 227 226
f 220 221 228 227
f 221 222 229 228
f 222 223 230 229
f 223 224 231 230
f 224 218 225 231
f 225 226 233 232
f 226 227 234 233
f 227 228 235 234
f 228 229 236 235
f 229 230 237 236
f 230 231 238 237
f 231 225 232 238
f 232 233 240 239
f 233 234 241 240
f 234 235 242 241
f 235 236 243 242
f 236 237 244 243
f 237 238 245 244
f 238 232 239 245
f 239 240 247 246
f 240 241 248 247
f 241 242 249 248
f 242 243 250 249
f 243 244 251 250
f 244 245 252 251
f 245 239 246 252
f 246 247 254 253
f 247 248 255 254
f 248 249 256 255
f 249 250 257 256
f 250 251 258 257
f 251 252 259 258
f 252 246 253 259
f 253 254 261 260
f 254 255 262 261
f 255 256 263 262
f 256 257 264 263
f 257 258 265 264
f 258 259 266 265
f 259 253 260 266
f 260 261 268 267
f 261 262 269 268
f 262 263 270 269
f 263 264 271 270
f 264 265 272 271
f 265 266 273 272
f 266 260 267 273
f 267 268 275 274
f 268 269 276 275
f 269 270 277 276
f 270 271 278 277
f 271 272 279 278
f 272 273 280 279
f 273 267 274 280
f 274 275 282 281
f 275 276 283 282
f 276 277 284 283
f 277 278 285 284
f 278 279 286 285
f 279 280 287 286
f 280 274 281 287
f 281 282 289 288
f 282 283 290 289
f 283 284 291 290
f 284 285 292 291
f 285 286 293 292
f 286 287 294 293
f 287 281 288 294
f 288 289 296 295
f 289 290 297 296
f 290 291 298 297
f 291 292 299 298
f 292 293 300 299
f 293 294 301 300
f 294 288 295 301
f 295 296 303 302
f 296 297 304 303
f 297 298 305 304
f 298 299 306 305
f 299 300 307 306
f 300 301 308 307
f 301 295 302 308
f 302 303 310 309
f 303 304 311 310
f 304 305 312 311
f 305 306 313 312
f 306 307 314 313
f 307 308 315 314
f 308 302 309 315
f 309 310 317 316
f 310 311 318 317
f 311 312 319 318
f 312 313 320 319
f 313 314 321 320
f 314 315 322 321
f 315 309 316 322
f 316 317 324 323
f 317 318 325 324
f 318 319 326 325
f 319 320 327 326
f 320 321 328 327
f 321 322 329 328
f 322 316 323 329
f 323 324 331 330
f 324 325 332 331
f 325 326 333 332
f 326 327 334 333
f 327 328 335 334
f 328 329 336 335
f 329 323 330 336
f 330 331 338 337
f 331 332 339 338
f 332 333 340 339
f 333 334 341 340
f 334 335 342 341
f 335 336 343 342
f 336 330 337 343
f 7 6 5 4 3 2 1
f 337 338 339 340 341 342 343
