solid horn
facet normal 0.9745669209824896 0.22243854007075411 0.027210520353372812
 outer loop
  vertex 19 0 0
  vertex 17.118408490145963 8.243791043233605 0
  vertex 16.87166909716312 8.360738018519953 7.881162626476932
 endloop
endfacet
facet normal 0.7817408796619002 0.6234175485318871 0.015223575399058853
 outer loop
  vertex 17.118408490145963 8.243791043233605 0
  vertex 11.846306235315938 14.854798166892566 0
  vertex 16.87166909716312 8.360738018519953 7.881162626476932
 endloop
endfacet
facet normal 0.7052410426439193 0.697807256167418 0.12530005989869694
 outer loop
  vertex 11.846306235315938 14.854798166892566 0
  vertex 7.91747616294256 16.72467069477328 11.699608122560493
  vertex 16.87166909716312 8.360738018519953 7.881162626476932
 endloop
endfacet
facet normal 0.43388310778575406 0.9009675569284199 0.0017059134239503482
 outer loop
  vertex 11.846306235315938 14.854798166892566 0
  vertex 4.227897745169974 18.523630331454648 0
  vertex 7.91747616294256 16.72467069477328 11.699608122560493
 endloop
endfacet
facet normal 0.08388706444244935 0.9885349905243656 0.12554494385765078
 outer loop
  vertex 4.227897745169974 18.523630331454648 0
  vertex -4.2545690636410525 18.16624669898725 8.4818665956295
  vertex 7.91747616294256 16.72467069477328 11.699608122560493
 endloop
endfacet
facet normal 0 0.999113500193904 0.042097668941232805
 outer loop
  vertex 4.227897745169974 18.523630331454648 0
  vertex -4.227897745169972 18.523630331454648 0
  vertex -4.2545690636410525 18.16624669898725 8.4818665956295
 endloop
endfacet
facet normal -0.4335934559470318 0.900366088687757 0.036573505451618096
 outer loop
  vertex -4.227897745169972 18.523630331454648 0
  vertex -11.846306235315936 14.854798166892568 0
  vertex -4.2545690636410525 18.16624669898725 8.4818665956295
 endloop
endfacet
facet normal -0.6110621152194086 0.7496346628108073 0.2542655376886723
 outer loop
  vertex -11.846306235315936 14.854798166892568 0
  vertex -16.831199386316346 7.862670753851641 8.634523351333007
  vertex -4.2545690636410525 18.16624669898725 8.4818665956295
 endloop
endfacet
facet normal -0.7807138861707436 0.622598548552134 0.0534497453777998
 outer loop
  vertex -11.846306235315936 14.854798166892568 0
  vertex -17.11840849014596 8.243791043233607 0
  vertex -16.831199386316346 7.862670753851641 8.634523351333007
 endloop
endfacet
facet normal -0.974058889414846 0.2223225851806557 0.04221312675586601
 outer loop
  vertex -17.11840849014596 8.243791043233607 0
  vertex -19 2.326828918379971e-15 0
  vertex -16.831199386316346 7.862670753851641 8.634523351333007
 endloop
endfacet
facet normal -0.9803067378845713 0.06601013568696872 0.18612189995994055
 outer loop
  vertex -19 2.326828918379971e-15 0
  vertex -16.824605110873723 -5.881538879123213 13.54378741766451
  vertex -16.831199386316346 7.862670753851641 8.634523351333007
 endloop
endfacet
facet normal -0.973180083044876 -0.22212200336145715 0.05985266566713041
 outer loop
  vertex -19 2.326828918379971e-15 0
  vertex -17.118408490145963 -8.243791043233601 0
  vertex -16.824605110873723 -5.881538879123213 13.54378741766451
 endloop
endfacet
facet normal -0.8434818087579407 -0.5257739494988156 0.11000087419129721
 outer loop
  vertex -17.118408490145963 -8.243791043233601 0
  vertex -12.54670769816181 -12.829687174721052 13.13627498601941
  vertex -16.824605110873723 -5.881538879123213 13.54378741766451
 endloop
endfacet
facet normal -0.7806758073337033 -0.6225681816929146 0.05435202836553896
 outer loop
  vertex -17.118408490145963 -8.243791043233601 0
  vertex -11.846306235315941 -14.854798166892564 0
  vertex -12.54670769816181 -12.829687174721052 13.13627498601941
 endloop
endfacet
facet normal -0.4793483747335557 -0.8708675028891131 0.10869649512279304
 outer loop
  vertex -11.846306235315941 -14.854798166892564 0
  vertex -3.680124107575124 -18.30151509226815 8.39780866634292
  vertex -12.54670769816181 -12.829687174721052 13.13627498601941
 endloop
endfacet
facet normal -0.43329536034749444 -0.8997470867970929 0.052060642538096745
 outer loop
  vertex -11.846306235315941 -14.854798166892564 0
  vertex -4.227897745169977 -18.523630331454648 0
  vertex -3.680124107575124 -18.30151509226815 8.39780866634292
 endloop
endfacet
facet normal -8.400088831078654e-16 -0.9996504035792618 0.026439943718148482
 outer loop
  vertex -4.227897745169977 -18.523630331454648 0
  vertex 4.227897745169954 -18.523630331454655 0
  vertex -3.680124107575124 -18.30151509226815 8.39780866634292
 endloop
endfacet
facet normal 0.03633272935597211 -0.9975008586958855 0.060596779440140185
 outer loop
  vertex 4.227897745169954 -18.523630331454655 0
  vertex 5.007009628705391 -17.751445604522623 12.244011543830633
  vertex -3.680124107575124 -18.30151509226815 8.39780866634292
 endloop
endfacet
facet normal 0.4336987338337157 -0.9005847004720422 0.029199410040510073
 outer loop
  vertex 4.227897745169954 -18.523630331454655 0
  vertex 11.846306235315934 -14.854798166892568 0
  vertex 5.007009628705391 -17.751445604522623 12.244011543830633
 endloop
endfacet
facet normal 0.5214185982467756 -0.8484857800957337 0.09052362331293512
 outer loop
  vertex 11.846306235315934 -14.854798166892568 0
  vertex 13.765940822101285 -12.216107463985528 13.675528207926899
  vertex 5.007009628705391 -17.751445604522623 12.244011543830633
 endloop
endfacet
facet normal 0.7817879224127556 -0.6234550638738336 0.010555931963632331
 outer loop
  vertex 11.846306235315934 -14.854798166892568 0
  vertex 17.118408490145967 -8.243791043233593 0
  vertex 13.765940822101285 -12.216107463985528 13.675528207926899
 endloop
endfacet
facet normal 0.8796939326698909 -0.468854023346337 0.0794637629094807
 outer loop
  vertex 17.118408490145967 -8.243791043233593 0
  vertex 17.744026387673344 -5.688791915848531 8.149240964513634
  vertex 13.765940822101285 -12.216107463985528 13.675528207926899
 endloop
endfacet
facet normal 0.9749153367372833 -0.22251806369316038 -0.00507912636938524
 outer loop
  vertex 17.118408490145967 -8.243791043233593 0
  vertex 19 0 0
  vertex 17.744026387673344 -5.688791915848531 8.149240964513634
 endloop
endfacet
facet normal 0.9785143539973573 0.06449414651846747 0.19583197922195683
 outer loop
  vertex 19 0 0
  vertex 16.87166909716312 8.360738018519953 7.881162626476932
  vertex 17.744026387673344 -5.688791915848531 8.149240964513634
 endloop
endfacet
facet normal -0.6316547521507374 0.7696214929254693 -0.09324715391132624
 outer loop
  vertex -4.2545690636410525 18.16624669898725 8.4818665956295
  vertex -16.831199386316346 7.862670753851641 8.634523351333007
  vertex -9.336118350338829 14.923754192903457 16.14207714294812
 endloop
endfacet
facet normal -0.9975471605989225 0.023120420743493245 0.0660689679476788
 outer loop
  vertex -16.831199386316346 7.862670753851641 8.634523351333007
  vertex -16.824605110873723 -5.881538879123213 13.54378741766451
  vertex -15.97271339746851 1.159202867156461 23.942273570330286
 endloop
endfacet
facet normal 0.9821087391055017 0.057559408869962386 -0.1793023675893384
 outer loop
  vertex 17.744026387673344 -5.688791915848531 8.149240964513634
  vertex 16.87166909716312 8.360738018519953 7.881162626476932
  vertex 18.804938975559434 0.8059490400145144 16.04520459961489
 endloop
endfacet
facet normal 0.9477581768028984 0.31237373381149336 0.0646304009573831
 outer loop
  vertex 16.87166909716312 8.360738018519953 7.881162626476932
  vertex 14.80998771570763 11.698889209106033 21.980172106658518
  vertex 18.804938975559434 0.8059490400145144 16.04520459961489
 endloop
endfacet
facet normal 0.6621014522898916 0.7451734653346216 -0.07961264621156597
 outer loop
  vertex 16.87166909716312 8.360738018519953 7.881162626476932
  vertex 7.91747616294256 16.72467069477328 11.699608122560493
  vertex 14.80998771570763 11.698889209106033 21.980172106658518
 endloop
endfacet
facet normal 0.11694146353254573 0.9931354887074656 0.0025681076008781003
 outer loop
  vertex 7.91747616294256 16.72467069477328 11.699608122560493
  vertex -4.2545690636410525 18.16624669898725 8.4818665956295
  vertex 1.0650266536749111 17.498557394877732 24.456522308317005
 endloop
endfacet
facet normal -0.35318205450492984 0.9224288259819367 0.15616496845727787
 outer loop
  vertex -4.2545690636410525 18.16624669898725 8.4818665956295
  vertex -9.336118350338829 14.923754192903457 16.14207714294812
  vertex 1.0650266536749111 17.498557394877732 24.456522308317005
 endloop
endfacet
facet normal -0.7381715649790699 0.6653989060752771 0.11111721941344499
 outer loop
  vertex -9.336118350338829 14.923754192903457 16.14207714294812
  vertex -16.831199386316346 7.862670753851641 8.634523351333007
  vertex -11.976642918249782 10.191815451276325 26.936684099143008
 endloop
endfacet
facet normal -0.9188040033854985 0.34003687205740935 0.20043484977466863
 outer loop
  vertex -16.831199386316346 7.862670753851641 8.634523351333007
  vertex -15.97271339746851 1.159202867156461 23.942273570330286
  vertex -11.976642918249782 10.191815451276325 26.936684099143008
 endloop
endfacet
facet normal -0.48772813958720146 -0.8683345070785442 0.09009131851332215
 outer loop
  vertex -12.54670769816181 -12.829687174721052 13.13627498601941
  vertex -3.680124107575124 -18.30151509226815 8.39780866634292
  vertex -4.473458652775096 -16.05466401340901 25.758934777602118
 endloop
endfacet
facet normal 0.005851862113902349 -0.9916781248636415 0.12860891250893886
 outer loop
  vertex -3.680124107575124 -18.30151509226815 8.39780866634292
  vertex 5.007009628705391 -17.751445604522623 12.244011543830633
  vertex -4.473458652775096 -16.05466401340901 25.758934777602118
 endloop
endfacet
facet normal 0.5374943307491017 -0.842730227601227 -0.030093319852742002
 outer loop
  vertex 5.007009628705391 -17.751445604522623 12.244011543830633
  vertex 13.765940822101285 -12.216107463985528 13.675528207926899
  vertex 9.047209693440463 -15.659195122619224 25.814528425065202
 endloop
endfacet
facet normal 0.9022065380717688 -0.3846290631826472 0.19515082991315513
 outer loop
  vertex 17.744026387673344 -5.688791915848531 8.149240964513634
  vertex 18.804938975559434 0.8059490400145144 16.04520459961489
  vertex 13.765940822101285 -12.216107463985528 13.675528207926899
 endloop
endfacet
facet normal 0.4085141002955888 0.8977187875271754 0.16497638734201772
 outer loop
  vertex 7.91747616294256 16.72467069477328 11.699608122560493
  vertex 1.0650266536749111 17.498557394877732 24.456522308317005
  vertex 14.80998771570763 11.698889209106033 21.980172106658518
 endloop
endfacet
facet normal -0.43046825239419423 0.8606537559983446 0.27197830054368355
 outer loop
  vertex -9.336118350338829 14.923754192903457 16.14207714294812
  vertex -11.976642918249782 10.191815451276325 26.936684099143008
  vertex 1.0650266536749111 17.498557394877732 24.456522308317005
 endloop
endfacet
facet normal -0.8334534911559295 -0.5235211790062666 0.17686393982912818
 outer loop
  vertex -16.824605110873723 -5.881538879123213 13.54378741766451
  vertex -12.54670769816181 -12.829687174721052 13.13627498601941
  vertex -12.763914712566175 -6.534659352747244 30.746130594727056
 endloop
endfacet
facet normal -0.9541627950808793 -0.20566810973068664 0.2174258244166265
 outer loop
  vertex -16.824605110873723 -5.881538879123213 13.54378741766451
  vertex -12.763914712566175 -6.534659352747244 30.746130594727056
  vertex -15.97271339746851 1.159202867156461 23.942273570330286
 endloop
endfacet
facet normal -0.6642412088430037 -0.7064553686522562 0.24434489676927912
 outer loop
  vertex -12.54670769816181 -12.829687174721052 13.13627498601941
  vertex -4.473458652775096 -16.05466401340901 25.758934777602118
  vertex -12.763914712566175 -6.534659352747244 30.746130594727056
 endloop
endfacet
facet normal 0.028339834634891668 -0.9891619147012662 0.14406790162069943
 outer loop
  vertex 5.007009628705391 -17.751445604522623 12.244011543830633
  vertex 9.047209693440463 -15.659195122619224 25.814528425065202
  vertex -4.473458652775096 -16.05466401340901 25.758934777602118
 endloop
endfacet
facet normal 0.9262931884897412 -0.32318195365013036 -0.19373784811542033
 outer loop
  vertex 13.765940822101285 -12.216107463985528 13.675528207926899
  vertex 18.804938975559434 0.8059490400145144 16.04520459961489
  vertex 18.675503018734165 -6.069785209236203 26.896040421052597
 endloop
endfacet
facet normal 0.8861025185895779 0.4253241032694284 -0.1841785376401487
 outer loop
  vertex 18.804938975559434 0.8059490400145144 16.04520459961489
  vertex 14.80998771570763 11.698889209106033 21.980172106658518
  vertex 19.91275148661493 5.332421582047047 31.82800626765972
 endloop
endfacet
facet normal 0.3559241876997677 0.9180643508824263 -0.17457325181450312
 outer loop
  vertex 14.80998771570763 11.698889209106033 21.980172106658518
  vertex 1.0650266536749111 17.498557394877732 24.456522308317005
  vertex 10.400560187788297 15.752431662413121 34.30732353281569
 endloop
endfacet
facet normal -0.48420194613387774 0.874440374865259 0.030041740390170536
 outer loop
  vertex 1.0650266536749111 17.498557394877732 24.456522308317005
  vertex -11.976642918249782 10.191815451276325 26.936684099143008
  vertex -3.3279460073327147 14.58877623158596 38.3486675040217
 endloop
endfacet
facet normal -0.7119815427377202 -0.6895448265264704 0.1327034853023686
 outer loop
  vertex -12.763914712566175 -6.534659352747244 30.746130594727056
  vertex -4.473458652775096 -16.05466401340901 25.758934777602118
  vertex -6.665826570879172 -11.054746742915265 39.976659278581835
 endloop
endfacet
facet normal 0.029258995136833152 -0.99955654509865 -0.0055339275413668915
 outer loop
  vertex -4.473458652775096 -16.05466401340901 25.758934777602118
  vertex 9.047209693440463 -15.659195122619224 25.814528425065202
  vertex 5.314490201578046 -15.844803114443517 39.604022599066504
 endloop
endfacet
facet normal 0.6999328058047107 -0.710721290207423 0.07049336851251284
 outer loop
  vertex 13.765940822101285 -12.216107463985528 13.675528207926899
  vertex 18.675503018734165 -6.069785209236203 26.896040421052597
  vertex 9.047209693440463 -15.659195122619224 25.814528425065202
 endloop
endfacet
facet normal 0.9950622780860954 -0.08877577047553271 -0.044383840602025125
 outer loop
  vertex 18.804938975559434 0.8059490400145144 16.04520459961489
  vertex 19.91275148661493 5.332421582047047 31.82800626765972
  vertex 18.675503018734165 -6.069785209236203 26.896040421052597
 endloop
endfacet
facet normal 0.7432220027046302 0.6674355101707525 0.046377736672091385
 outer loop
  vertex 14.80998771570763 11.698889209106033 21.980172106658518
  vertex 10.400560187788297 15.752431662413121 34.30732353281569
  vertex 19.91275148661493 5.332421582047047 31.82800626765972
 endloop
endfacet
facet normal -0.02496555595921829 0.9800103982529333 0.1973736059653718
 outer loop
  vertex 1.0650266536749111 17.498557394877732 24.456522308317005
  vertex -3.3279460073327147 14.58877623158596 38.3486675040217
  vertex 10.400560187788297 15.752431662413121 34.30732353281569
 endloop
endfacet
facet normal -0.9091279324902097 0.3099704965976663 0.27821699014451473
 outer loop
  vertex -11.976642918249782 10.191815451276325 26.936684099143008
  vertex -15.97271339746851 1.159202867156461 23.942273570330286
  vertex -6.023597855130365 7.62441512744134 49.24983578831327
 endloop
endfacet
facet normal -0.6888529579252052 0.6760633395185613 0.26157209965266914
 outer loop
  vertex -11.976642918249782 10.191815451276325 26.936684099143008
  vertex -6.023597855130365 7.62441512744134 49.24983578831327
  vertex -3.3279460073327147 14.58877623158596 38.3486675040217
 endloop
endfacet
facet normal -0.947289234423271 -0.14041955245681695 0.2879678031197242
 outer loop
  vertex -15.97271339746851 1.159202867156461 23.942273570330286
  vertex -12.763914712566175 -6.534659352747244 30.746130594727056
  vertex -8.49220915562502 -1.0147163093669151 47.489837933600555
 endloop
endfacet
facet normal -0.92803212565091 0.20133564469266194 0.3134012315483839
 outer loop
  vertex -15.97271339746851 1.159202867156461 23.942273570330286
  vertex -8.49220915562502 -1.0147163093669151 47.489837933600555
  vertex -6.023597855130365 7.62441512744134 49.24983578831327
 endloop
endfacet
facet normal -0.8392076956588347 -0.4153426731798361 0.3510283569497152
 outer loop
  vertex -12.763914712566175 -6.534659352747244 30.746130594727056
  vertex -6.665826570879172 -11.054746742915265 39.976659278581835
  vertex -8.49220915562502 -1.0147163093669151 47.489837933600555
 endloop
endfacet
facet normal -0.3512532851042627 -0.8988906750876209 0.26194786493496147
 outer loop
  vertex -4.473458652775096 -16.05466401340901 25.758934777602118
  vertex 5.314490201578046 -15.844803114443517 39.604022599066504
  vertex -6.665826570879172 -11.054746742915265 39.976659278581835
 endloop
endfacet
facet normal 0.7022062655783703 -0.6820002255171693 -0.20440658741099696
 outer loop
  vertex 9.047209693440463 -15.659195122619224 25.814528425065202
  vertex 18.675503018734165 -6.069785209236203 26.896040421052597
  vertex 17.36996198011468 -11.00124695872526 38.86482752806202
 endloop
endfacet
facet normal 0.6594020338017776 0.67882701758702 -0.32308332982682747
 outer loop
  vertex 19.91275148661493 5.332421582047047 31.82800626765972
  vertex 10.400560187788297 15.752431662413121 34.30732353281569
  vertex 18.865493363713238 11.773649315208552 43.22418470099927
 endloop
endfacet
facet normal -0.10416364587828991 0.9922227100097682 -0.06814711012371412
 outer loop
  vertex 10.400560187788297 15.752431662413121 34.30732353281569
  vertex -3.3279460073327147 14.58877623158596 38.3486675040217
  vertex 6.961302110545422 16.3206320835244 47.83727396551716
 endloop
endfacet
facet normal -0.36239318801850456 -0.9186252431631226 0.15747647412003773
 outer loop
  vertex -6.665826570879172 -11.054746742915265 39.976659278581835
  vertex 5.314490201578046 -15.844803114443517 39.604022599066504
  vertex 4.074724100195443 -12.861019364027532 54.15664892754195
 endloop
endfacet
facet normal 0.3760297063793327 -0.9222872946166164 0.08937452718216508
 outer loop
  vertex 9.047209693440463 -15.659195122619224 25.814528425065202
  vertex 17.36996198011468 -11.00124695872526 38.86482752806202
  vertex 5.314490201578046 -15.844803114443517 39.604022599066504
 endloop
endfacet
facet normal 0.8738874611224954 -0.475597548581092 -0.10063636060855391
 outer loop
  vertex 18.675503018734165 -6.069785209236203 26.896040421052597
  vertex 23.190585644644955 -0.9989101866531578 42.13882497265828
  vertex 17.36996198011468 -11.00124695872526 38.86482752806202
 endloop
endfacet
facet normal 0.9565810515846441 0.021917179842024577 -0.2906412375713206
 outer loop
  vertex 18.675503018734165 -6.069785209236203 26.896040421052597
  vertex 19.91275148661493 5.332421582047047 31.82800626765972
  vertex 23.190585644644955 -0.9989101866531578 42.13882497265828
 endloop
endfacet
facet normal 0.9400207494132955 0.32666215310073377 -0.09824880866483415
 outer loop
  vertex 19.91275148661493 5.332421582047047 31.82800626765972
  vertex 18.865493363713238 11.773649315208552 43.22418470099927
  vertex 23.190585644644955 -0.9989101866531578 42.13882497265828
 endloop
endfacet
facet normal 0.37529789685555665 0.9251778628077216 0.056545652231912776
 outer loop
  vertex 10.400560187788297 15.752431662413121 34.30732353281569
  vertex 6.961302110545422 16.3206320835244 47.83727396551716
  vertex 18.865493363713238 11.773649315208552 43.22418470099927
 endloop
endfacet
facet normal -0.6727053214949817 0.6877044186286363 0.2730021667148133
 outer loop
  vertex -3.3279460073327147 14.58877623158596 38.3486675040217
  vertex -6.023597855130365 7.62441512744134 49.24983578831327
  vertex 3.2740035957234994 12.80016573830437 59.12213622003086
 endloop
endfacet
facet normal -0.3251042319117358 0.9277631611380752 0.18320140618501224
 outer loop
  vertex -3.3279460073327147 14.58877623158596 38.3486675040217
  vertex 3.2740035957234994 12.80016573830437 59.12213622003086
  vertex 6.961302110545422 16.3206320835244 47.83727396551716
 endloop
endfacet
facet normal -0.8295346095362798 -0.42340096051071874 0.3641482640629946
 outer loop
  vertex -8.49220915562502 -1.0147163093669151 47.489837933600555
  vertex -6.665826570879172 -11.054746742915265 39.976659278581835
  vertex -0.19985822241775963 -7.017094872487615 59.40086339379967
 endloop
endfacet
facet normal -0.5813207946670805 -0.7361898985522993 0.34654085900105486
 outer loop
  vertex -6.665826570879172 -11.054746742915265 39.976659278581835
  vertex 4.074724100195443 -12.861019364027532 54.15664892754195
  vertex -0.19985822241775963 -7.017094872487615 59.40086339379967
 endloop
endfacet
facet normal 0.3645258830719736 -0.9244128791093211 -0.11216821968549694
 outer loop
  vertex 5.314490201578046 -15.844803114443517 39.604022599066504
  vertex 17.36996198011468 -11.00124695872526 38.86482752806202
  vertex 13.48415160577622 -13.908895193922952 50.19949096432818
 endloop
endfacet
facet normal 0.8246355304999238 0.31893990945526296 -0.467176172330929
 outer loop
  vertex 23.190585644644955 -0.9989101866531578 42.13882497265828
  vertex 18.865493363713238 11.773649315208552 43.22418470099927
  vertex 25.883068906242844 6.667104021378016 52.12502614577256
 endloop
endfacet
facet normal 0.26062353037850416 0.9332275960491345 -0.24730877336924048
 outer loop
  vertex 18.865493363713238 11.773649315208552 43.22418470099927
  vertex 6.961302110545422 16.3206320835244 47.83727396551716
  vertex 17.482320299453267 15.499785869784736 55.82723945632932
 endloop
endfacet
facet normal -0.8913968429365002 0.16904492759136813 0.42051811002437134
 outer loop
  vertex -6.023597855130365 7.62441512744134 49.24983578831327
  vertex -8.49220915562502 -1.0147163093669151 47.489837933600555
  vertex 0.9017786738760307 2.9924414485638544 65.79197812042509
 endloop
endfacet
facet normal -0.848976880904122 -0.21482644291559155 0.48279173057804337
 outer loop
  vertex -8.49220915562502 -1.0147163093669151 47.489837933600555
  vertex -0.19985822241775963 -7.017094872487615 59.40086339379967
  vertex 0.9017786738760307 2.9924414485638544 65.79197812042509
 endloop
endfacet
facet normal -0.025542420273346664 -0.9797271731656326 0.19870141148833922
 outer loop
  vertex 5.314490201578046 -15.844803114443517 39.604022599066504
  vertex 13.48415160577622 -13.908895193922952 50.19949096432818
  vertex 4.074724100195443 -12.861019364027532 54.15664892754195
 endloop
endfacet
facet normal 0.4271971967038352 -0.9002038273615746 -0.08447262474883216
 outer loop
  vertex 13.48415160577622 -13.908895193922952 50.19949096432818
  vertex 17.36996198011468 -11.00124695872526 38.86482752806202
  vertex 21.24544663409105 -11.045436352282158 58.9349466500511
 endloop
endfacet
facet normal 0.6986816902218831 -0.7022980996093864 -0.1364597927366786
 outer loop
  vertex 17.36996198011468 -11.00124695872526 38.86482752806202
  vertex 25.283405693959054 -5.979061657913918 53.535134412387485
  vertex 21.24544663409105 -11.045436352282158 58.9349466500511
 endloop
endfacet
facet normal 0.8590097543034065 -0.39215244064285004 -0.3291180719885452
 outer loop
  vertex 17.36996198011468 -11.00124695872526 38.86482752806202
  vertex 23.190585644644955 -0.9989101866531578 42.13882497265828
  vertex 25.283405693959054 -5.979061657913918 53.535134412387485
 endloop
endfacet
facet normal 0.6891399683017635 0.7119676998406834 -0.134863258423526
 outer loop
  vertex 18.865493363713238 11.773649315208552 43.22418470099927
  vertex 17.482320299453267 15.499785869784736 55.82723945632932
  vertex 25.883068906242844 6.667104021378016 52.12502614577256
 endloop
endfacet
facet normal -0.3667752315108011 0.9154272873253463 0.16573717498001517
 outer loop
  vertex 6.961302110545422 16.3206320835244 47.83727396551716
  vertex 3.2740035957234994 12.80016573830437 59.12213622003086
  vertex 14.387214608872597 15.785839299597127 67.22462435092146
 endloop
endfacet
facet normal 0.08022211259276085 0.996771773336601 -0.0032317998951087177
 outer loop
  vertex 6.961302110545422 16.3206320835244 47.83727396551716
  vertex 14.387214608872597 15.785839299597127 67.22462435092146
  vertex 17.482320299453267 15.499785869784736 55.82723945632932
 endloop
endfacet
facet normal -0.7486889448618343 0.4869772437679615 0.44979776332684507
 outer loop
  vertex -6.023597855130365 7.62441512744134 49.24983578831327
  vertex 0.9017786738760307 2.9924414485638544 65.79197812042509
  vertex 3.2740035957234994 12.80016573830437 59.12213622003086
 endloop
endfacet
facet normal -0.049369640534818265 -0.9882995361497247 0.14431446718781024
 outer loop
  vertex 4.074724100195443 -12.861019364027532 54.15664892754195
  vertex 13.48415160577622 -13.908895193922952 50.19949096432818
  vertex 19.288526583346105 -11.361452179527369 69.6306450981515
 endloop
endfacet
facet normal 0.3162421716082897 -0.9482089291175493 0.02984485949411756
 outer loop
  vertex 13.48415160577622 -13.908895193922952 50.19949096432818
  vertex 21.24544663409105 -11.045436352282158 58.9349466500511
  vertex 19.288526583346105 -11.361452179527369 69.6306450981515
 endloop
endfacet
facet normal 0.9753215270389773 -0.06961177694871436 -0.20952832601917917
 outer loop
  vertex 23.190585644644955 -0.9989101866531578 42.13882497265828
  vertex 25.883068906242844 6.667104021378016 52.12502614577256
  vertex 25.283405693959054 -5.979061657913918 53.535134412387485
 endloop
endfacet
facet normal 0.5408164509237602 0.7060166956499228 -0.45722859914247743
 outer loop
  vertex 25.883068906242844 6.667104021378016 52.12502614577256
  vertex 17.482320299453267 15.499785869784736 55.82723945632932
  vertex 27.279202382540312 12.767940080784411 63.19682715849435
 endloop
endfacet
facet normal -0.7870855153985896 0.4655647256993453 0.40465525776175154
 outer loop
  vertex 3.2740035957234994 12.80016573830437 59.12213622003086
  vertex 0.9017786738760307 2.9924414485638544 65.79197812042509
  vertex 9.843552030116179 9.671624304153553 75.49986719702805
 endloop
endfacet
facet normal -0.8059016278032589 -0.2530572410546977 0.5352425609514271
 outer loop
  vertex 0.9017786738760307 2.9924414485638544 65.79197812042509
  vertex -0.19985822241775963 -7.017094872487615 59.40086339379967
  vertex 11.25385260405482 -0.42150766987743893 79.76476211047776
 endloop
endfacet
facet normal -0.678282377020823 -0.4959938885863865 0.5421467324515915
 outer loop
  vertex -0.19985822241775963 -7.017094872487615 59.40086339379967
  vertex 12.975824555972842 -7.276785744238758 75.64743986703394
  vertex 11.25385260405482 -0.42150766987743893 79.76476211047776
 endloop
endfacet
facet normal -0.5205482823931511 -0.7488507054130715 0.41018545403254536
 outer loop
  vertex -0.19985822241775963 -7.017094872487615 59.40086339379967
  vertex 4.074724100195443 -12.861019364027532 54.15664892754195
  vertex 12.975824555972842 -7.276785744238758 75.64743986703394
 endloop
endfacet
facet normal -0.25869697641094697 -0.9034280214489375 0.3418971840432325
 outer loop
  vertex 4.074724100195443 -12.861019364027532 54.15664892754195
  vertex 19.288526583346105 -11.361452179527369 69.6306450981515
  vertex 12.975824555972842 -7.276785744238758 75.64743986703394
 endloop
endfacet
facet normal 0.8347674347661888 -0.09995813439061042 -0.5414533232172699
 outer loop
  vertex 25.283405693959054 -5.979061657913918 53.535134412387485
  vertex 25.883068906242844 6.667104021378016 52.12502614577256
  vertex 31.565451781134193 1.725548353594938 61.797913238331205
 endloop
endfacet
facet normal 0.8696139743711656 0.37781839690269187 -0.31784397829794697
 outer loop
  vertex 25.883068906242844 6.667104021378016 52.12502614577256
  vertex 27.279202382540312 12.767940080784411 63.19682715849435
  vertex 31.565451781134193 1.725548353594938 61.797913238331205
 endloop
endfacet
facet normal -0.044364170564177914 0.9983261629090469 -0.037103811414082144
 outer loop
  vertex 17.482320299453267 15.499785869784736 55.82723945632932
  vertex 14.387214608872597 15.785839299597127 67.22462435092146
  vertex 25.970519110669656 16.545580958028403 73.81656918698452
 endloop
endfacet
facet normal 0.4325549485624609 0.8649768232975756 -0.2543841811751698
 outer loop
  vertex 17.482320299453267 15.499785869784736 55.82723945632932
  vertex 25.970519110669656 16.545580958028403 73.81656918698452
  vertex 27.279202382540312 12.767940080784411 63.19682715849435
 endloop
endfacet
facet normal -0.4690732035612397 0.8135894937567199 0.3435730858921869
 outer loop
  vertex 3.2740035957234994 12.80016573830437 59.12213622003086
  vertex 9.843552030116179 9.671624304153553 75.49986719702805
  vertex 14.387214608872597 15.785839299597127 67.22462435092146
 endloop
endfacet
facet normal -0.7765107817400861 0.15008861036230756 0.6119676583618711
 outer loop
  vertex 0.9017786738760307 2.9924414485638544 65.79197812042509
  vertex 11.25385260405482 -0.42150766987743893 79.76476211047776
  vertex 9.843552030116179 9.671624304153553 75.49986719702805
 endloop
endfacet
facet normal 0.6173595071668918 -0.7488675578378996 -0.24096601363792444
 outer loop
  vertex 21.24544663409105 -11.045436352282158 58.9349466500511
  vertex 25.283405693959054 -5.979061657913918 53.535134412387485
  vertex 32.16009543054853 -5.394338808433021 69.33615861880894
 endloop
endfacet
facet normal 0.8738089775814194 -0.31722347012645863 -0.3685473384777628
 outer loop
  vertex 25.283405693959054 -5.979061657913918 53.535134412387485
  vertex 31.565451781134193 1.725548353594938 61.797913238331205
  vertex 32.16009543054853 -5.394338808433021 69.33615861880894
 endloop
endfacet
facet normal 0.6953995245978531 0.34947716036458626 -0.6279213450525354
 outer loop
  vertex 31.565451781134193 1.725548353594938 61.797913238331205
  vertex 27.279202382540312 12.767940080784411 63.19682715849435
  vertex 36.00471305151903 9.164633449032745 70.85454199711246
 endloop
endfacet
facet normal -0.5518393121541687 0.7862700612685366 0.27794381503099863
 outer loop
  vertex 14.387214608872597 15.785839299597127 67.22462435092146
  vertex 9.843552030116179 9.671624304153553 75.49986719702805
  vertex 20.810955228619775 14.83251236646586 82.67539101288583
 endloop
endfacet
facet normal -0.7956954392493184 0.13802444098041053 0.5897609868835676
 outer loop
  vertex 9.843552030116179 9.671624304153553 75.49986719702805
  vertex 11.25385260405482 -0.42150766987743893 79.76476211047776
  vertex 19.4251160612081 6.909079682133614 89.07368041219979
 endloop
endfacet
facet normal -0.23133404137134647 -0.9003718260288236 0.3685310518753095
 outer loop
  vertex 12.975824555972842 -7.276785744238758 75.64743986703394
  vertex 19.288526583346105 -11.361452179527369 69.6306450981515
  vertex 27.016390676633904 -6.543062588965569 86.25355986983242
 endloop
endfacet
facet normal 0.4210056521026002 -0.9056639506525772 0.0502697661226959
 outer loop
  vertex 21.24544663409105 -11.045436352282158 58.9349466500511
  vertex 32.16009543054853 -5.394338808433021 69.33615861880894
  vertex 19.288526583346105 -11.361452179527369 69.6306450981515
 endloop
endfacet
facet normal 0.24017545230230966 0.9235567259815254 -0.2989292993429491
 outer loop
  vertex 27.279202382540312 12.767940080784411 63.19682715849435
  vertex 25.970519110669656 16.545580958028403 73.81656918698452
  vertex 36.99518577886029 15.541981697035695 79.57369456618858
 endloop
endfacet
facet normal 0.6633104600339625 0.5661170689231326 -0.48941873470823927
 outer loop
  vertex 27.279202382540312 12.767940080784411 63.19682715849435
  vertex 36.99518577886029 15.541981697035695 79.57369456618858
  vertex 36.00471305151903 9.164633449032745 70.85454199711246
 endloop
endfacet
facet normal -0.12991660262684593 0.9848589577213996 0.1147802672841317
 outer loop
  vertex 14.387214608872597 15.785839299597127 67.22462435092146
  vertex 20.810955228619775 14.83251236646586 82.67539101288583
  vertex 25.970519110669656 16.545580958028403 73.81656918698452
 endloop
endfacet
facet normal -0.6223388458910778 0.5547639281280409 0.5522058899929508
 outer loop
  vertex 9.843552030116179 9.671624304153553 75.49986719702805
  vertex 19.4251160612081 6.909079682133614 89.07368041219979
  vertex 20.810955228619775 14.83251236646586 82.67539101288583
 endloop
endfacet
facet normal -0.582934227341902 -0.5209347826916934 0.6235500290876891
 outer loop
  vertex 11.25385260405482 -0.42150766987743893 79.76476211047776
  vertex 12.975824555972842 -7.276785744238758 75.64743986703394
  vertex 24.882236367373054 -1.6375820222813786 91.48949242791348
 endloop
endfacet
facet normal -0.3748027142099641 -0.7478769037816043 0.547907895736943
 outer loop
  vertex 12.975824555972842 -7.276785744238758 75.64743986703394
  vertex 27.016390676633904 -6.543062588965569 86.25355986983242
  vertex 24.882236367373054 -1.6375820222813786 91.48949242791348
 endloop
endfacet
facet normal 0.4115587990506241 -0.8959970206122135 -0.16675938947490943
 outer loop
  vertex 19.288526583346105 -11.361452179527369 69.6306450981515
  vertex 32.16009543054853 -5.394338808433021 69.33615861880894
  vertex 36.15991280488651 -5.873652801010241 81.7829776604653
 endloop
endfacet
facet normal 0.7655907022566382 -0.43645693773904193 -0.4726269333392307
 outer loop
  vertex 32.16009543054853 -5.394338808433021 69.33615861880894
  vertex 31.565451781134193 1.725548353594938 61.797913238331205
  vertex 40.431083794990194 2.0166022021873964 75.8902395492877
 endloop
endfacet
facet normal 0.836121952649566 0.14508236093216367 -0.5290096301995136
 outer loop
  vertex 31.565451781134193 1.725548353594938 61.797913238331205
  vertex 36.00471305151903 9.164633449032745 70.85454199711246
  vertex 40.431083794990194 2.0166022021873964 75.8902395492877
 endloop
endfacet
facet normal -0.2728690701656944 0.9616711634508984 0.02703782413405992
 outer loop
  vertex 25.970519110669656 16.545580958028403 73.81656918698452
  vertex 20.810955228619775 14.83251236646586 82.67539101288583
  vertex 32.613532265466446 18.037792351350042 87.78426695900421
 endloop
endfacet
facet normal -0.6716075563302466 0.5330251436586035 0.5146139198543309
 outer loop
  vertex 20.810955228619775 14.83251236646586 82.67539101288583
  vertex 19.4251160612081 6.909079682133614 89.07368041219979
  vertex 29.654926684110052 13.51410116214431 95.5829788623189
 endloop
endfacet
facet normal -0.6485918177143075 -0.2071053720174525 0.7324179263750737
 outer loop
  vertex 11.25385260405482 -0.42150766987743893 79.76476211047776
  vertex 24.882236367373054 -1.6375820222813786 91.48949242791348
  vertex 19.4251160612081 6.909079682133614 89.07368041219979
 endloop
endfacet
facet normal 0.1689784066528032 -0.9648802957758977 0.20112760354684275
 outer loop
  vertex 19.288526583346105 -11.361452179527369 69.6306450981515
  vertex 36.15991280488651 -5.873652801010241 81.7829776604653
  vertex 27.016390676633904 -6.543062588965569 86.25355986983242
 endloop
endfacet
facet normal 0.7513727507138512 -0.6044467398627443 -0.2647321819386541
 outer loop
  vertex 32.16009543054853 -5.394338808433021 69.33615861880894
  vertex 40.431083794990194 2.0166022021873964 75.8902395492877
  vertex 36.15991280488651 -5.873652801010241 81.7829776604653
 endloop
endfacet
facet normal 0.45026718218274686 0.6955481824110488 -0.559885872829361
 outer loop
  vertex 36.00471305151903 9.164633449032745 70.85454199711246
  vertex 36.99518577886029 15.541981697035695 79.57369456618858
  vertex 47.221047833444565 13.68072026173397 85.48520840322368
 endloop
endfacet
facet normal 0.7039139144306932 0.3146781454877399 -0.6367753652766852
 outer loop
  vertex 36.00471305151903 9.164633449032745 70.85454199711246
  vertex 47.221047833444565 13.68072026173397 85.48520840322368
  vertex 48.84063504339831 9.053356099032271 84.98883178796684
 endloop
endfacet
facet normal 0.18813003106776 0.9631208958044105 -0.19236743870872147
 outer loop
  vertex 25.970519110669656 16.545580958028403 73.81656918698452
  vertex 32.613532265466446 18.037792351350042 87.78426695900421
  vertex 36.99518577886029 15.541981697035695 79.57369456618858
 endloop
endfacet
facet normal -0.3836315506506347 0.8545345344910852 0.35013934755678894
 outer loop
  vertex 20.810955228619775 14.83251236646586 82.67539101288583
  vertex 29.654926684110052 13.51410116214431 95.5829788623189
  vertex 32.613532265466446 18.037792351350042 87.78426695900421
 endloop
endfacet
facet normal -0.6467631577300279 -0.20534111544747144 0.734528722453977
 outer loop
  vertex 19.4251160612081 6.909079682133614 89.07368041219979
  vertex 24.882236367373054 -1.6375820222813786 91.48949242791348
  vertex 33.06318063269151 5.914903731156961 100.80426663089447
 endloop
endfacet
facet normal 0.1411771533812613 -0.9797414152712388 0.1420414396064532
 outer loop
  vertex 27.016390676633904 -6.543062588965569 86.25355986983242
  vertex 36.15991280488651 -5.873652801010241 81.7829776604653
  vertex 41.538727195581984 -3.3296207125690103 93.98454291763387
 endloop
endfacet
facet normal 0.5933219342647766 -0.6625757810064591 -0.457124071499177
 outer loop
  vertex 36.15991280488651 -5.873652801010241 81.7829776604653
  vertex 40.431083794990194 2.0166022021873964 75.8902395492877
  vertex 46.798746768623744 0.4255303603250411 86.46128597148534
 endloop
endfacet
facet normal 0.740143844520866 -0.015280048622255241 -0.6722749508437552
 outer loop
  vertex 40.431083794990194 2.0166022021873964 75.8902395492877
  vertex 36.00471305151903 9.164633449032745 70.85454199711246
  vertex 48.84063504339831 9.053356099032271 84.98883178796684
 endloop
endfacet
facet normal -0.010768789184125624 0.955104036454263 -0.2960748431195759
 outer loop
  vertex 36.99518577886029 15.541981697035695 79.57369456618858
  vertex 32.613532265466446 18.037792351350042 87.78426695900421
  vertex 44.4378091765325 19.404846135719666 91.76415741432267
 endloop
endfacet
facet normal -0.4802404773780845 0.8254595800523459 0.2966236092887322
 outer loop
  vertex 32.613532265466446 18.037792351350042 87.78426695900421
  vertex 29.654926684110052 13.51410116214431 95.5829788623189
  vertex 41.26980948650643 18.7247835639084 99.88718498275702
 endloop
endfacet
facet normal -0.6244745231944067 0.23228398281181806 0.7457048485897066
 outer loop
  vertex 19.4251160612081 6.909079682133614 89.07368041219979
  vertex 33.06318063269151 5.914903731156961 100.80426663089447
  vertex 29.654926684110052 13.51410116214431 95.5829788623189
 endloop
endfacet
facet normal -0.38950596902553314 -0.5176376356324042 0.761798121729356
 outer loop
  vertex 24.882236367373054 -1.6375820222813786 91.48949242791348
  vertex 44.86176029276146 1.2221704818221468 103.64817211974383
  vertex 33.06318063269151 5.914903731156961 100.80426663089447
 endloop
endfacet
facet normal -0.25842053147790167 -0.7552908715964827 0.6022910660085407
 outer loop
  vertex 24.882236367373054 -1.6375820222813786 91.48949242791348
  vertex 27.016390676633904 -6.543062588965569 86.25355986983242
  vertex 44.86176029276146 1.2221704818221468 103.64817211974383
 endloop
endfacet
facet normal -0.03246470982617662 -0.8998405609151894 0.4350092039804901
 outer loop
  vertex 27.016390676633904 -6.543062588965569 86.25355986983242
  vertex 41.538727195581984 -3.3296207125690103 93.98454291763387
  vertex 44.86176029276146 1.2221704818221468 103.64817211974383
 endloop
endfacet
facet normal 0.5265864494375514 -0.8483237228448675 -0.055259139763280694
 outer loop
  vertex 36.15991280488651 -5.873652801010241 81.7829776604653
  vertex 46.798746768623744 0.4255303603250411 86.46128597148534
  vertex 41.538727195581984 -3.3296207125690103 93.98454291763387
 endloop
endfacet
facet normal 0.8031758302153902 -0.2798385653689343 -0.5259267659000402
 outer loop
  vertex 40.431083794990194 2.0166022021873964 75.8902395492877
  vertex 48.84063504339831 9.053356099032271 84.98883178796684
  vertex 46.798746768623744 0.4255303603250411 86.46128597148534
 endloop
endfacet
facet normal 0.42590808343319647 0.7546201884883799 -0.49914995301214193
 outer loop
  vertex 36.99518577886029 15.541981697035695 79.57369456618858
  vertex 44.4378091765325 19.404846135719666 91.76415741432267
  vertex 47.221047833444565 13.68072026173397 85.48520840322368
 endloop
endfacet
facet normal -0.12602107882191504 0.9914496760565261 0.03385598233650674
 outer loop
  vertex 32.613532265466446 18.037792351350042 87.78426695900421
  vertex 41.26980948650643 18.7247835639084 99.88718498275702
  vertex 44.4378091765325 19.404846135719666 91.76415741432267
 endloop
endfacet
facet normal -0.6308214550185087 0.2268996308306182 0.7420113539678898
 outer loop
  vertex 29.654926684110052 13.51410116214431 95.5829788623189
  vertex 33.06318063269151 5.914903731156961 100.80426663089447
  vertex 43.226762329524206 13.560798371742429 107.10680458785303
 endloop
endfacet
facet normal 0.39924753028434323 -0.9008487801442527 -0.1705077267295071
 outer loop
  vertex 41.538727195581984 -3.3296207125690103 93.98454291763387
  vertex 46.798746768623744 0.4255303603250411 86.46128597148534
  vertex 53.77189446053262 1.4813723372271426 97.21069934143117
 endloop
endfacet
facet normal 0.6474132769422107 -0.2745550866482762 -0.7109680395309664
 outer loop
  vertex 46.798746768623744 0.4255303603250411 86.46128597148534
  vertex 48.84063504339831 9.053356099032271 84.98883178796684
  vertex 57.3167540149813 7.717927074739478 93.22295831000291
 endloop
endfacet
facet normal 0.19270502275342438 0.7661768108436455 -0.6130561709428126
 outer loop
  vertex 47.221047833444565 13.68072026173397 85.48520840322368
  vertex 44.4378091765325 19.404846135719666 91.76415741432267
  vertex 55.90242723851455 19.558389762495658 95.559781960771
 endloop
endfacet
facet normal -0.2771260624050916 0.9604350124097993 -0.02767187151671884
 outer loop
  vertex 44.4378091765325 19.404846135719666 91.76415741432267
  vertex 41.26980948650643 18.7247835639084 99.88718498275702
  vertex 53.77720990679961 22.418747010240253 102.83910671924274
 endloop
endfacet
facet normal -0.5022835670377775 0.6330950517090924 0.5889837636007195
 outer loop
  vertex 29.654926684110052 13.51410116214431 95.5829788623189
  vertex 43.226762329524206 13.560798371742429 107.10680458785303
  vertex 41.26980948650643 18.7247835639084 99.88718498275702
 endloop
endfacet
facet normal -0.46132879179893155 -0.1122331885103608 0.880101958442393
 outer loop
  vertex 33.06318063269151 5.914903731156961 100.80426663089447
  vertex 53.982481564923205 8.840655982252386 112.142773757884
  vertex 43.226762329524206 13.560798371742429 107.10680458785303
 endloop
endfacet
facet normal -0.3750771669930495 -0.4528405346860123 0.8088588065575812
 outer loop
  vertex 33.06318063269151 5.914903731156961 100.80426663089447
  vertex 44.86176029276146 1.2221704818221468 103.64817211974383
  vertex 53.982481564923205 8.840655982252386 112.142773757884
 endloop
endfacet
facet normal 0.2674559749016406 -0.903908467724134 0.3337915269536082
 outer loop
  vertex 41.538727195581984 -3.3296207125690103 93.98454291763387
  vertex 53.77189446053262 1.4813723372271426 97.21069934143117
  vertex 44.86176029276146 1.2221704818221468 103.64817211974383
 endloop
endfacet
facet normal 0.6793190059680969 -0.6284298446163802 -0.37894804198722126
 outer loop
  vertex 46.798746768623744 0.4255303603250411 86.46128597148534
  vertex 57.3167540149813 7.717927074739478 93.22295831000291
  vertex 53.77189446053262 1.4813723372271426 97.21069934143117
 endloop
endfacet
facet normal 0.410593223252914 0.5880265794051651 -0.6968772825482573
 outer loop
  vertex 47.221047833444565 13.68072026173397 85.48520840322368
  vertex 55.90242723851455 19.558389762495658 95.559781960771
  vertex 63.28742615681311 15.796863638956836 96.736966510131
 endloop
endfacet
facet normal 0.09956655209329318 0.9356517225199443 -0.33858877100357976
 outer loop
  vertex 44.4378091765325 19.404846135719666 91.76415741432267
  vertex 53.77720990679961 22.418747010240253 102.83910671924274
  vertex 55.90242723851455 19.558389762495658 95.559781960771
 endloop
endfacet
facet normal -0.5073431118403626 0.629901321190577 0.5880708226315117
 outer loop
  vertex 41.26980948650643 18.7247835639084 99.88718498275702
  vertex 43.226762329524206 13.560798371742429 107.10680458785303
  vertex 64.40647966608327 22.649071713905983 115.64432782934398
 endloop
endfacet
facet normal 0.18800496977446265 -0.9568210636128754 0.22169254287600335
 outer loop
  vertex 44.86176029276146 1.2221704818221468 103.64817211974383
  vertex 53.77189446053262 1.4813723372271426 97.21069934143117
  vertex 61.800112681337396 5.339924910485422 107.05586339111578
 endloop
endfacet
facet normal 0.5635562207263252 -0.6479601928501463 -0.5123982577666154
 outer loop
  vertex 53.77189446053262 1.4813723372271426 97.21069934143117
  vertex 57.3167540149813 7.717927074739478 93.22295831000291
  vertex 65.9498910638949 8.462255566146354 101.77677907154546
 endloop
endfacet
facet normal 0.5279447442436436 0.2711169978424726 -0.8048415499378735
 outer loop
  vertex 48.84063504339831 9.053356099032271 84.98883178796684
  vertex 47.221047833444565 13.68072026173397 85.48520840322368
  vertex 63.28742615681311 15.796863638956836 96.736966510131
 endloop
endfacet
facet normal 0.6701779131910929 -0.18235849520273442 -0.7194490558046667
 outer loop
  vertex 48.84063504339831 9.053356099032271 84.98883178796684
  vertex 63.28742615681311 15.796863638956836 96.736966510131
  vertex 57.3167540149813 7.717927074739478 93.22295831000291
 endloop
endfacet
facet normal -0.10798947309454845 0.91414680039518 -0.3907350778059435
 outer loop
  vertex 55.90242723851455 19.558389762495658 95.559781960771
  vertex 53.77720990679961 22.418747010240253 102.83910671924274
  vertex 65.88514981970388 24.694121740466848 104.81614057609384
 endloop
endfacet
facet normal -0.3289903278282475 0.9087627731507186 0.2567403091274875
 outer loop
  vertex 41.26980948650643 18.7247835639084 99.88718498275702
  vertex 64.40647966608327 22.649071713905983 115.64432782934398
  vertex 53.77720990679961 22.418747010240253 102.83910671924274
 endloop
endfacet
facet normal -0.4697698255819655 0.32297464416900734 0.8215860820368082
 outer loop
  vertex 43.226762329524206 13.560798371742429 107.10680458785303
  vertex 60.836978823420736 16.86025865046294 115.87899106825401
  vertex 64.40647966608327 22.649071713905983 115.64432782934398
 endloop
endfacet
facet normal -0.4390165880784314 -0.042876205699677594 0.8974553283460808
 outer loop
  vertex 43.226762329524206 13.560798371742429 107.10680458785303
  vertex 53.982481564923205 8.840655982252386 112.142773757884
  vertex 60.836978823420736 16.86025865046294 115.87899106825401
 endloop
endfacet
facet normal 0.06196566109888072 -0.7751788695643705 0.6286954565013837
 outer loop
  vertex 44.86176029276146 1.2221704818221468 103.64817211974383
  vertex 61.800112681337396 5.339924910485422 107.05586339111578
  vertex 53.982481564923205 8.840655982252386 112.142773757884
 endloop
endfacet
facet normal 0.5210225295361651 -0.8485371655423638 -0.09230494249533318
 outer loop
  vertex 53.77189446053262 1.4813723372271426 97.21069934143117
  vertex 65.9498910638949 8.462255566146354 101.77677907154546
  vertex 61.800112681337396 5.339924910485422 107.05586339111578
 endloop
endfacet
facet normal 0.3361941887645647 0.39206555646338004 -0.8563048913068267
 outer loop
  vertex 63.28742615681311 15.796863638956836 96.736966510131
  vertex 55.90242723851455 19.558389762495658 95.559781960771
  vertex 70.74949997365201 22.85727406941224 102.89931551829406
 endloop
endfacet
facet normal 0.0920719986465492 0.8252691998897089 -0.5571835377850187
 outer loop
  vertex 55.90242723851455 19.558389762495658 95.559781960771
  vertex 65.88514981970388 24.694121740466848 104.81614057609384
  vertex 70.74949997365201 22.85727406941224 102.89931551829406
 endloop
endfacet
facet normal -0.4381684415521889 0.8284561507007259 0.34881058354623135
 outer loop
  vertex 53.77720990679961 22.418747010240253 102.83910671924274
  vertex 64.40647966608327 22.649071713905983 115.64432782934398
  vertex 70.77830938214225 27.592378387992994 111.90769200489488
 endloop
endfacet
facet normal 0.03241740416383314 -0.7993851793342817 0.5999437031655362
 outer loop
  vertex 53.982481564923205 8.840655982252386 112.142773757884
  vertex 61.800112681337396 5.339924910485422 107.05586339111578
  vertex 70.88536239560057 11.562382665928368 114.85596242061911
 endloop
endfacet
facet normal 0.4770069866768208 -0.8679375389867207 -0.13837905578220383
 outer loop
  vertex 61.800112681337396 5.339924910485422 107.05586339111578
  vertex 65.9498910638949 8.462255566146354 101.77677907154546
  vertex 84.46455638755128 16.601874740990354 114.54564550495245
 endloop
endfacet
facet normal 0.5060250469841933 0.001186487725747782 -0.8625179673905475
 outer loop
  vertex 57.3167540149813 7.717927074739478 93.22295831000291
  vertex 63.28742615681311 15.796863638956836 96.736966510131
  vertex 73.56059234018593 16.137076404889754 102.76453144842118
 endloop
endfacet
facet normal 0.6165284268901907 -0.5373118415422518 -0.5754899510632492
 outer loop
  vertex 57.3167540149813 7.717927074739478 93.22295831000291
  vertex 73.56059234018593 16.137076404889754 102.76453144842118
  vertex 65.9498910638949 8.462255566146354 101.77677907154546
 endloop
endfacet
facet normal -0.12919749526870938 0.94595316216999 -0.2974569249435762
 outer loop
  vertex 53.77720990679961 22.418747010240253 102.83910671924274
  vertex 70.77830938214225 27.592378387992994 111.90769200489488
  vertex 65.88514981970388 24.694121740466848 104.81614057609384
 endloop
endfacet
facet normal -0.18503588870312884 -0.2806237139039444 0.9418131720710857
 outer loop
  vertex 60.836978823420736 16.86025865046294 115.87899106825401
  vertex 53.982481564923205 8.840655982252386 112.142773757884
  vertex 79.02095778866556 22.00147315952509 120.9834380648183
 endloop
endfacet
facet normal -0.06658767892844536 -0.46598355693216204 0.882284197797837
 outer loop
  vertex 53.982481564923205 8.840655982252386 112.142773757884
  vertex 70.88536239560057 11.562382665928368 114.85596242061911
  vertex 79.02095778866556 22.00147315952509 120.9834380648183
 endloop
endfacet
facet normal 0.3364580945157661 -0.8871574228012861 0.3158285259494465
 outer loop
  vertex 61.800112681337396 5.339924910485422 107.05586339111578
  vertex 84.46455638755128 16.601874740990354 114.54564550495245
  vertex 70.88536239560057 11.562382665928368 114.85596242061911
 endloop
endfacet
facet normal 0.48807332970272793 0.22109796102069013 -0.8443341260812484
 outer loop
  vertex 63.28742615681311 15.796863638956836 96.736966510131
  vertex 70.74949997365201 22.85727406941224 102.89931551829406
  vertex 73.56059234018593 16.137076404889754 102.76453144842118
 endloop
endfacet
facet normal -0.3240927254538616 0.2369689959648707 0.91586549244924
 outer loop
  vertex 60.836978823420736 16.86025865046294 115.87899106825401
  vertex 79.02095778866556 22.00147315952509 120.9834380648183
  vertex 64.40647966608327 22.649071713905983 115.64432782934398
 endloop
endfacet
facet normal 0.5194737670202489 -0.41931259281751126 -0.7445293512565156
 outer loop
  vertex 65.9498910638949 8.462255566146354 101.77677907154546
  vertex 73.56059234018593 16.137076404889754 102.76453144842118
  vertex 83.90886329744671 18.387154716866206 108.71751250658522
 endloop
endfacet
facet normal 0.546649782637531 -0.7846249153493423 -0.29246838693331856
 outer loop
  vertex 65.9498910638949 8.462255566146354 101.77677907154546
  vertex 83.90886329744671 18.387154716866206 108.71751250658522
  vertex 84.46455638755128 16.601874740990354 114.54564550495245
 endloop
endfacet
facet normal 0.2694353102240371 0.13183912513406693 -0.9539512873770656
 outer loop
  vertex 73.56059234018593 16.137076404889754 102.76453144842118
  vertex 70.74949997365201 22.85727406941224 102.89931551829406
  vertex 82.00219670725988 23.964785850393554 106.23060429750903
 endloop
endfacet
facet normal 0.22869423302356404 0.3765973914896654 -0.8977044906342753
 outer loop
  vertex 70.74949997365201 22.85727406941224 102.89931551829406
  vertex 87.17108820056256 31.531508847777587 110.72173011969798
  vertex 82.00219670725988 23.964785850393554 106.23060429750903
 endloop
endfacet
facet normal -0.022499815205050525 0.6926889926514199 -0.7208853707596652
 outer loop
  vertex 70.74949997365201 22.85727406941224 102.89931551829406
  vertex 65.88514981970388 24.694121740466848 104.81614057609384
  vertex 87.17108820056256 31.531508847777587 110.72173011969798
 endloop
endfacet
facet normal -0.2429187537808173 0.9450868001156605 -0.21863535695014263
 outer loop
  vertex 65.88514981970388 24.694121740466848 104.81614057609384
  vertex 70.77830938214225 27.592378387992994 111.90769200489488
  vertex 87.17108820056256 31.531508847777587 110.72173011969798
 endloop
endfacet
facet normal -0.39004909408086924 0.8197569981243132 0.419356850704633
 outer loop
  vertex 70.77830938214225 27.592378387992994 111.90769200489488
  vertex 64.40647966608327 22.649071713905983 115.64432782934398
  vertex 93.3853822982018 34.217382973878244 119.98428460890993
 endloop
endfacet
facet normal 0.11874460259780603 -0.5698323559537235 0.8131364002811079
 outer loop
  vertex 79.02095778866556 22.00147315952509 120.9834380648183
  vertex 70.88536239560057 11.562382665928368 114.85596242061911
  vertex 93.15549744450891 25.382435788883186 121.28865328585228
 endloop
endfacet
facet normal 0.29088774394429856 -0.7470022255116624 0.5978059848342269
 outer loop
  vertex 70.88536239560057 11.562382665928368 114.85596242061911
  vertex 84.46455638755128 16.601874740990354 114.54564550495245
  vertex 93.15549744450891 25.382435788883186 121.28865328585228
 endloop
endfacet
facet normal 0.5204594290707496 -0.19296060538187415 -0.8317981650989681
 outer loop
  vertex 73.56059234018593 16.137076404889754 102.76453144842118
  vertex 82.00219670725988 23.964785850393554 106.23060429750903
  vertex 83.90886329744671 18.387154716866206 108.71751250658522
 endloop
endfacet
facet normal -0.295404285858738 0.4176387476902489 0.8592521075470281
 outer loop
  vertex 64.40647966608327 22.649071713905983 115.64432782934398
  vertex 79.02095778866556 22.00147315952509 120.9834380648183
  vertex 93.3853822982018 34.217382973878244 119.98428460890993
 endloop
endfacet
facet normal 0.5098332015479078 -0.8077329294492346 -0.296036520184197
 outer loop
  vertex 84.46455638755128 16.601874740990354 114.54564550495245
  vertex 83.90886329744671 18.387154716866206 108.71751250658522
  vertex 103.37086206140157 28.053331132161475 115.86083436610849
 endloop
endfacet
facet normal 0.3390977939852777 -0.28397065131092775 -0.8968686388253108
 outer loop
  vertex 83.90886329744671 18.387154716866206 108.71751250658522
  vertex 82.00219670725988 23.964785850393554 106.23060429750903
  vertex 98.66016240742533 28.00380629304638 111.24997498410863
 endloop
endfacet
facet normal -0.09856385286589105 0.556846868649962 -0.82474646515336
 outer loop
  vertex 82.00219670725988 23.964785850393554 106.23060429750903
  vertex 87.17108820056256 31.531508847777587 110.72173011969798
  vertex 98.44628746466469 33.10585558207697 110.43720991615515
 endloop
endfacet
facet normal -0.23802526929788292 0.8479519567694261 -0.4736258546432735
 outer loop
  vertex 70.77830938214225 27.592378387992994 111.90769200489488
  vertex 105.01589078137681 40.337321804944054 117.51906256375088
  vertex 87.17108820056256 31.531508847777587 110.72173011969798
 endloop
endfacet
facet normal -0.37665179481811567 0.8572351645305325 0.3511143662008192
 outer loop
  vertex 70.77830938214225 27.592378387992994 111.90769200489488
  vertex 93.3853822982018 34.217382973878244 119.98428460890993
  vertex 105.01589078137681 40.337321804944054 117.51906256375088
 endloop
endfacet
facet normal 0.5252143936770566 -0.6662225394322744 -0.5294311745891561
 outer loop
  vertex 83.90886329744671 18.387154716866206 108.71751250658522
  vertex 98.66016240742533 28.00380629304638 111.24997498410863
  vertex 103.37086206140157 28.053331132161475 115.86083436610849
 endloop
endfacet
facet normal 0.3159708740854831 -0.13632678996049077 -0.9389235395221082
 outer loop
  vertex 82.00219670725988 23.964785850393554 106.23060429750903
  vertex 98.44628746466469 33.10585558207697 110.43720991615515
  vertex 98.66016240742533 28.00380629304638 111.24997498410863
 endloop
endfacet
facet normal -0.05654769764376292 0.14726035260316497 0.9874799979961018
 outer loop
  vertex 79.02095778866556 22.00147315952509 120.9834380648183
  vertex 93.15549744450891 25.382435788883186 121.28865328585228
  vertex 93.3853822982018 34.217382973878244 119.98428460890993
 endloop
endfacet
facet normal 0.4561085122547722 -0.7801985365053135 0.4280832497116718
 outer loop
  vertex 93.15549744450891 25.382435788883186 121.28865328585228
  vertex 84.46455638755128 16.601874740990354 114.54564550495245
  vertex 108.5906083188886 33.49334953444594 119.625513174971
 endloop
endfacet
facet normal 0.42128769409921113 -0.7535103976090617 0.5047165139913725
 outer loop
  vertex 84.46455638755128 16.601874740990354 114.54564550495245
  vertex 103.37086206140157 28.053331132161475 115.86083436610849
  vertex 108.5906083188886 33.49334953444594 119.625513174971
 endloop
endfacet
facet normal -0.07318221950594843 0.3557360232255316 -0.9317168263629605
 outer loop
  vertex 87.17108820056256 31.531508847777587 110.72173011969798
  vertex 111.31804088371973 42.685763394555806 113.08386687690222
  vertex 98.44628746466469 33.10585558207697 110.43720991615515
 endloop
endfacet
facet normal -0.40904595793080273 0.9069044914289375 -0.10102300592682835
 outer loop
  vertex 87.17108820056256 31.531508847777587 110.72173011969798
  vertex 105.01589078137681 40.337321804944054 117.51906256375088
  vertex 111.31804088371973 42.685763394555806 113.08386687690222
 endloop
endfacet
facet normal -0.008562128631860936 0.14626690446346355 0.9892081088486728
 outer loop
  vertex 93.3853822982018 34.217382973878244 119.98428460890993
  vertex 93.15549744450891 25.382435788883186 121.28865328585228
  vertex 115.07551375551441 40.51904473389391 119.24024414214665
 endloop
endfacet
facet normal -0.1459205423976188 0.5955265193150108 0.7899717463928271
 outer loop
  vertex 93.3853822982018 34.217382973878244 119.98428460890993
  vertex 115.07551375551441 40.51904473389391 119.24024414214665
  vertex 105.01589078137681 40.337321804944054 117.51906256375088
 endloop
endfacet
facet normal 0.15095926308992316 -0.08533309714135093 0.9848500207745401
 outer loop
  vertex 93.15549744450891 25.382435788883186 121.28865328585228
  vertex 108.5906083188886 33.49334953444594 119.625513174971
  vertex 115.07551375551441 40.51904473389391 119.24024414214665
 endloop
endfacet
facet normal 0.4619872276920192 -0.7559040109193443 -0.46387167161348614
 outer loop
  vertex 103.37086206140157 28.053331132161475 115.86083436610849
  vertex 98.66016240742533 28.00380629304638 111.24997498410863
  vertex 120.72402277228065 40.108460697302576 113.49901266201807
 endloop
endfacet
facet normal -0.170327095959945 0.46837095476457136 -0.8669586663242808
 outer loop
  vertex 98.44628746466469 33.10585558207697 110.43720991615515
  vertex 111.31804088371973 42.685763394555806 113.08386687690222
  vertex 115.80523724946306 40.34229028324603 110.93623754125878
 endloop
endfacet
facet normal -0.14902068751649786 0.5653520702299677 0.8112766922442675
 outer loop
  vertex 105.01589078137681 40.337321804944054 117.51906256375088
  vertex 115.07551375551441 40.51904473389391 119.24024414214665
  vertex 120.04269240867774 46.23525424644876 116.16920989735992
 endloop
endfacet
facet normal 0.570672113908349 -0.7610378653032109 0.30847156430067885
 outer loop
  vertex 108.5906083188886 33.49334953444594 119.625513174971
  vertex 103.37086206140157 28.053331132161475 115.86083436610849
  vertex 120.72402277228065 40.108460697302576 113.49901266201807
 endloop
endfacet
facet normal 0.3705085514139051 -0.5341656283155971 -0.7598621551672203
 outer loop
  vertex 98.66016240742533 28.00380629304638 111.24997498410863
  vertex 115.80523724946306 40.34229028324603 110.93623754125878
  vertex 120.72402277228065 40.108460697302576 113.49901266201807
 endloop
endfacet
facet normal 0.09202044888793692 -0.1528874577377834 -0.9839500303638086
 outer loop
  vertex 98.66016240742533 28.00380629304638 111.24997498410863
  vertex 98.44628746466469 33.10585558207697 110.43720991615515
  vertex 115.80523724946306 40.34229028324603 110.93623754125878
 endloop
endfacet
facet normal 0.5930761866788579 -0.5134144565339697 0.6202146665602105
 outer loop
  vertex 108.5906083188886 33.49334953444594 119.625513174971
  vertex 120.72402277228065 40.108460697302576 113.49901266201807
  vertex 115.07551375551441 40.51904473389391 119.24024414214665
 endloop
endfacet
facet normal -0.32388735313993894 0.22253676798717187 -0.9195511782221957
 outer loop
  vertex 115.80523724946306 40.34229028324603 110.93623754125878
  vertex 111.31804088371973 42.685763394555806 113.08386687690222
  vertex 126.96628647530264 48.992373707007005 109.09842674388061
 endloop
endfacet
facet normal -0.48134410566513114 0.8438421948672905 -0.23714595105754765
 outer loop
  vertex 111.31804088371973 42.685763394555806 113.08386687690222
  vertex 105.01589078137681 40.337321804944054 117.51906256375088
  vertex 131.28972504562455 53.1020282331811 109.61103226125182
 endloop
endfacet
facet normal 0.5912969318115427 -0.5172349609785704 0.6187373704341387
 outer loop
  vertex 115.07551375551441 40.51904473389391 119.24024414214665
  vertex 120.72402277228065 40.108460697302576 113.49901266201807
  vertex 133.16102201571567 51.37321935560931 111.03038451458359
 endloop
endfacet
facet normal -0.4007839634321364 0.5160556715882537 -0.7570064454661032
 outer loop
  vertex 111.31804088371973 42.685763394555806 113.08386687690222
  vertex 131.28972504562455 53.1020282331811 109.61103226125182
  vertex 126.96628647530264 48.992373707007005 109.09842674388061
 endloop
endfacet
facet normal -0.3070772225206586 0.8704352152734568 0.38476761222957545
 outer loop
  vertex 105.01589078137681 40.337321804944054 117.51906256375088
  vertex 120.04269240867774 46.23525424644876 116.16920989735992
  vertex 131.28972504562455 53.1020282331811 109.61103226125182
 endloop
endfacet
facet normal 0.2546884229527607 0.2765243142225363 0.9266434648005627
 outer loop
  vertex 120.04269240867774 46.23525424644876 116.16920989735992
  vertex 115.07551375551441 40.51904473389391 119.24024414214665
  vertex 133.16102201571567 51.37321935560931 111.03038451458359
 endloop
endfacet
facet normal 0.34681709626284596 -0.6005596108091599 -0.7204485100300773
 outer loop
  vertex 115.80523724946306 40.34229028324603 110.93623754125878
  vertex 126.96628647530264 48.992373707007005 109.09842674388061
  vertex 120.72402277228065 40.108460697302576 113.49901266201807
 endloop
endfacet
facet normal 0.03707423007325256 0.6577717903328053 0.7523043089779902
 outer loop
  vertex 120.04269240867774 46.23525424644876 116.16920989735992
  vertex 133.16102201571567 51.37321935560931 111.03038451458359
  vertex 131.28972504562455 53.1020282331811 109.61103226125182
 endloop
endfacet
facet normal -0.3979617124986259 0.2197618585752708 -0.8906914173274061
 outer loop
  vertex 126.96628647530264 48.992373707007005 109.09842674388061
  vertex 137.21676489155044 55.60081154868073 106.14901540905784
  vertex 137.31754010377165 55.374985838650204 106.04827058089658
 endloop
endfacet
facet normal -0.571184043897548 0.6615111079357292 -0.48595456791194797
 outer loop
  vertex 126.96628647530264 48.992373707007005 109.09842674388061
  vertex 131.28972504562455 53.1020282331811 109.61103226125182
  vertex 137.19010145702282 55.790300731862686 106.33525537744939
 endloop
endfacet
facet normal -0.5385812647653886 0.5508509327880707 -0.6375684050282189
 outer loop
  vertex 126.96628647530264 48.992373707007005 109.09842674388061
  vertex 137.19010145702282 55.790300731862686 106.33525537744939
  vertex 137.21676489155044 55.60081154868073 106.14901540905784
 endloop
endfacet
facet normal -0.5222302147587949 0.8057270468227595 -0.27942714401299207
 outer loop
  vertex 131.28972504562455 53.1020282331811 109.61103226125182
  vertex 137.2428308204026 55.90592273153457 106.57010337624797
  vertex 137.19010145702282 55.790300731862686 106.33525537744939
 endloop
endfacet
facet normal -0.37299853603965716 0.9202567272398645 0.11832010852786654
 outer loop
  vertex 131.28972504562455 53.1020282331811 109.61103226125182
  vertex 137.36450928458913 55.92477719265058 106.80704487906985
  vertex 137.2428308204026 55.90592273153457 106.57010337624797
 endloop
endfacet
facet normal 0.02969521383042593 0.6532665612982766 0.7565454343032482
 outer loop
  vertex 131.28972504562455 53.1020282331811 109.61103226125182
  vertex 133.16102201571567 51.37321935560931 111.03038451458359
  vertex 137.5310369374619 55.843129757951914 106.9991507153843
 endloop
endfacet
facet normal -0.16286495683007107 0.8493077548858947 0.5021467348568742
 outer loop
  vertex 131.28972504562455 53.1020282331811 109.61103226125182
  vertex 137.5310369374619 55.843129757951914 106.9991507153843
  vertex 137.36450928458913 55.92477719265058 106.80704487906985
 endloop
endfacet
facet normal 0.09300243231591418 0.6151483921545071 0.782906765338663
 outer loop
  vertex 133.16102201571567 51.37321935560931 111.03038451458359
  vertex 137.70943093504175 55.677151703220716 107.1083719682858
  vertex 137.5310369374619 55.843129757951914 106.9991507153843
 endloop
endfacet
facet normal 0.4253843792421664 0.321399284928691 0.8460204663860579
 outer loop
  vertex 133.16102201571567 51.37321935560931 111.03038451458359
  vertex 137.86435815824927 55.459717017783746 107.11307602912642
  vertex 137.70943093504175 55.677151703220716 107.1083719682858
 endloop
endfacet
facet normal 0.6598758963426938 -0.04024913444613017 0.7502958140642021
 outer loop
  vertex 133.16102201571567 51.37321935560931 111.03038451458359
  vertex 137.96513337047048 55.23389130775322 107.01233120096516
  vertex 137.86435815824927 55.459717017783746 107.11307602912642
 endloop
endfacet
facet normal 0.7556009766843396 -0.40198761254952214 0.517178038387563
 outer loop
  vertex 133.16102201571567 51.37321935560931 111.03038451458359
  vertex 137.9917968049981 55.04440212457126 106.82609123257362
  vertex 137.96513337047048 55.23389130775322 107.01233120096516
 endloop
endfacet
facet normal 0.6799259212929567 -0.7159747127695218 0.15836966953468357
 outer loop
  vertex 133.16102201571567 51.37321935560931 111.03038451458359
  vertex 120.72402277228065 40.108460697302576 113.49901266201807
  vertex 137.93906744161833 54.92878012489938 106.59124323377503
 endloop
endfacet
facet normal 0.6925369165000057 -0.6965992220480949 0.18746237789661438
 outer loop
  vertex 133.16102201571567 51.37321935560931 111.03038451458359
  vertex 137.93906744161833 54.92878012489938 106.59124323377503
  vertex 137.9917968049981 55.04440212457126 106.82609123257362
 endloop
endfacet
facet normal 0.5783489818982246 -0.7812582629223005 -0.23483607421543343
 outer loop
  vertex 120.72402277228065 40.108460697302576 113.49901266201807
  vertex 137.8173889774318 54.90992566378337 106.35430173095315
  vertex 137.93906744161833 54.92878012489938 106.59124323377503
 endloop
endfacet
facet normal 0.3572468737436531 -0.7071161970066029 -0.6102141879138058
 outer loop
  vertex 120.72402277228065 40.108460697302576 113.49901266201807
  vertex 137.65086132455903 54.991573098482036 106.1621958946387
  vertex 137.8173889774318 54.90992566378337 106.35430173095315
 endloop
endfacet
facet normal 0.0012225227857546002 -0.4445614491411761 -0.8957475221152085
 outer loop
  vertex 120.72402277228065 40.108460697302576 113.49901266201807
  vertex 126.96628647530264 48.992373707007005 109.09842674388061
  vertex 137.47246732697917 55.157551153213234 106.05297464173721
 endloop
endfacet
facet normal 0.06448066956691864 -0.4992748888881739 -0.8640409877881394
 outer loop
  vertex 120.72402277228065 40.108460697302576 113.49901266201807
  vertex 137.47246732697917 55.157551153213234 106.05297464173721
  vertex 137.65086132455903 54.991573098482036 106.1621958946387
 endloop
endfacet
facet normal -0.18947647978802828 -0.1559790750293657 -0.969416933914464
 outer loop
  vertex 126.96628647530264 48.992373707007005 109.09842674388061
  vertex 137.31754010377165 55.374985838650204 106.04827058089658
  vertex 137.47246732697917 55.157551153213234 106.05297464173721
 endloop
endfacet
facet normal 0 0 -1
 outer loop
  vertex 17.118408490145967 -8.243791043233593 0
  vertex 11.846306235315934 -14.854798166892568 0
  vertex 4.227897745169954 -18.523630331454655 0
 endloop
endfacet
facet normal 0 0 -1
 outer loop
  vertex 17.118408490145967 -8.243791043233593 0
  vertex 4.227897745169954 -18.523630331454655 0
  vertex -4.227897745169977 -18.523630331454648 0
 endloop
endfacet
facet normal 0 0 -1
 outer loop
  vertex 17.118408490145967 -8.243791043233593 0
  vertex -4.227897745169977 -18.523630331454648 0
  vertex -11.846306235315941 -14.854798166892564 0
 endloop
endfacet
facet normal 0 0 -1
 outer loop
  vertex 17.118408490145967 -8.243791043233593 0
  vertex -11.846306235315941 -14.854798166892564 0
  vertex -17.118408490145963 -8.243791043233601 0
 endloop
endfacet
facet normal 0 0 -1
 outer loop
  vertex 17.118408490145967 -8.243791043233593 0
  vertex -17.118408490145963 -8.243791043233601 0
  vertex -19 2.326828918379971e-15 0
 endloop
endfacet
facet normal 0 0 -1
 outer loop
  vertex 17.118408490145967 -8.243791043233593 0
  vertex -19 2.326828918379971e-15 0
  vertex -17.11840849014596 8.243791043233607 0
 endloop
endfacet
facet normal 0 0 -1
 outer loop
  vertex 17.118408490145967 -8.243791043233593 0
  vertex -17.11840849014596 8.243791043233607 0
  vertex -11.846306235315936 14.854798166892568 0
 endloop
endfacet
facet normal 0 0 -1
 outer loop
  vertex 17.118408490145967 -8.243791043233593 0
  vertex -11.846306235315936 14.854798166892568 0
  vertex -4.227897745169972 18.523630331454648 0
 endloop
endfacet
facet normal 0 0 -1
 outer loop
  vertex 17.118408490145967 -8.243791043233593 0
  vertex -4.227897745169972 18.523630331454648 0
  vertex 4.227897745169974 18.523630331454648 0
 endloop
endfacet
facet normal 0 0 -1
 outer loop
  vertex 17.118408490145967 -8.243791043233593 0
  vertex 4.227897745169974 18.523630331454648 0
  vertex 11.846306235315938 14.854798166892566 0
 endloop
endfacet
facet normal 0 0 -1
 outer loop
  vertex 17.118408490145967 -8.243791043233593 0
  vertex 11.846306235315938 14.854798166892566 0
  vertex 17.118408490145963 8.243791043233605 0
 endloop
endfacet
facet normal 0 0 -1
 outer loop
  vertex 17.118408490145967 -8.243791043233593 0
  vertex 17.118408490145963 8.243791043233605 0
  vertex 19 0 0
 endloop
endfacet
facet normal 0.7424038765061212 0.5198367907256998 -0.4226182617406505
 outer loop
  vertex 137.31754010377165 55.374985838650204 106.04827058089658
  vertex 137.21676489155044 55.60081154868073 106.14901540905784
  vertex 137.19010145702282 55.790300731862686 106.33525537744939
 endloop
endfacet
facet normal 0.7424038765060108 0.5198367907257538 -0.4226182617407781
 outer loop
  vertex 137.31754010377165 55.374985838650204 106.04827058089658
  vertex 137.19010145702282 55.790300731862686 106.33525537744939
  vertex 137.2428308204026 55.90592273153457 106.57010337624797
 endloop
endfacet
facet normal 0.7424038765061032 0.5198367907256873 -0.42261826174069717
 outer loop
  vertex 137.31754010377165 55.374985838650204 106.04827058089658
  vertex 137.2428308204026 55.90592273153457 106.57010337624797
  vertex 137.36450928458913 55.92477719265058 106.80704487906985
 endloop
endfacet
facet normal 0.7424038765060992 0.5198367907256911 -0.42261826174069955
 outer loop
  vertex 137.31754010377165 55.374985838650204 106.04827058089658
  vertex 137.36450928458913 55.92477719265058 106.80704487906985
  vertex 137.5310369374619 55.843129757951914 106.9991507153843
 endloop
endfacet
facet normal 0.7424038765061508 0.5198367907256319 -0.42261826174068207
 outer loop
  vertex 137.31754010377165 55.374985838650204 106.04827058089658
  vertex 137.5310369374619 55.843129757951914 106.9991507153843
  vertex 137.70943093504175 55.677151703220716 107.1083719682858
 endloop
endfacet
facet normal 0.7424038765061077 0.5198367907256923 -0.4226182617406834
 outer loop
  vertex 137.31754010377165 55.374985838650204 106.04827058089658
  vertex 137.70943093504175 55.677151703220716 107.1083719682858
  vertex 137.86435815824927 55.459717017783746 107.11307602912642
 endloop
endfacet
facet normal 0.7424038765061008 0.5198367907257042 -0.42261826174068085
 outer loop
  vertex 137.31754010377165 55.374985838650204 106.04827058089658
  vertex 137.86435815824927 55.459717017783746 107.11307602912642
  vertex 137.96513337047048 55.23389130775322 107.01233120096516
 endloop
endfacet
facet normal 0.7424038765060942 0.5198367907257191 -0.42261826174067413
 outer loop
  vertex 137.31754010377165 55.374985838650204 106.04827058089658
  vertex 137.96513337047048 55.23389130775322 107.01233120096516
  vertex 137.9917968049981 55.04440212457126 106.82609123257362
 endloop
endfacet
facet normal 0.7424038765061233 0.5198367907256244 -0.4226182617407397
 outer loop
  vertex 137.31754010377165 55.374985838650204 106.04827058089658
  vertex 137.9917968049981 55.04440212457126 106.82609123257362
  vertex 137.93906744161833 54.92878012489938 106.59124323377503
 endloop
endfacet
facet normal 0.7424038765061179 0.5198367907256619 -0.4226182617407026
 outer loop
  vertex 137.31754010377165 55.374985838650204 106.04827058089658
  vertex 137.93906744161833 54.92878012489938 106.59124323377503
  vertex 137.8173889774318 54.90992566378337 106.35430173095315
 endloop
endfacet
facet normal 0.7424038765061157 0.5198367907256368 -0.4226182617407374
 outer loop
  vertex 137.31754010377165 55.374985838650204 106.04827058089658
  vertex 137.8173889774318 54.90992566378337 106.35430173095315
  vertex 137.65086132455903 54.991573098482036 106.1621958946387
 endloop
endfacet
facet normal 0.7424038765061592 0.5198367907257321 -0.42261826174054407
 outer loop
  vertex 137.31754010377165 55.374985838650204 106.04827058089658
  vertex 137.65086132455903 54.991573098482036 106.1621958946387
  vertex 137.47246732697917 55.157551153213234 106.05297464173721
 endloop
endfacet
endsolid horn
