# Horn Lab; coordinates in millimeters
v 19 0 0
v 17.118408490145963 8.243791043233605 0
v 11.846306235315938 14.854798166892566 0
v 4.227897745169974 18.523630331454648 0
v -4.227897745169972 18.523630331454648 0
v -11.846306235315936 14.854798166892568 0
v -17.11840849014596 8.243791043233607 0
v -19 2.326828918379971e-15 0
v -17.118408490145963 -8.243791043233601 0
v -11.846306235315941 -14.854798166892564 0
v -4.227897745169977 -18.523630331454648 0
v 4.227897745169954 -18.523630331454655 0
v 11.846306235315934 -14.854798166892568 0
v 17.118408490145967 -8.243791043233593 0
v 16.87166909716312 8.360738018519953 7.881162626476932
v 7.91747616294256 16.72467069477328 11.699608122560493
v -4.2545690636410525 18.16624669898725 8.4818665956295
v -16.831199386316346 7.862670753851641 8.634523351333007
v -16.824605110873723 -5.881538879123213 13.54378741766451
v -12.54670769816181 -12.829687174721052 13.13627498601941
v -3.680124107575124 -18.30151509226815 8.39780866634292
v 5.007009628705391 -17.751445604522623 12.244011543830633
v 13.765940822101285 -12.216107463985528 13.675528207926899
v 17.744026387673344 -5.688791915848531 8.149240964513634
v 18.804938975559434 0.8059490400145144 16.04520459961489
v -9.336118350338829 14.923754192903457 16.14207714294812
v -15.97271339746851 1.159202867156461 23.942273570330286
v 14.80998771570763 11.698889209106033 21.980172106658518
v 1.0650266536749111 17.498557394877732 24.456522308317005
v -11.976642918249782 10.191815451276325 26.936684099143008
v -4.473458652775096 -16.05466401340901 25.758934777602118
v 9.047209693440463 -15.659195122619224 25.814528425065202
v -12.763914712566175 -6.534659352747244 30.746130594727056
v 18.675503018734165 -6.069785209236203 26.896040421052597
v 19.91275148661493 5.332421582047047 31.82800626765972
v 10.400560187788297 15.752431662413121 34.30732353281569
v -3.3279460073327147 14.58877623158596 38.3486675040217
v -6.665826570879172 -11.054746742915265 39.976659278581835
v 5.314490201578046 -15.844803114443517 39.604022599066504
v -6.023597855130365 7.62441512744134 49.24983578831327
v -8.49220915562502 -1.0147163093669151 47.489837933600555
v 17.36996198011468 -11.00124695872526 38.86482752806202
v 18.865493363713238 11.773649315208552 43.22418470099927
v 6.961302110545422 16.3206320835244 47.83727396551716
v 4.074724100195443 -12.861019364027532 54.15664892754195
v 23.190585644644955 -0.9989101866531578 42.13882497265828
v 3.2740035957234994 12.80016573830437 59.12213622003086
v -0.19985822241775963 -7.017094872487615 59.40086339379967
v 13.48415160577622 -13.908895193922952 50.19949096432818
v 25.883068906242844 6.667104021378016 52.12502614577256
v 17.482320299453267 15.499785869784736 55.82723945632932
v 0.9017786738760307 2.9924414485638544 65.79197812042509
v 21.24544663409105 -11.045436352282158 58.9349466500511
v 25.283405693959054 -5.979061657913918 53.535134412387485
v 14.387214608872597 15.785839299597127 67.22462435092146
v 19.288526583346105 -11.361452179527369 69.6306450981515
v 27.279202382540312 12.767940080784411 63.19682715849435
v 9.843552030116179 9.671624304153553 75.49986719702805
v 11.25385260405482 -0.42150766987743893 79.76476211047776
v 12.975824555972842 -7.276785744238758 75.64743986703394
v 31.565451781134193 1.725548353594938 61.797913238331205
v 25.970519110669656 16.545580958028403 73.81656918698452
v 32.16009543054853 -5.394338808433021 69.33615861880894
v 36.00471305151903 9.164633449032745 70.85454199711246
v 20.810955228619775 14.83251236646586 82.67539101288583
v 19.4251160612081 6.909079682133614 89.07368041219979
v 27.016390676633904 -6.543062588965569 86.25355986983242
v 36.99518577886029 15.541981697035695 79.57369456618858
v 24.882236367373054 -1.6375820222813786 91.48949242791348
v 36.15991280488651 -5.873652801010241 81.7829776604653
v 40.431083794990194 2.0166022021873964 75.8902395492877
v 32.613532265466446 18.037792351350042 87.78426695900421
v 29.654926684110052 13.51410116214431 95.5829788623189
v 48.84063504339831 9.053356099032271 84.98883178796684
v 47.221047833444565 13.68072026173397 85.48520840322368
v 33.06318063269151 5.914903731156961 100.80426663089447
v 41.538727195581984 -3.3296207125690103 93.98454291763387
v 46.798746768623744 0.4255303603250411 86.46128597148534
v 44.4378091765325 19.404846135719666 91.76415741432267
v 41.26980948650643 18.7247835639084 99.88718498275702
v 44.86176029276146 1.2221704818221468 103.64817211974383
v 43.226762329524206 13.560798371742429 107.10680458785303
v 53.77189446053262 1.4813723372271426 97.21069934143117
v 57.3167540149813 7.717927074739478 93.22295831000291
v 55.90242723851455 19.558389762495658 95.559781960771
v 53.77720990679961 22.418747010240253 102.83910671924274
v 53.982481564923205 8.840655982252386 112.142773757884
v 63.28742615681311 15.796863638956836 96.736966510131
v 64.40647966608327 22.649071713905983 115.64432782934398
v 61.800112681337396 5.339924910485422 107.05586339111578
v 65.9498910638949 8.462255566146354 101.77677907154546
v 65.88514981970388 24.694121740466848 104.81614057609384
v 60.836978823420736 16.86025865046294 115.87899106825401
v 70.74949997365201 22.85727406941224 102.89931551829406
v 70.77830938214225 27.592378387992994 111.90769200489488
v 70.88536239560057 11.562382665928368 114.85596242061911
v 84.46455638755128 16.601874740990354 114.54564550495245
v 73.56059234018593 16.137076404889754 102.76453144842118
v 79.02095778866556 22.00147315952509 120.9834380648183
v 82.00219670725988 23.964785850393554 106.23060429750903
v 83.90886329744671 18.387154716866206 108.71751250658522
v 87.17108820056256 31.531508847777587 110.72173011969798
v 93.3853822982018 34.217382973878244 119.98428460890993
v 93.15549744450891 25.382435788883186 121.28865328585228
v 103.37086206140157 28.053331132161475 115.86083436610849
v 98.66016240742533 28.00380629304638 111.24997498410863
v 98.44628746466469 33.10585558207697 110.43720991615515
v 105.01589078137681 40.337321804944054 117.51906256375088
v 108.5906083188886 33.49334953444594 119.625513174971
v 111.31804088371973 42.685763394555806 113.08386687690222
v 115.07551375551441 40.51904473389391 119.24024414214665
v 115.80523724946306 40.34229028324603 110.93623754125878
v 120.72402277228065 40.108460697302576 113.49901266201807
v 120.04269240867774 46.23525424644876 116.16920989735992
v 126.96628647530264 48.992373707007005 109.09842674388061
v 131.28972504562455 53.1020282331811 109.61103226125182
v 133.16102201571567 51.37321935560931 111.03038451458359
v 137.31754010377165 55.374985838650204 106.04827058089658
v 137.21676489155044 55.60081154868073 106.14901540905784
v 137.19010145702282 55.790300731862686 106.33525537744939
v 137.2428308204026 55.90592273153457 106.57010337624797
v 137.36450928458913 55.92477719265058 106.80704487906985
v 137.5310369374619 55.843129757951914 106.9991507153843
v 137.70943093504175 55.677151703220716 107.1083719682858
v 137.86435815824927 55.459717017783746 107.11307602912642
v 137.96513337047048 55.23389130775322 107.01233120096516
v 137.9917968049981 55.04440212457126 106.82609123257362
v 137.93906744161833 54.92878012489938 106.59124323377503
v 137.8173889774318 54.90992566378337 106.35430173095315
v 137.65086132455903 54.991573098482036 106.1621958946387
v 137.47246732697917 55.157551153213234 106.05297464173721
f 1 2 15
f 2 3 15
f 3 16 15
f 3 4 16
f 4 17 16
f 4 5 17
f 5 6 17
f 6 18 17
f 6 7 18
f 7 8 18
f 8 19 18
f 8 9 19
f 9 20 19
f 9 10 20
f 10 21 20
f 10 11 21
f 11 12 21
f 12 22 21
f 12 13 22
f 13 23 22
f 13 14 23
f 14 24 23
f 14 1 24
f 1 15 24
f 17 18 26
f 18 19 27
f 24 15 25
f 15 28 25
f 15 16 28
f 16 17 29
f 17 26 29
f 26 18 30
f 18 27 30
f 20 21 31
f 21 22 31
f 22 23 32
f 24 25 23
f 16 29 28
f 26 30 29
f 19 20 33
f 19 33 27
f 20 31 33
f 22 32 31
f 23 25 34
f 25 28 35
f 28 29 36
f 29 30 37
f 33 31 38
f 31 32 39
f 23 34 32
f 25 35 34
f 28 36 35
f 29 37 36
f 30 27 40
f 30 40 37
f 27 33 41
f 27 41 40
f 33 38 41
f 31 39 38
f 32 34 42
f 35 36 43
f 36 37 44
f 38 39 45
f 32 42 39
f 34 46 42
f 34 35 46
f 35 43 46
f 36 44 43
f 37 40 47
f 37 47 44
f 41 38 48
f 38 45 48
f 39 42 49
f 46 43 50
f 43 44 51
f 40 41 52
f 41 48 52
f 39 49 45
f 49 42 53
f 42 54 53
f 42 46 54
f 43 51 50
f 44 47 55
f 44 55 51
f 40 52 47
f 45 49 56
f 49 53 56
f 46 50 54
f 50 51 57
f 47 52 58
f 52 48 59
f 48 60 59
f 48 45 60
f 45 56 60
f 54 50 61
f 50 57 61
f 51 55 62
f 51 62 57
f 47 58 55
f 52 59 58
f 53 54 63
f 54 61 63
f 61 57 64
f 55 58 65
f 58 59 66
f 60 56 67
f 53 63 56
f 57 62 68
f 57 68 64
f 55 65 62
f 58 66 65
f 59 60 69
f 60 67 69
f 56 63 70
f 63 61 71
f 61 64 71
f 62 65 72
f 65 66 73
f 59 69 66
f 56 70 67
f 63 71 70
f 64 68 75
f 64 75 74
f 62 72 68
f 65 73 72
f 66 69 76
f 67 70 77
f 70 71 78
f 71 64 74
f 68 72 79
f 72 73 80
f 66 76 73
f 69 81 76
f 69 67 81
f 67 77 81
f 70 78 77
f 71 74 78
f 68 79 75
f 72 80 79
f 73 76 82
f 77 78 83
f 78 74 84
f 75 79 85
f 79 80 86
f 73 82 80
f 76 87 82
f 76 81 87
f 77 83 81
f 78 84 83
f 75 85 88
f 79 86 85
f 80 82 89
f 81 83 90
f 83 84 91
f 74 75 88
f 74 88 84
f 85 86 92
f 80 89 86
f 82 93 89
f 82 87 93
f 81 90 87
f 83 91 90
f 88 85 94
f 85 92 94
f 86 89 95
f 87 90 96
f 90 91 97
f 84 88 98
f 84 98 91
f 86 95 92
f 93 87 99
f 87 96 99
f 90 97 96
f 88 94 98
f 93 99 89
f 91 98 101
f 91 101 97
f 98 94 100
f 94 102 100
f 94 92 102
f 92 95 102
f 95 89 103
f 99 96 104
f 96 97 104
f 98 100 101
f 89 99 103
f 97 101 105
f 101 100 106
f 100 102 107
f 95 108 102
f 95 103 108
f 101 106 105
f 100 107 106
f 99 104 103
f 104 97 109
f 97 105 109
f 102 110 107
f 102 108 110
f 103 104 111
f 103 111 108
f 104 109 111
f 105 106 113
f 107 110 112
f 108 111 114
f 109 105 113
f 106 112 113
f 106 107 112
f 109 113 111
f 112 110 115
f 110 108 116
f 111 113 117
f 110 116 115
f 108 114 116
f 114 111 117
f 112 115 113
f 114 117 116
f 115 119 118
f 115 116 120
f 115 120 119
f 116 121 120
f 116 122 121
f 116 117 123
f 116 123 122
f 117 124 123
f 117 125 124
f 117 126 125
f 117 127 126
f 117 113 128
f 117 128 127
f 113 129 128
f 113 130 129
f 113 115 131
f 113 131 130
f 115 118 131
f 14 13 12
f 14 12 11
f 14 11 10
f 14 10 9
f 14 9 8
f 14 8 7
f 14 7 6
f 14 6 5
f 14 5 4
f 14 4 3
f 14 3 2
f 14 2 1
f 118 119 120
f 118 120 121
f 118 121 122
f 118 122 123
f 118 123 124
f 118 124 125
f 118 125 126
f 118 126 127
f 118 127 128
f 118 128 129
f 118 129 130
f 118 130 131
