# Horn Lab; coordinates in millimeters
v 21 0 0
v 13.093285839033406 16.418461131828625 0
v -4.672939613082601 20.473486155818296 0
v -18.9203462259508 9.111558521468723 0
v -18.9203462259508 -9.111558521468718 0
v -4.672939613082606 -20.473486155818296 0
v 13.0932858390334 -16.41846113182863 0
v 20.537164294654623 -0.008118281766578505 1.972813920722027
v 13.295522486152917 15.742444806980396 4.180941325937022
v -2.9762989549780903 19.64375056946164 9.221286618521638
v -16.02528659889931 8.758036194394197 13.298366988853008
v -16.025286598899314 -8.71753336569018 13.342057760788466
v -2.9762989549780956 -19.623497795393785 9.319458891931287
v 13.295522486152912 -15.747443438018003 4.259669376593969
v 21.130021012420784 -0.006172924139054757 5.334807335722557
v 14.884066777343229 15.087867909910024 8.952573456816577
v 0.9063681065345217 18.856602159848094 17.34011342601948
v -10.277582807795131 8.462096067303225 24.181438571886513
v -10.246042816132817 -8.268375270755236 24.324891521979225
v 0.9772378245011586 -18.73642569734895 17.662449278970904
v 14.94089987850652 -15.059399731938779 9.211066740901163
v 22.813438206284964 0.02477155034721676 8.912061408815296
v 17.713019559142474 14.47500761665027 13.47791905842563
v 6.447976673060033 18.1366247277261 24.21859025398458
v -2.498883393744828 8.252350515557493 33.04613051547196
v -2.390392528282346 -7.734754935643139 33.313221976982526
v 6.691753434943885 -17.786075143602048 24.818739320325918
v 17.908513343609442 -14.332760982159385 13.95920124183279
v 25.52893963004545 0.10158382111178865 12.293479528092071
v 21.620091909346662 13.919973989877764 17.429778855821027
v 13.252313207905775 17.499326960490954 29.668123517553845
v 6.726711559486349 8.144316940585158 39.79279036627025
v 6.957198103363126 -7.100542717423104 40.1796987593212
v 13.770211770928228 -16.755561752588847 30.537498785246424
v 22.035414310353467 -13.550313904936163 18.12696368955914
v 29.163589217693424 0.23722223234349005 15.188256373631619
v 26.42141088919263 13.433868080585507 20.579226937324766
v 20.957345068210536 16.952026922849846 33.559986172146175
v 16.885944764576927 8.142453393549717 44.35575761504248
v 17.273057448358806 -6.361063957201186 44.83710517590825
v 21.827179373008747 -15.637080746449827 34.64156432371072
v 27.11896384210788 -12.70056713563276 21.44658527128642
v 33.56335428114558 0.4397040527855083 17.373128562279184
v 31.914085404985443 13.022275191170838 22.757703460761455
v 29.220893157192872 16.49428580275621 35.8239458029665
v 27.511806231465673 8.241241080908445 46.73270860244346
v 28.07380194189624 -5.522147967389184 47.26947097297805
v 30.48368605590706 -14.431768666796925 37.03003990160076
v 32.92676668297073 -11.778494907519702 23.72491583138779
v 38.543475676574595 0.7114085259397926 18.679429006056285
v 37.880642812994125 12.684929918030788 23.84630143362519
v 37.71862678153966 16.118414002330212 36.44336738022915
v 38.17942895842117 8.426377233049147 46.98477925475924
v 38.91605590579548 -4.598919813588569 47.53263891007942
v 39.3738125078384 -13.149162793826097 37.67439685143328
v 39.20799870667862 -10.785844350373026 24.83351042047166
v 43.8979682709402 1.0487236087995968 18.989016257574363
v 44.094272614067094 12.41559674540843 23.771949995229647
v 46.14561822265181 15.81011317557049 35.45056441806215
v 48.50730001360545 8.676132791857567 45.23062466535963
v 49.40092342881086 -3.614311670115015 45.7475458940351
v 48.15357181002272 -11.8062648511042 36.6120758756245
v 45.70452636752452 -9.731018920433556 24.703409863618575
v 49.408690892410924 1.4420371046402036 18.232311736042842
v 50.32467345761012 12.202200810077825 22.505659903740998
v 54.21932942611899 15.54928337904781 32.92248978395843
v 58.15990341714685 8.962863369074022 41.63871601228608
v 59.179062842389264 -2.597350613849874 42.09084246018045
v 56.50935986757511 -10.426281655191648 33.93840869067831
v 52.161135284755595 -8.62858499973149 23.320363611557266
v 54.85393427856513 1.8760508696636267 16.386428533183455
v 56.34430426052344 12.027224931663284 20.061133249646982
v 61.683248527381515 15.311005072659842 28.976482618814533
v 66.85043315157954 9.254637869575358 36.41903672571833
v 67.9548627197389 -1.5813086462909522 36.78440052742348
v 64.16487924077808 -9.03714573546511 29.797447629182685
v 58.33441757592843 -7.498475998439181 20.719496071236613
v 60.016433313200174 2.3303851100546082 13.472786259341829
v 61.93486437032388 11.868375132171344 16.49303116929581
v 68.31081293407772 15.066693920609652 23.76582619864498
v 74.34305969030673 9.516942193861848 29.814608352307193
v 75.48919979616132 -0.6018038035267654 30.084521295905013
v 70.88616637493556 -7.6699219507203225 24.37231507768863
v 64.00013747758263 -6.364975119547367 16.979397487746887
v 64.6906140427863 2.7804337783297477 9.553888110150641
v 66.89369202645034 11.699502735012642 11.89437764444644
v 73.90924116637098 14.785413180045499 17.474741602730326
v 80.45440986906559 9.714411607217267 22.0928521057346
v 81.60055260429505 0.30506563044841206 22.271177752410463
v 76.4846005153805 -6.357195314075128 17.875435693630713
v 68.95896987167887 -5.255552849770595 12.215709356453473
v 68.68908899208373 3.198428373657192 4.729437595688297
v 71.03992071140561 11.491755428629203 6.393097634526619
v 78.32308018013671 14.435312393148212 10.312856388301187
v 85.05419976894424 9.81254083531191 13.537055566912748
v 86.16460913763923 1.1044820255258063 13.637807427189408
v 80.81814738337116 -5.131518140413365 10.539243763379433
v 73.04080925504834 -4.199624346332144 6.574646213511668
v 71.84814348533547 3.5546559015305057 -0.8683394125115256
v 74.21992890432831 11.214904945785339 0.14744190750170727
v 81.43698221302171 13.985135661084216 2.50891528387806
v 88.06471506891118 9.779307816398735 4.437843098927961
v 89.1123094504001 1.7644955620300662 4.481703364962132
v 83.79090542119631 -4.023984002106994 2.607468407070466
v 76.10762875215032 -3.2272877007526137 0.22647537597112066
v 74.03242503941006 3.818798129392034 -7.079845708333771
v 76.3120840715251 10.83880861835662 -6.659412774764729
v 83.1777023819019 13.405752538045451 -5.695960363434779
v 89.45932934973588 9.586668760819407 -4.914987790922961
v 90.42677174640966 2.257405266041434 -4.9045833332679125
v 85.35152571499943 -3.062953044991655 -5.672581759296145
v 78.05535503330907 -2.3680678485406563 -6.640664589895517
v 75.13847416403398 3.9613181297270654 -13.723822223802022
v 77.23023248658893 10.334912632143403 -13.825630769608459
v 83.51477758522256 12.671617000579307 -14.055479282724264
v 89.2597188193063 9.211845185520048 -14.240287144718025
v 90.13899826413058 2.560875930188687 -14.24089026611507
v 85.49050056371071 -2.2729752611022125 -14.056834484201993
v 78.81463929853531 -1.649719848715982 -13.826717556813067
v 75.09741272581815 3.9548736671805527 -20.603341962025173
v 76.92611106532631 9.677754884373124 -21.13747613240452
v 82.46009543494704 11.762113839170706 -22.325445449908443
v 87.5321627316472 8.638385725436578 -23.27268478829865
v 88.32294282969397 2.6588015252537014 -23.265903605606145
v 84.23696218628382 -1.673889897351442 -22.3102082707093
v 78.35104756472022 -1.0970835303587947 -21.125256863417505
v 73.87645119947175 3.775673455484495 -27.512049287420332
v 75.39026259412213 8.846363672333862 -28.37638573912936
v 80.06599071470484 10.662695579695827 -30.270879513273034
v 84.3827169189493 7.856934204908075 -31.768938157290886
v 85.08985832989214 2.541875090287503 -31.74249295741013
v 81.65492304203741 -1.2801338434092173 -30.211457688524735
v 76.66448738705033 -0.7310419143344014 -28.32873313553332
v 71.47947000984477 3.404755860519379 -34.240467176496146
v 72.65169297497583 7.825519132838263 -35.326031187406265
v 76.42218210241776 9.365790012265466 -37.672663065114854
v 79.95168217524528 6.865713110792269 -39.51330114314058
v 80.58240764993856 2.2078973275028275 -39.46190740655578
v 77.8394093795986 -1.1002270506592087 -37.55718238724999
v 73.78822100875908 -0.567574893498354 -35.23342287407011
v 67.94649072423209 2.829116440595769 -40.58221024831823
v 68.77612689831898 6.606803434357026 -41.77907261175572
v 71.65148752904351 7.871423675297845 -44.333428031559684
v 74.40736741480231 5.670692328438058 -46.3217947772629
v 74.96853279191423 1.661804984701414 -46.24689213406093
v 72.9124146857264 -1.1364644196794886 -44.16512332002033
v 69.78731196736409 -0.6169619489124551 -41.64410271245856
v 63.35221055316372 2.0426609562706224 -46.339946292663875
v 63.86311881357579 5.189434306230205 -47.543347090484644
v 65.90465155229937 6.187580597372846 -50.082486965514526
v 67.93949297739707 4.2854753139943735 -52.04534180284175
v 68.4353659925697 0.9154425303555449 -51.95384187501707
v 67.01886810342616 -1.3848143313228025 -49.87688849395086
v 64.75665111178269 -0.8831549375080239 -47.378469917713936
v 57.80361863841651 1.046943572168529 -51.33089576146782
v 58.0421415030314 3.5808894485250344 -52.44723400738487
v 59.35446178123118 4.330333153660314 -54.779643825749595
v 60.75237553707624 2.73092829174195 -56.57177305084371
v 61.18322520017133 -0.012940654292082021 -56.474111823397344
v 60.32257218647439 -1.8350844033518987 -54.5602010396036
v 58.81850576942125 -1.3633915474367369 -52.271254556324244
v 51.43685074320035 -0.1483199800977583 -55.3915967939088
v 51.46789854394608 1.7974231599466302 -56.3439547109528
v 52.18940875191375 2.323881843230572 -58.317816461357495
v 53.05806946437766 1.0346219434412156 -59.82682388762622
v 53.41976144740316 -1.099517538770882 -59.734663619636805
v 53.00212326060018 -2.471486044788166 -58.11073421891215
v 52.11964497689782 -2.048163306522347 -56.17788764632079
v 44.41357421713756 -1.5249210063328156 -58.381509847821576
v 44.315152831675874 -0.13517240096943617 -59.114559346985324
v 44.60708033253059 0.20091186187999055 -60.62461736771154
v 45.06952935732231 -0.7697465225797332 -61.774579420823336
v 45.354266358141906 -2.316221993027783 -61.6985006253766
v 45.2468785657959 -3.273986977866153 -60.45366986606734
v 44.8282311782326 -2.921824908666318 -58.97747009457528
v 36.917489099282705 -3.055823733925279 -60.18363173890289
v 36.77325576341333 -2.1791012273206913 -60.668516629986556
v 36.80698481033612 -1.995099281324785 -61.66328524711702
v 36.993277579771025 -2.6423751142281544 -62.41885653201327
v 37.19185181665362 -3.633516821833798 -62.36626989630304
v 37.25317707043506 -4.222174482708368 -61.545124149248
v 37.131074174210724 -3.965076871785346 -60.57375878670126
v 29.155367019469008 -4.702568088495472 -60.67891661989193
v 29.039114954871476 -4.260689736718377 -60.92854899433339
v 28.976946705379117 -4.183283688403208 -61.439656375517615
v 29.01567623086086 -4.528638276726917 -61.82736448072234
v 29.126139408690605 -5.036694452731995 -61.79972119892434
v 29.225155212924374 -5.324875553429308 -61.3775424851377
v 29.238162723419816 -5.176175332170631 -60.8787375217201
f 1 2 9 8
f 2 3 10 9
f 3 4 11 10
f 4 5 12 11
f 5 6 13 12
f 6 7 14 13
f 7 1 8 14
f 8 9 16 15
f 9 10 17 16
f 10 11 18 17
f 11 12 19 18
f 12 13 20 19
f 13 14 21 20
f 14 8 15 21
f 15 16 23 22
f 16 17 24 23
f 17 18 25 24
f 18 19 26 25
f 19 20 27 26
f 20 21 28 27
f 21 15 22 28
f 22 23 30 29
f 23 24 31 30
f 24 25 32 31
f 25 26 33 32
f 26 27 34 33
f 27 28 35 34
f 28 22 29 35
f 29 30 37 36
f 30 31 38 37
f 31 32 39 38
f 32 33 40 39
f 33 34 41 40
f 34 35 42 41
f 35 29 36 42
f 36 37 44 43
f 37 38 45 44
f 38 39 46 45
f 39 40 47 46
f 40 41 48 47
f 41 42 49 48
f 42 36 43 49
f 43 44 51 50
f 44 45 52 51
f 45 46 53 52
f 46 47 54 53
f 47 48 55 54
f 48 49 56 55
f 49 43 50 56
f 50 51 58 57
f 51 52 59 58
f 52 53 60 59
f 53 54 61 60
f 54 55 62 61
f 55 56 63 62
f 56 50 57 63
f 57 58 65 64
f 58 59 66 65
f 59 60 67 66
f 60 61 68 67
f 61 62 69 68
f 62 63 70 69
f 63 57 64 70
f 64 65 72 71
f 65 66 73 72
f 66 67 74 73
f 67 68 75 74
f 68 69 76 75
f 69 70 77 76
f 70 64 71 77
f 71 72 79 78
f 72 73 80 79
f 73 74 81 80
f 74 75 82 81
f 75 76 83 82
f 76 77 84 83
f 77 71 78 84
f 78 79 86 85
f 79 80 87 86
f 80 81 88 87
f 81 82 89 88
f 82 83 90 89
f 83 84 91 90
f 84 78 85 91
f 85 86 93 92
f 86 87 94 93
f 87 88 95 94
f 88 89 96 95
f 89 90 97 96
f 90 91 98 97
f 91 85 92 98
f 92 93 100 99
f 93 94 101 100
f 94 95 102 101
f 95 96 103 102
f 96 97 104 103
f 97 98 105 104
f 98 92 99 105
f 99 100 107 106
f 100 101 108 107
f 101 102 109 108
f 102 103 110 109
f 103 104 111 110
f 104 105 112 111
f 105 99 106 112
f 106 107 114 113
f 107 108 115 114
f 108 109 116 115
f 109 110 117 116
f 110 111 118 117
f 111 112 119 118
f 112 106 113 119
f 113 114 121 120
f 114 115 122 121
f 115 116 123 122
f 116 117 124 123
f 117 118 125 124
f 118 119 126 125
f 119 113 120 126
f 120 121 128 127
f 121 122 129 128
f 122 123 130 129
f 123 124 131 130
f 124 125 132 131
f 125 126 133 132
f 126 120 127 133
f 127 128 135 134
f 128 129 136 135
f 129 130 137 136
f 130 131 138 137
f 131 132 139 138
f 132 133 140 139
f 133 127 134 140
f 134 135 142 141
f 135 136 143 142
f 136 137 144 143
f 137 138 145 144
f 138 139 146 145
f 139 140 147 146
f 140 134 141 147
f 141 142 149 148
f 142 143 150 149
f 143 144 151 150
f 144 145 152 151
f 145 146 153 152
f 146 147 154 153
f 147 141 148 154
f 148 149 156 155
f 149 150 157 156
f 150 151 158 157
f 151 152 159 158
f 152 153 160 159
f 153 154 161 160
f 154 148 155 161
f 155 156 163 162
f 156 157 164 163
f 157 158 165 164
f 158 159 166 165
f 159 160 167 166
f 160 161 168 167
f 161 155 162 168
f 162 163 170 169
f 163 164 171 170
f 164 165 172 171
f 165 166 173 172
f 166 167 174 173
f 167 168 175 174
f 168 162 169 175
f 169 170 177 176
f 170 171 178 177
f 171 172 179 178
f 172 173 180 179
f 173 174 181 180
f 174 175 182 181
f 175 169 176 182
f 176 177 184 183
f 177 178 185 184
f 178 179 186 185
f 179 180 187 186
f 180 181 188 187
f 181 182 189 188
f 182 176 183 189
f 7 6 5 4 3 2 1
f 183 184 185 186 187 188 189
