solid horn
facet normal 0.8996292826290251 0.4332386288501632 0.054510955856747596
 outer loop
  vertex 19 0 0
  vertex 11.846306235315938 14.854798166892566 0
  vertex 11.33303339925659 14.503837801242256 11.26021092906864
 endloop
endfacet
facet normal 0.888790897186955 0.45806223348079544 0.015156890716527024
 outer loop
  vertex 19 0 0
  vertex 11.33303339925659 14.503837801242256 11.26021092906864
  vertex 18.54231987653986 0.5341035853075558 10.696735193974131
 endloop
endfacet
facet normal 0.2219519052247136 0.9724348344142285 0.07146918626157289
 outer loop
  vertex 11.846306235315938 14.854798166892566 0
  vertex -4.227897745169972 18.523630331454648 0
  vertex -4.0445454119161 17.56029450919519 12.538073510889776
 endloop
endfacet
facet normal 0.19795523979668952 0.9794128491037821 0.03954989314078205
 outer loop
  vertex 11.846306235315938 14.854798166892566 0
  vertex -4.0445454119161 17.56029450919519 12.538073510889776
  vertex 11.33303339925659 14.503837801242256 11.26021092906864
 endloop
endfacet
facet normal -0.620431645565629 0.7779966757701033 0.09892292793581428
 outer loop
  vertex -4.227897745169972 18.523630331454648 0
  vertex -17.11840849014596 8.243791043233607 0
  vertex -16.010786066723075 7.401899467723223 13.56806635167997
 endloop
endfacet
facet normal -0.6422599229607604 0.7634600543301867 0.06805098677158554
 outer loop
  vertex -4.227897745169972 18.523630331454648 0
  vertex -16.010786066723075 7.401899467723223 13.56806635167997
  vertex -4.0445454119161 17.56029450919519 12.538073510889776
 endloop
endfacet
facet normal -0.9934318735280027 2.1406286182715736e-16 0.11442513997650405
 outer loop
  vertex -17.11840849014596 8.243791043233607 0
  vertex -17.118408490145963 -8.243791043233601 0
  vertex -15.554865285269425 -8.321868663449894 13.574583834299219
 endloop
endfacet
facet normal -0.9964129732188437 -0.028858661946627673 0.07955101779257195
 outer loop
  vertex -17.11840849014596 8.243791043233607 0
  vertex -15.554865285269425 -8.321868663449894 13.574583834299219
  vertex -16.010786066723075 7.401899467723223 13.56806635167997
 endloop
endfacet
facet normal -0.6199584111478037 -0.7774032585797331 0.10628142827749176
 outer loop
  vertex -17.118408490145963 -8.243791043233601 0
  vertex -4.227897745169977 -18.523630331454648 0
  vertex -3.0201007150788315 -17.77069177513353 12.55271816140281
 endloop
endfacet
facet normal -0.59736001507851 -0.7993988216684872 0.06420698015353642
 outer loop
  vertex -17.118408490145963 -8.243791043233601 0
  vertex -3.0201007150788315 -17.77069177513353 12.55271816140281
  vertex -15.554865285269425 -8.321868663449894 13.574583834299219
 endloop
endfacet
facet normal 0.22176566595074074 -0.9716188668406961 0.08232112125467053
 outer loop
  vertex -4.227897745169977 -18.523630331454648 0
  vertex 11.846306235315934 -14.854798166892568 0
  vertex 12.154574259895547 -13.829413343364116 11.271955026942713
 endloop
endfacet
facet normal 0.25389708491761315 -0.9666491196298874 0.03355219499677261
 outer loop
  vertex -4.227897745169977 -18.523630331454648 0
  vertex 12.154574259895547 -13.829413343364116 11.271955026942713
  vertex -3.0201007150788315 -17.77069177513353 12.55271816140281
 endloop
endfacet
facet normal 0.8993399570008289 -0.4330992969710536 0.060105246900136786
 outer loop
  vertex 11.846306235315934 -14.854798166892568 0
  vertex 19 0 0
  vertex 18.54231987653986 0.5341035853075558 10.696735193974131
 endloop
endfacet
facet normal 0.9138303168570404 -0.40592084172471904 0.011934079204397409
 outer loop
  vertex 11.846306235315934 -14.854798166892568 0
  vertex 18.54231987653986 0.5341035853075558 10.696735193974131
  vertex 12.154574259895547 -13.829413343364116 11.271955026942713
 endloop
endfacet
facet normal 0.8878349491892887 0.4593095444113167 -0.027997239341081292
 outer loop
  vertex 18.54231987653986 0.5341035853075558 10.696735193974131
  vertex 11.33303339925659 14.503837801242256 11.26021092906864
  vertex 11.857875984378017 14.167347611442556 22.383465987324385
 endloop
endfacet
facet normal 0.8731852531377366 0.48314420652256196 -0.06418091154285013
 outer loop
  vertex 18.54231987653986 0.5341035853075558 10.696735193974131
  vertex 11.857875984378017 14.167347611442556 22.383465987324385
  vertex 19.019206996700106 1.0742860517203559 21.25122582933075
 endloop
endfacet
facet normal 0.19859921404437195 0.978875871896745 0.04858373801330105
 outer loop
  vertex 11.33303339925659 14.503837801242256 11.26021092906864
  vertex -4.0445454119161 17.56029450919519 12.538073510889776
  vertex -2.669418716361957 16.663998809774068 24.97563344368532
 endloop
endfacet
facet normal 0.1730825720290973 0.9846699832343591 0.021620531377358407
 outer loop
  vertex 11.33303339925659 14.503837801242256 11.26021092906864
  vertex -2.669418716361957 16.663998809774068 24.97563344368532
  vertex 11.857875984378017 14.167347611442556 22.383465987324385
 endloop
endfacet
facet normal -0.6320027979713488 0.7598974765547286 0.15207987533576522
 outer loop
  vertex -4.0445454119161 17.56029450919519 12.538073510889776
  vertex -16.010786066723075 7.401899467723223 13.56806635167997
  vertex -13.623327893055464 6.684210371968037 27.075773233193967
 endloop
endfacet
facet normal -0.6547789419161953 0.745227414016886 0.1260977343999985
 outer loop
  vertex -4.0445454119161 17.56029450919519 12.538073510889776
  vertex -13.623327893055464 6.684210371968037 27.075773233193967
  vertex -2.669418716361957 16.663998809774068 24.97563344368532
 endloop
endfacet
facet normal -0.978831796785202 -0.02829783905162052 0.20270063124534582
 outer loop
  vertex -16.010786066723075 7.401899467723223 13.56806635167997
  vertex -15.554865285269425 -8.321868663449894 13.574583834299219
  vertex -12.75533451662589 -8.257033457723002 27.102437259305802
 endloop
endfacet
facet normal -0.9836580435150537 -0.056839538150914956 0.1708394577693547
 outer loop
  vertex -16.010786066723075 7.401899467723223 13.56806635167997
  vertex -12.75533451662589 -8.257033457723002 27.102437259305802
  vertex -13.623327893055464 6.684210371968037 27.075773233193967
 endloop
endfacet
facet normal -0.5854232130941239 -0.7942219050677568 0.162761257924283
 outer loop
  vertex -15.554865285269425 -8.321868663449894 13.574583834299219
  vertex -3.0201007150788315 -17.77069177513353 12.55271816140281
  vertex -0.7190553033628362 -16.908671329711154 25.035546966511603
 endloop
endfacet
facet normal -0.5655968262767976 -0.8157631416753219 0.12095754126809416
 outer loop
  vertex -15.554865285269425 -8.321868663449894 13.574583834299219
  vertex -0.7190553033628362 -16.908671329711154 25.035546966511603
  vertex -12.75533451662589 -8.257033457723002 27.102437259305802
 endloop
endfacet
facet normal 0.2559113796955749 -0.9645970779740736 0.0637325890434868
 outer loop
  vertex -3.0201007150788315 -17.77069177513353 12.55271816140281
  vertex 12.154574259895547 -13.829413343364116 11.271955026942713
  vertex 13.421946003795131 -12.755843465138925 22.431512902163785
 endloop
endfacet
facet normal 0.2840912178660586 -0.9586974238139765 0.01383580513827272
 outer loop
  vertex -3.0201007150788315 -17.77069177513353 12.55271816140281
  vertex 13.421946003795131 -12.755843465138925 22.431512902163785
  vertex -0.7190553033628362 -16.908671329711154 25.035546966511603
 endloop
endfacet
facet normal 0.913223127242842 -0.4069470970099797 -0.020434776826622706
 outer loop
  vertex 12.154574259895547 -13.829413343364116 11.271955026942713
  vertex 18.54231987653986 0.5341035853075558 10.696735193974131
  vertex 19.019206996700106 1.0742860517203559 21.25122582933075
 endloop
endfacet
facet normal 0.9227559874389377 -0.3792827299206261 -0.06830811393640122
 outer loop
  vertex 12.154574259895547 -13.829413343364116 11.271955026942713
  vertex 19.019206996700106 1.0742860517203559 21.25122582933075
  vertex 13.421946003795131 -12.755843465138925 22.431512902163785
 endloop
endfacet
facet normal 0.8669041903292363 0.48434814927557784 -0.11783036570822411
 outer loop
  vertex 19.019206996700106 1.0742860517203559 21.25122582933075
  vertex 11.857875984378017 14.167347611442556 22.383465987324385
  vertex 13.486982991901463 13.920184619175558 33.353191369010496
 endloop
endfacet
facet normal 0.8486441920958613 0.5071405646472816 -0.15037115052828184
 outer loop
  vertex 19.019206996700106 1.0742860517203559 21.25122582933075
  vertex 13.486982991901463 13.920184619175558 33.353191369010496
  vertex 20.50335321103758 1.6905537571459162 31.70566746656681
 endloop
endfacet
facet normal 0.17328715867520064 0.984606745269042 0.022828004927721364
 outer loop
  vertex 11.857875984378017 14.167347611442556 22.383465987324385
  vertex -2.669418716361957 16.663998809774068 24.97563344368532
  vertex -0.041593829579963604 15.919023779475978 37.15975258343175
 endloop
endfacet
facet normal 0.14631669481969656 0.9892376417196269 0.0005594837180137002
 outer loop
  vertex 11.857875984378017 14.167347611442556 22.383465987324385
  vertex -0.041593829579963604 15.919023779475978 37.15975258343175
  vertex 13.486982991901463 13.920184619175558 33.353191369010496
 endloop
endfacet
facet normal -0.6365739307233584 0.7425478014277636 0.2083180100668386
 outer loop
  vertex -2.669418716361957 16.663998809774068 24.97563344368532
  vertex -13.623327893055464 6.684210371968037 27.075773233193967
  vertex -9.895082974156075 6.181904581452713 40.25893287567335
 endloop
endfacet
facet normal -0.6601523894012706 0.7275173326278295 0.1868618567120678
 outer loop
  vertex -2.669418716361957 16.663998809774068 24.97563344368532
  vertex -9.895082974156075 6.181904581452713 40.25893287567335
  vertex -0.041593829579963604 15.919023779475978 37.15975258343175
 endloop
endfacet
facet normal -0.9532619826315533 -0.054848347845459874 0.2971249757391388
 outer loop
  vertex -13.623327893055464 6.684210371968037 27.075773233193967
  vertex -12.75533451662589 -8.257033457723002 27.102437259305802
  vertex -8.653606141412531 -7.958923617748504 40.31698627392053
 endloop
endfacet
facet normal -0.9597525402706815 -0.0831590295043508 0.26825293522321153
 outer loop
  vertex -13.623327893055464 6.684210371968037 27.075773233193967
  vertex -8.653606141412531 -7.958923617748504 40.31698627392053
  vertex -9.895082974156075 6.181904581452713 40.25893287567335
 endloop
endfacet
facet normal -0.543351507240531 -0.8092639291605923 0.22329584084573306
 outer loop
  vertex -12.75533451662589 -8.257033457723002 27.102437259305802
  vertex -0.7190553033628362 -16.908671329711154 25.035546966511603
  vertex 2.7479792920825488 -15.855128763801957 37.29019738521963
 endloop
endfacet
facet normal -0.5266669429303265 -0.8303149484004692 0.18220597599187094
 outer loop
  vertex -12.75533451662589 -8.257033457723002 27.102437259305802
  vertex 2.7479792920825488 -15.855128763801957 37.29019738521963
  vertex -8.653606141412531 -7.958923617748504 40.31698627392053
 endloop
endfacet
facet normal 0.28885028138377355 -0.9563920578197246 0.043356045528474337
 outer loop
  vertex -0.7190553033628362 -16.908671329711154 25.035546966511603
  vertex 13.421946003795131 -12.755843465138925 22.431512902163785
  vertex 15.724046944949539 -11.560707328498296 33.45779997800378
 endloop
endfacet
facet normal 0.31239494072003127 -0.9499285791663853 -0.006715317971649099
 outer loop
  vertex -0.7190553033628362 -16.908671329711154 25.035546966511603
  vertex 15.724046944949539 -11.560707328498296 33.45779997800378
  vertex 2.7479792920825488 -15.855128763801957 37.29019738521963
 endloop
endfacet
facet normal 0.9183118644252024 -0.3808642763372777 -0.10791534953837899
 outer loop
  vertex 13.421946003795131 -12.755843465138925 22.431512902163785
  vertex 19.019206996700106 1.0742860517203559 21.25122582933075
  vertex 20.50335321103758 1.6905537571459162 31.70566746656681
 endloop
endfacet
facet normal 0.9227222210079316 -0.35320709580979215 -0.15436466670777368
 outer loop
  vertex 13.421946003795131 -12.755843465138925 22.431512902163785
  vertex 20.50335321103758 1.6905537571459162 31.70566746656681
  vertex 15.724046944949539 -11.560707328498296 33.45779997800378
 endloop
endfacet
facet normal 0.8353887101449091 0.5076652080104351 -0.21071720275797812
 outer loop
  vertex 20.50335321103758 1.6905537571459162 31.70566746656681
  vertex 13.486982991901463 13.920184619175558 33.353191369010496
  vertex 16.241326251623228 13.83913797266766 44.07753029720344
 endloop
endfacet
facet normal 0.8139934955277414 0.5292844725814209 -0.23931681161743731
 outer loop
  vertex 20.50335321103758 1.6905537571459162 31.70566746656681
  vertex 16.241326251623228 13.83913797266766 44.07753029720344
  vertex 23.02752059151402 2.4562917208147272 41.98471567442743
 endloop
endfacet
facet normal 0.14480530132649114 0.9894479239331163 -0.004922451847424592
 outer loop
  vertex 13.486982991901463 13.920184619175558 33.353191369010496
  vertex -0.041593829579963604 15.919023779475978 37.15975258343175
  vertex 3.8409021496519395 15.409490192624725 48.952463266375275
 endloop
endfacet
facet normal 0.11688492320481644 0.9928901942823412 -0.022516145881992432
 outer loop
  vertex 13.486982991901463 13.920184619175558 33.353191369010496
  vertex 3.8409021496519395 15.409490192624725 48.952463266375275
  vertex 16.241326251623228 13.83913797266766 44.07753029720344
 endloop
endfacet
facet normal -0.6345104857273317 0.7262651112682281 0.2644530802554849
 outer loop
  vertex -0.041593829579963604 15.919023779475978 37.15975258343175
  vertex -9.895082974156075 6.181904581452713 40.25893287567335
  vertex -4.835979443061959 5.984841129710701 52.93859062564639
 endloop
endfacet
facet normal -0.6583945463460187 0.7108253242803757 0.2474752102807855
 outer loop
  vertex -0.041593829579963604 15.919023779475978 37.15975258343175
  vertex -4.835979443061959 5.984841129710701 52.93859062564639
  vertex 3.8409021496519395 15.409490192624725 48.952463266375275
 endloop
endfacet
facet normal -0.9162503367329142 -0.07882860098979284 0.3927739452952723
 outer loop
  vertex -9.895082974156075 6.181904581452713 40.25893287567335
  vertex -8.653606141412531 -7.958923617748504 40.31698627392053
  vertex -3.255449711076432 -7.337856243895092 53.034277171305796
 endloop
endfacet
facet normal -0.9240389515513449 -0.10698673376975515 0.36702296224237896
 outer loop
  vertex -9.895082974156075 6.181904581452713 40.25893287567335
  vertex -3.255449711076432 -7.337856243895092 53.034277171305796
  vertex -4.835979443061959 5.984841129710701 52.93859062564639
 endloop
endfacet
facet normal -0.4934848516271534 -0.8217682408777096 0.28490289485942577
 outer loop
  vertex -8.653606141412531 -7.958923617748504 40.31698627392053
  vertex 2.7479792920825488 -15.855128763801957 37.29019738521963
  vertex 7.392320220492449 -14.526339072367756 49.16746898282214
 endloop
endfacet
facet normal -0.4798644359064505 -0.8424882395031292 0.24483400387017795
 outer loop
  vertex -8.653606141412531 -7.958923617748504 40.31698627392053
  vertex 7.392320220492449 -14.526339072367756 49.16746898282214
  vertex -3.255449711076432 -7.337856243895092 53.034277171305796
 endloop
endfacet
facet normal 0.3200819411623557 -0.9471237105255746 0.0224550195280684
 outer loop
  vertex 2.7479792920825488 -15.855128763801957 37.29019738521963
  vertex 15.724046944949539 -11.560707328498296 33.45779997800378
  vertex 19.08934241824945 -10.167533167540636 44.24995149463593
 endloop
endfacet
facet normal 0.3389471479214443 -0.9404084303687748 -0.027327916262607048
 outer loop
  vertex 2.7479792920825488 -15.855128763801957 37.29019738521963
  vertex 19.08934241824945 -10.167533167540636 44.24995149463593
  vertex 7.392320220492449 -14.526339072367756 49.16746898282214
 endloop
endfacet
facet normal 0.9134586551651486 -0.35561205473449087 -0.19782151508719192
 outer loop
  vertex 15.724046944949539 -11.560707328498296 33.45779997800378
  vertex 20.50335321103758 1.6905537571459162 31.70566746656681
  vertex 23.02752059151402 2.4562917208147272 41.98471567442743
 endloop
endfacet
facet normal 0.9129676166885561 -0.3282932351720256 -0.24230906425122223
 outer loop
  vertex 15.724046944949539 -11.560707328498296 33.45779997800378
  vertex 23.02752059151402 2.4562917208147272 41.98471567442743
  vertex 19.08934241824945 -10.167533167540636 44.24995149463593
 endloop
endfacet
facet normal 0.7925629744168461 0.5284511153095204 -0.3042751227288319
 outer loop
  vertex 23.02752059151402 2.4562917208147272 41.98471567442743
  vertex 16.241326251623228 13.83913797266766 44.07753029720344
  vertex 20.115493953432555 13.999793023508317 54.44781686428708
 endloop
endfacet
facet normal 0.7686021854534429 0.5488068700639266 -0.32872739448793714
 outer loop
  vertex 23.02752059151402 2.4562917208147272 41.98471567442743
  vertex 20.115493953432555 13.999793023508317 54.44781686428708
  vertex 26.599290437853377 3.445157375122369 51.98682206902572
 endloop
endfacet
facet normal 0.11244352015058234 0.9930805264219355 -0.03387510616481282
 outer loop
  vertex 16.241326251623228 13.83913797266766 44.07753029720344
  vertex 3.8409021496519395 15.409490192624725 48.952463266375275
  vertex 8.946968993991945 15.215588405837012 60.21690151633814
 endloop
endfacet
facet normal 0.08414926931974984 0.9953508718504326 -0.046856615109673365
 outer loop
  vertex 16.241326251623228 13.83913797266766 44.07753029720344
  vertex 8.946968993991945 15.215588405837012 60.21690151633814
  vertex 20.115493953432555 13.999793023508317 54.44781686428708
 endloop
endfacet
facet normal -0.6261368819971541 0.7114234714302372 0.31910695589571925
 outer loop
  vertex 3.8409021496519395 15.409490192624725 48.952463266375275
  vertex -4.835979443061959 5.984841129710701 52.93859062564639
  vertex 1.503842650380875 6.177024801508828 64.94983761430393
 endloop
endfacet
facet normal -0.6497785602692137 0.6955847085331511 0.3065122116153272
 outer loop
  vertex 3.8409021496519395 15.409490192624725 48.952463266375275
  vertex 1.503842650380875 6.177024801508828 64.94983761430393
  vertex 8.946968993991945 15.215588405837012 60.21690151633814
 endloop
endfacet
facet normal -0.8676550226495447 -0.09943508756521438 0.48712157110100984
 outer loop
  vertex -4.835979443061959 5.984841129710701 52.93859062564639
  vertex -3.255449711076432 -7.337856243895092 53.034277171305796
  vertex 3.390940871446322 -6.309675042320147 65.08262774211435
 endloop
endfacet
facet normal -0.876307282999128 -0.12749460267134324 0.46457579796235876
 outer loop
  vertex -4.835979443061959 5.984841129710701 52.93859062564639
  vertex 3.390940871446322 -6.309675042320147 65.08262774211435
  vertex 1.503842650380875 6.177024801508828 64.94983761430393
 endloop
endfacet
facet normal -0.43552479192245436 -0.831114340926122 0.345784771104571
 outer loop
  vertex -3.255449711076432 -7.337856243895092 53.034277171305796
  vertex 7.392320220492449 -14.526339072367756 49.16746898282214
  vertex 13.187240206937512 -12.841771460988777 60.515278225103195
 endloop
endfacet
facet normal -0.4247554779014711 -0.8516678130367734 0.3069930296111829
 outer loop
  vertex -3.255449711076432 -7.337856243895092 53.034277171305796
  vertex 13.187240206937512 -12.841771460988777 60.515278225103195
  vertex 3.390940871446322 -6.309675042320147 65.08262774211435
 endloop
endfacet
facet normal 0.34967864463035836 -0.9368687531277133 0.0013360023950232448
 outer loop
  vertex 7.392320220492449 -14.526339072367756 49.16746898282214
  vertex 19.08934241824945 -10.167533167540636 44.24995149463593
  vertex 23.515927449140555 -8.500462620755496 54.687096406531026
 endloop
endfacet
facet normal 0.3639960580994389 -0.9301732858572446 -0.04779673593046365
 outer loop
  vertex 7.392320220492449 -14.526339072367756 49.16746898282214
  vertex 23.515927449140555 -8.500462620755496 54.687096406531026
  vertex 13.187240206937512 -12.841771460988777 60.515278225103195
 endloop
endfacet
facet normal 0.898284548365612 -0.3319051987661681 -0.28796494439354775
 outer loop
  vertex 19.08934241824945 -10.167533167540636 44.24995149463593
  vertex 23.02752059151402 2.4562917208147272 41.98471567442743
  vertex 26.599290437853377 3.445157375122369 51.98682206902572
 endloop
endfacet
facet normal 0.8932517832616944 -0.30518120555254696 -0.3300995054181343
 outer loop
  vertex 19.08934241824945 -10.167533167540636 44.24995149463593
  vertex 26.599290437853377 3.445157375122369 51.98682206902572
  vertex 23.515927449140555 -8.500462620755496 54.687096406531026
 endloop
endfacet
facet normal 0.7381251311468542 0.545879467353585 -0.39646802883865123
 outer loop
  vertex 26.599290437853377 3.445157375122369 51.98682206902572
  vertex 20.115493953432555 13.999793023508317 54.44781686428708
  vertex 25.08228871457401 14.474012450657927 64.34768872594866
 endloop
endfacet
facet normal 0.7122141085912436 0.5649361804007866 -0.4166511437614807
 outer loop
  vertex 26.599290437853377 3.445157375122369 51.98682206902572
  vertex 25.08228871457401 14.474012450657927 64.34768872594866
  vertex 31.203929736911974 4.7283514125670845 61.59776847334594
 endloop
endfacet
facet normal 0.07572131598685986 0.9951288485154008 -0.06312572500677162
 outer loop
  vertex 20.115493953432555 13.999793023508317 54.44781686428708
  vertex 8.946968993991945 15.215588405837012 60.21690151633814
  vertex 15.219743576486284 15.410769278561665 70.81817165351792
 endloop
endfacet
facet normal 0.04763875484301247 0.9962933688949767 -0.07162452186859893
 outer loop
  vertex 20.115493953432555 13.999793023508317 54.44781686428708
  vertex 15.219743576486284 15.410769278561665 70.81817165351792
  vertex 25.08228871457401 14.474012450657927 64.34768872594866
 endloop
endfacet
facet normal -0.6118718327533662 0.6983420487925505 0.37139095730949023
 outer loop
  vertex 8.946968993991945 15.215588405837012 60.21690151633814
  vertex 1.503842650380875 6.177024801508828 64.94983761430393
  vertex 9.042991970885986 6.8332248985098625 76.13681163779617
 endloop
endfacet
facet normal -0.6347279228718504 0.68216176295937 0.36300935674297785
 outer loop
  vertex 8.946968993991945 15.215588405837012 60.21690151633814
  vertex 9.042991970885986 6.8332248985098625 76.13681163779617
  vertex 15.219743576486284 15.410769278561665 70.81817165351792
 endloop
endfacet
facet normal -0.8076469023188942 -0.11591011569309563 0.5781620242239264
 outer loop
  vertex 1.503842650380875 6.177024801508828 64.94983761430393
  vertex 3.390940871446322 -6.309675042320147 65.08262774211435
  vertex 11.203253839561016 -4.799554821299866 76.29856429013806
 endloop
endfacet
facet normal -0.8167006114118052 -0.14389462286200766 0.5588331135777337
 outer loop
  vertex 1.503842650380875 6.177024801508828 64.94983761430393
  vertex 11.203253839561016 -4.799554821299866 76.29856429013806
  vertex 9.042991970885986 6.8332248985098625 76.13681163779617
 endloop
endfacet
facet normal -0.36939931532977777 -0.8367016641063659 0.4043197634490916
 outer loop
  vertex 3.390940871446322 -6.309675042320147 65.08262774211435
  vertex 13.187240206937512 -12.841771460988777 60.515278225103195
  vertex 20.073807934087668 -10.727849486388985 71.18162656417735
 endloop
endfacet
facet normal -0.36119420742888964 -0.8572323478787999 0.3670033327778051
 outer loop
  vertex 3.390940871446322 -6.309675042320147 65.08262774211435
  vertex 20.073807934087668 -10.727849486388985 71.18162656417735
  vertex 11.203253839561016 -4.799554821299866 76.29856429013806
 endloop
endfacet
facet normal 0.377790183144177 -0.9256751948522081 -0.02000027887844805
 outer loop
  vertex 13.187240206937512 -12.841771460988777 60.515278225103195
  vertex 23.515927449140555 -8.500462620755496 54.687096406531026
  vertex 28.97494609495983 -6.487532298772459 64.63915693407003
 endloop
endfacet
facet normal 0.3877813157842785 -0.9192258313275763 -0.06818740461947458
 outer loop
  vertex 13.187240206937512 -12.841771460988777 60.515278225103195
  vertex 28.97494609495983 -6.487532298772459 64.63915693407003
  vertex 20.073807934087668 -10.727849486388985 71.18162656417735
 endloop
endfacet
facet normal 0.872771369896672 -0.31042909104947786 -0.37670136091986933
 outer loop
  vertex 23.515927449140555 -8.500462620755496 54.687096406531026
  vertex 26.599290437853377 3.445157375122369 51.98682206902572
  vertex 31.203929736911974 4.7283514125670845 61.59776847334594
 endloop
endfacet
facet normal 0.8636289536428022 -0.28448926254715207 -0.4161861241382467
 outer loop
  vertex 23.515927449140555 -8.500462620755496 54.687096406531026
  vertex 31.203929736911974 4.7283514125670845 61.59776847334594
  vertex 28.97494609495983 -6.487532298772459 64.63915693407003
 endloop
endfacet
facet normal 0.672137593035926 0.5591517547688132 -0.48536622375978034
 outer loop
  vertex 31.203929736911974 4.7283514125670845 61.59776847334594
  vertex 25.08228871457401 14.474012450657927 64.34768872594866
  vertex 31.09477138022632 15.327596462630858 73.65715115660052
 endloop
endfacet
facet normal 0.6449107228256048 0.5769310090361505 -0.5012392346944571
 outer loop
  vertex 31.203929736911974 4.7283514125670845 61.59776847334594
  vertex 31.09477138022632 15.327596462630858 73.65715115660052
  vertex 36.80549442704958 6.371964586229912 70.69673803584948
 endloop
endfacet
facet normal 0.034404632161801216 0.9951978822780938 -0.09163785459627548
 outer loop
  vertex 25.08228871457401 14.474012450657927 64.34768872594866
  vertex 15.219743576486284 15.410769278561665 70.81817165351792
  vertex 22.580359173684105 16.059309307769798 80.62487151249782
 endloop
endfacet
facet normal 0.007100791942149853 0.9953703210696818 -0.09585146158214215
 outer loop
  vertex 25.08228871457401 14.474012450657927 64.34768872594866
  vertex 22.580359173684105 16.059309307769798 80.62487151249782
  vertex 31.09477138022632 15.327596462630858 73.65715115660052
 endloop
endfacet
facet normal -0.5921675553317516 0.6872811186814175 0.42069258409964405
 outer loop
  vertex 15.219743576486284 15.410769278561665 70.81817165351792
  vertex 9.042991970885986 6.8332248985098625 76.13681163779617
  vertex 17.67378386130619 8.016108425035187 86.35306355995772
 endloop
endfacet
facet normal -0.6137278034585251 0.6708567724472311 0.4162804032424039
 outer loop
  vertex 15.219743576486284 15.410769278561665 70.81817165351792
  vertex 17.67378386130619 8.016108425035187 86.35306355995772
  vertex 22.580359173684105 16.059309307769798 80.62487151249782
 endloop
endfacet
facet normal -0.7366650383304606 -0.12756768168370672 0.664116787840381
 outer loop
  vertex 9.042991970885986 6.8332248985098625 76.13681163779617
  vertex 11.203253839561016 -4.799554821299866 76.29856429013806
  vertex 20.069796729209486 -2.7453118694761383 86.52828185341951
 endloop
endfacet
facet normal -0.7456567478426233 -0.15546947423478835 0.6479392386465886
 outer loop
  vertex 9.042991970885986 6.8332248985098625 76.13681163779617
  vertex 20.069796729209486 -2.7453118694761383 86.52828185341951
  vertex 17.67378386130619 8.016108425035187 86.35306355995772
 endloop
endfacet
facet normal -0.2953090687986857 -0.8379725118703937 0.4589058980170946
 outer loop
  vertex 11.203253839561016 -4.799554821299866 76.29856429013806
  vertex 20.073807934087668 -10.727849486388985 71.18162656417735
  vertex 27.96415121810741 -8.121382601028373 81.01858344410464
 endloop
endfacet
facet normal -0.2893408759024289 -0.8585940893902029 0.4231997722071973
 outer loop
  vertex 11.203253839561016 -4.799554821299866 76.29856429013806
  vertex 27.96415121810741 -8.121382601028373 81.01858344410464
  vertex 20.069796729209486 -2.7453118694761383 86.52828185341951
 endloop
endfacet
facet normal 0.404517325558815 -0.9135765641770933 -0.04175637327548187
 outer loop
  vertex 20.073807934087668 -10.727849486388985 71.18162656417735
  vertex 28.97494609495983 -6.487532298772459 64.63915693407003
  vertex 35.41223738237525 -4.063812856905115 73.97288361159264
 endloop
endfacet
facet normal 0.4104530819094004 -0.9075517740958046 -0.08875835108108213
 outer loop
  vertex 20.073807934087668 -10.727849486388985 71.18162656417735
  vertex 35.41223738237525 -4.063812856905115 73.97288361159264
  vertex 27.96415121810741 -8.121382601028373 81.01858344410464
 endloop
endfacet
facet normal 0.8371354100130927 -0.2918231626572489 -0.46264840542136565
 outer loop
  vertex 28.97494609495983 -6.487532298772459 64.63915693407003
  vertex 31.203929736911974 4.7283514125670845 61.59776847334594
  vertex 36.80549442704958 6.371964586229912 70.69673803584948
 endloop
endfacet
facet normal 0.8243537513087427 -0.26679289971986164 -0.49926189656559183
 outer loop
  vertex 28.97494609495983 -6.487532298772459 64.63915693407003
  vertex 36.80549442704958 6.371964586229912 70.69673803584948
  vertex 35.41223738237525 -4.063812856905115 73.97288361159264
 endloop
endfacet
facet normal 0.5950061589957112 0.5675386825854716 -0.5690935903050724
 outer loop
  vertex 36.80549442704958 6.371964586229912 70.69673803584948
  vertex 31.09477138022632 15.327596462630858 73.65715115660052
  vertex 38.08753718778126 16.618015029299638 82.25521175784154
 endloop
endfacet
facet normal 0.567099164624957 0.584117098721048 -0.5806941987512716
 outer loop
  vertex 36.80549442704958 6.371964586229912 70.69673803584948
  vertex 38.08753718778126 16.618015029299638 82.25521175784154
  vertex 43.34771863813723 8.434389424801886 79.16037949895114
 endloop
endfacet
facet normal -0.011457480588691286 0.9929151957663698 -0.11827146805037742
 outer loop
  vertex 31.09477138022632 15.327596462630858 73.65715115660052
  vertex 22.580359173684105 16.059309307769798 80.62487151249782
  vertex 30.930483527662126 17.21408896356271 89.51058923988866
 endloop
endfacet
facet normal -0.03744981459539613 0.992252127436275 -0.11846192208873181
 outer loop
  vertex 31.09477138022632 15.327596462630858 73.65715115660052
  vertex 30.930483527662126 17.21408896356271 89.51058923988866
  vertex 38.08753718778126 16.618015029299638 82.25521175784154
 endloop
endfacet
facet normal -0.5674498159975268 0.6784526392940837 0.4665862434312277
 outer loop
  vertex 22.580359173684105 16.059309307769798 80.62487151249782
  vertex 17.67378386130619 8.016108425035187 86.35306355995772
  vertex 27.265965041138088 9.773755397398626 95.463064718382
 endloop
endfacet
facet normal -0.5872534706257441 0.6619151235835676 0.4658344452800466
 outer loop
  vertex 22.580359173684105 16.059309307769798 80.62487151249782
  vertex 27.265965041138088 9.773755397398626 95.463064718382
  vertex 30.930483527662126 17.21408896356271 89.51058923988866
 endloop
endfacet
facet normal -0.655382163080348 -0.1338165184355694 0.743348747029217
 outer loop
  vertex 17.67378386130619 8.016108425035187 86.35306355995772
  vertex 20.069796729209486 -2.7453118694761383 86.52828185341951
  vertex 29.853438891116152 -0.10026273872549574 95.63030274964446
 endloop
endfacet
facet normal -0.6638669443294366 -0.16159825000987746 0.7301826386736691
 outer loop
  vertex 17.67378386130619 8.016108425035187 86.35306355995772
  vertex 29.853438891116152 -0.10026273872549574 95.63030274964446
  vertex 27.265965041138088 9.773755397398626 95.463064718382
 endloop
endfacet
facet normal -0.213754651093845 -0.8344488988164829 0.5079409260925012
 outer loop
  vertex 20.069796729209486 -2.7453118694761383 86.52828185341951
  vertex 27.96415121810741 -8.121382601028373 81.01858344410464
  vertex 36.74448449371514 -4.9726283950445564 89.88636968510127
 endloop
endfacet
facet normal -0.2096797198973053 -0.8552418335487345 0.4739154156724449
 outer loop
  vertex 20.069796729209486 -2.7453118694761383 86.52828185341951
  vertex 36.74448449371514 -4.9726283950445564 89.88636968510127
  vertex 29.853438891116152 -0.10026273872549574 95.63030274964446
 endloop
endfacet
facet normal 0.4298345276828483 -0.9006169211728893 -0.06427627951840653
 outer loop
  vertex 27.96415121810741 -8.121382601028373 81.01858344410464
  vertex 35.41223738237525 -4.063812856905115 73.97288361159264
  vertex 42.75000395846496 -1.1743508542037722 82.55656427723507
 endloop
endfacet
facet normal 0.4320105149321656 -0.8951470243765831 -0.10990322896891647
 outer loop
  vertex 27.96415121810741 -8.121382601028373 81.01858344410464
  vertex 42.75000395846496 -1.1743508542037722 82.55656427723507
  vertex 36.74448449371514 -4.9726283950445564 89.88636968510127
 endloop
endfacet
facet normal 0.7917539868665777 -0.27667079370995956 -0.5445905766617525
 outer loop
  vertex 35.41223738237525 -4.063812856905115 73.97288361159264
  vertex 36.80549442704958 6.371964586229912 70.69673803584948
  vertex 43.34771863813723 8.434389424801886 79.16037949895114
 endloop
endfacet
facet normal 0.7758213139504683 -0.25261489340611915 -0.5781755827165169
 outer loop
  vertex 35.41223738237525 -4.063812856905115 73.97288361159264
  vertex 43.34771863813723 8.434389424801886 79.16037949895114
  vertex 42.75000395846496 -1.1743508542037722 82.55656427723507
 endloop
endfacet
facet normal 0.5074697353365996 0.5704211484970974 -0.6458282906970348
 outer loop
  vertex 43.34771863813723 8.434389424801886 79.16037949895114
  vertex 38.08753718778126 16.618015029299638 82.25521175784154
  vertex 45.977746305052335 18.39216288435096 90.022065365571
 endloop
endfacet
facet normal 0.47950657884071285 0.5859260062441505 -0.6532718852478309
 outer loop
  vertex 43.34771863813723 8.434389424801886 79.16037949895114
  vertex 45.977746305052335 18.39216288435096 90.022065365571
  vertex 50.755131250967054 10.963839006950288 86.86616553594551
 endloop
endfacet
facet normal -0.06150136124221493 0.9879777476326054 -0.14183635904858274
 outer loop
  vertex 38.08753718778126 16.618015029299638 82.25521175784154
  vertex 30.930483527662126 17.21408896356271 89.51058923988866
  vertex 40.15430474724064 18.914488686198062 97.35540092745006
 endloop
endfacet
facet normal -0.08569352968054211 0.9866723663693844 -0.13832664390467098
 outer loop
  vertex 38.08753718778126 16.618015029299638 82.25521175784154
  vertex 40.15430474724064 18.914488686198062 97.35540092745006
  vertex 45.977746305052335 18.39216288435096 90.022065365571
 endloop
endfacet
facet normal -0.5380707198443624 0.6720387813953539 0.5087669178973978
 outer loop
  vertex 30.930483527662126 17.21408896356271 89.51058923988866
  vertex 27.265965041138088 9.773755397398626 95.463064718382
  vertex 37.66997684712349 12.1374944301961 103.34402097070375
 endloop
endfacet
facet normal -0.5557164325972851 0.6555457370225997 0.5113110924015275
 outer loop
  vertex 30.930483527662126 17.21408896356271 89.51058923988866
  vertex 37.66997684712349 12.1374944301961 103.34402097070375
  vertex 40.15430474724064 18.914488686198062 97.35540092745006
 endloop
endfacet
facet normal -0.5646775539672394 -0.13418056231195716 0.8143309135377477
 outer loop
  vertex 27.265965041138088 9.773755397398626 95.463064718382
  vertex 29.853438891116152 -0.10026273872549574 95.63030274964446
  vertex 40.39551218454287 3.164395016604119 103.47837245717562
 endloop
endfacet
facet normal -0.5722439988392393 -0.16177876637049995 0.8039679325346977
 outer loop
  vertex 27.265965041138088 9.773755397398626 95.463064718382
  vertex 40.39551218454287 3.164395016604119 103.47837245717562
  vertex 37.66997684712349 12.1374944301961 103.34402097070375
 endloop
endfacet
facet normal -0.12555232606844535 -0.825774721134254 0.5498479092935133
 outer loop
  vertex 29.853438891116152 -0.10026273872549574 95.63030274964446
  vertex 36.74448449371514 -4.9726283950445564 89.88636968510127
  vertex 46.27852705963318 -1.2478826782722834 97.65728597728152
 endloop
endfacet
facet normal -0.12302966401959711 -0.8467862901512887 0.5175100777598854
 outer loop
  vertex 29.853438891116152 -0.10026273872549574 95.63030274964446
  vertex 46.27852705963318 -1.2478826782722834 97.65728597728152
  vertex 40.39551218454287 3.164395016604119 103.47837245717562
 endloop
endfacet
facet normal 0.4535394708021342 -0.8868828601200083 -0.0879814801527797
 outer loop
  vertex 36.74448449371514 -4.9726283950445564 89.88636968510127
  vertex 42.75000395846496 -1.1743508542037722 82.55656427723507
  vertex 50.88899127981788 2.2231964438712994 90.26415837890617
 endloop
endfacet
facet normal 0.45225943620040904 -0.8820511147244937 -0.13208797591365395
 outer loop
  vertex 36.74448449371514 -4.9726283950445564 89.88636968510127
  vertex 50.88899127981788 2.2231964438712994 90.26415837890617
  vertex 46.27852705963318 -1.2478826782722834 97.65728597728152
 endloop
endfacet
facet normal 0.7371174204144677 -0.26549418929480784 -0.621426378561623
 outer loop
  vertex 42.75000395846496 -1.1743508542037722 82.55656427723507
  vertex 43.34771863813723 8.434389424801886 79.16037949895114
  vertex 50.755131250967054 10.963839006950288 86.86616553594551
 endloop
endfacet
facet normal 0.718527083364538 -0.24242049534221505 -0.6518827608624771
 outer loop
  vertex 42.75000395846496 -1.1743508542037722 82.55656427723507
  vertex 50.755131250967054 10.963839006950288 86.86616553594551
  vertex 50.88899127981788 2.2231964438712994 90.26415837890617
 endloop
endfacet
facet normal 0.41058432829090835 0.5673292981116006 -0.7138332976725744
 outer loop
  vertex 50.755131250967054 10.963839006950288 86.86616553594551
  vertex 45.977746305052335 18.39216288435096 90.022065365571
  vertex 54.66621870133313 20.684173539728278 96.84113000566475
 endloop
endfacet
facet normal 0.3831658634999112 0.5819325961677568 -0.717313302933817
 outer loop
  vertex 50.755131250967054 10.963839006950288 86.86616553594551
  vertex 54.66621870133313 20.684173539728278 96.84113000566475
  vertex 58.934634333802734 13.99609041880435 93.69536036341196
 endloop
endfacet
facet normal -0.11503500793270373 0.9802002368181951 -0.16116588563178302
 outer loop
  vertex 45.977746305052335 18.39216288435096 90.022065365571
  vertex 40.15430474724064 18.914488686198062 97.35540092745006
  vertex 50.120332085427236 21.184396979668186 104.04740406869344
 endloop
endfacet
facet normal -0.1369904019031079 0.9784751075467377 -0.15433759651434467
 outer loop
  vertex 45.977746305052335 18.39216288435096 90.022065365571
  vertex 50.120332085427236 21.184396979668186 104.04740406869344
  vertex 54.66621870133313 20.684173539728278 96.84113000566475
 endloop
endfacet
facet normal -0.5042761181921795 0.6682144865439269 0.5469871996618046
 outer loop
  vertex 40.15430474724064 18.914488686198062 97.35540092745006
  vertex 37.66997684712349 12.1374944301961 103.34402097070375
  vertex 48.72011982704997 15.12008228565071 109.88771120183563
 endloop
endfacet
facet normal -0.5194274300315614 0.651943848224927 0.5524168387119281
 outer loop
  vertex 40.15430474724064 18.914488686198062 97.35540092745006
  vertex 48.72011982704997 15.12008228565071 109.88771120183563
  vertex 50.120332085427236 21.184396979668186 104.04740406869344
 endloop
endfacet
facet normal -0.46560867370528963 -0.12831569564367518 0.8756389925202513
 outer loop
  vertex 37.66997684712349 12.1374944301961 103.34402097070375
  vertex 40.39551218454287 3.164395016604119 103.47837245717562
  vertex 51.519970315884244 7.0577821117468815 109.96418101328088
 endloop
endfacet
facet normal -0.47189013550615044 -0.15564547745786728 0.8678099938113755
 outer loop
  vertex 37.66997684712349 12.1374944301961 103.34402097070375
  vertex 51.519970315884244 7.0577821117468815 109.96418101328088
  vertex 48.72011982704997 15.12008228565071 109.88771120183563
 endloop
endfacet
facet normal -0.03183054367377751 -0.8117567129141191 0.5831276494287473
 outer loop
  vertex 40.39551218454287 3.164395016604119 103.47837245717562
  vertex 46.27852705963318 -1.2478826782722834 97.65728597728152
  vertex 56.41153902729623 3.0685729298584903 104.21923017531104
 endloop
endfacet
facet normal -0.03053740282502882 -0.8330035939232321 0.5524241844268596
 outer loop
  vertex 40.39551218454287 3.164395016604119 103.47837245717562
  vertex 56.41153902729623 3.0685729298584903 104.21923017531104
  vertex 51.519970315884244 7.0577821117468815 109.96418101328088
 endloop
endfacet
facet normal 0.4752281383971365 -0.8725375854364092 -0.11329774259177944
 outer loop
  vertex 46.27852705963318 -1.2478826782722834 97.65728597728152
  vertex 50.88899127981788 2.2231964438712994 90.26415837890617
  vertex 59.711374951775234 6.156410618985057 96.97892384455783
 endloop
endfacet
facet normal 0.47079233212716226 -0.8683821557515699 -0.15577872634773976
 outer loop
  vertex 46.27852705963318 -1.2478826782722834 97.65728597728152
  vertex 59.711374951775234 6.156410618985057 96.97892384455783
  vertex 56.41153902729623 3.0685729298584903 104.21923017531104
 endloop
endfacet
facet normal 0.673795163729709 -0.25875284894849593 -0.6921322420574637
 outer loop
  vertex 50.88899127981788 2.2231964438712994 90.26415837890617
  vertex 50.755131250967054 10.963839006950288 86.86616553594551
  vertex 58.934634333802734 13.99609041880435 93.69536036341196
 endloop
endfacet
facet normal 0.6530377208737221 -0.23661629198794204 -0.7194125836277342
 outer loop
  vertex 50.88899127981788 2.2231964438712994 90.26415837890617
  vertex 58.934634333802734 13.99609041880435 93.69536036341196
  vertex 59.711374951775234 6.156410618985057 96.97892384455783
 endloop
endfacet
facet normal 0.30571141049406364 0.5579823105259408 -0.7714896464852025
 outer loop
  vertex 58.934634333802734 13.99609041880435 93.69536036341196
  vertex 54.66621870133313 20.684173539728278 96.84113000566475
  vertex 64.0386657838713 23.513256766820376 102.60121043364232
 endloop
endfacet
facet normal 0.27940468931414375 0.5718932912419435 -0.7712788620348185
 outer loop
  vertex 58.934634333802734 13.99609041880435 93.69536036341196
  vertex 64.0386657838713 23.513256766820376 102.60121043364232
  vertex 67.77751027693492 17.55248104382579 99.53581206869481
 endloop
endfacet
facet normal -0.17104103933716713 0.9695619285579619 -0.1751988286302942
 outer loop
  vertex 54.66621870133313 20.684173539728278 96.84113000566475
  vertex 50.120332085427236 21.184396979668186 104.04740406869344
  vertex 60.683126669349534 24.030262044880253 109.48448983319814
 endloop
endfacet
facet normal -0.1903825423753932 0.9676606692435081 -0.1654911380040861
 outer loop
  vertex 54.66621870133313 20.684173539728278 96.84113000566475
  vertex 60.683126669349534 24.030262044880253 109.48448983319814
  vertex 64.0386657838713 23.513256766820376 102.60121043364232
 endloop
endfacet
facet normal -0.4661961568579768 0.6671687820993957 0.5809879168475552
 outer loop
  vertex 50.120332085427236 21.184396979668186 104.04740406869344
  vertex 48.72011982704997 15.12008228565071 109.88771120183563
  vertex 60.23768232712836 18.71418135864061 115.00240048618535
 endloop
endfacet
facet normal -0.4785850704983584 0.6513119573974879 0.5888540264336605
 outer loop
  vertex 50.120332085427236 21.184396979668186 104.04740406869344
  vertex 60.23768232712836 18.71418135864061 115.00240048618535
  vertex 60.683126669349534 24.030262044880253 109.48448983319814
 endloop
endfacet
facet normal -0.35939391677982163 -0.116026740219592 0.9259448191634715
 outer loop
  vertex 48.72011982704997 15.12008228565071 109.88771120183563
  vertex 51.519970315884244 7.0577821117468815 109.96418101328088
  vertex 63.037761432308976 11.568131893123544 114.9998431260399
 endloop
endfacet
facet normal -0.3640767660690767 -0.1429877247602319 0.9203274520389877
 outer loop
  vertex 48.72011982704997 15.12008228565071 109.88771120183563
  vertex 63.037761432308976 11.568131893123544 114.9998431260399
  vertex 60.23768232712836 18.71418135864061 115.00240048618535
 endloop
endfacet
facet normal 0.06598473927009847 -0.7924042827363083 0.606416908475196
 outer loop
  vertex 51.519970315884244 7.0577821117468815 109.96418101328088
  vertex 56.41153902729623 3.0685729298584903 104.21923017531104
  vertex 66.97484730748583 7.973234648707297 109.47874349711198
 endloop
endfacet
facet normal 0.06634012305302095 -0.8138765790719811 0.5772381675802454
 outer loop
  vertex 51.519970315884244 7.0577821117468815 109.96418101328088
  vertex 66.97484730748583 7.973234648707297 109.47874349711198
  vertex 63.037761432308976 11.568131893123544 114.9998431260399
 endloop
endfacet
facet normal 0.4942969079234558 -0.8578514914726754 -0.14057519480839026
 outer loop
  vertex 56.41153902729623 3.0685729298584903 104.21923017531104
  vertex 59.711374951775234 6.156410618985057 96.97892384455783
  vertex 69.08423398673489 10.636520572977176 102.59660222989221
 endloop
endfacet
facet normal 0.4869939363252957 -0.8543677758377911 -0.18136319800990397
 outer loop
  vertex 56.41153902729623 3.0685729298584903 104.21923017531104
  vertex 69.08423398673489 10.636520572977176 102.59660222989221
  vertex 66.97484730748583 7.973234648707297 109.47874349711198
 endloop
endfacet
facet normal 0.6024261812417763 -0.25683880351767274 -0.7557225186284057
 outer loop
  vertex 59.711374951775234 6.156410618985057 96.97892384455783
  vertex 58.934634333802734 13.99609041880435 93.69536036341196
  vertex 67.77751027693492 17.55248104382579 99.53581206869481
 endloop
endfacet
facet normal 0.5799841481789987 -0.23554515167223883 -0.7798313082871084
 outer loop
  vertex 59.711374951775234 6.156410618985057 96.97892384455783
  vertex 67.77751027693492 17.55248104382579 99.53581206869481
  vertex 69.08423398673489 10.636520572977176 102.59660222989221
 endloop
endfacet
facet normal 0.19449146452939486 0.5423238528366973 -0.8173480952871741
 outer loop
  vertex 67.77751027693492 17.55248104382579 99.53581206869481
  vertex 64.0386657838713 23.513256766820376 102.60121043364232
  vertex 73.96727333821495 26.881653659471375 107.1987514646363
 endloop
endfacet
facet normal 0.16981825604489909 0.5557798172771344 -0.8138000704234821
 outer loop
  vertex 67.77751027693492 17.55248104382579 99.53581206869481
  vertex 73.96727333821495 26.881653659471375 107.1987514646363
  vertex 77.16193196484505 21.638294922089063 104.28447105284727
 endloop
endfacet
facet normal -0.2282061115329501 0.9562460203338982 -0.18307244264113767
 outer loop
  vertex 64.0386657838713 23.513256766820376 102.60121043364232
  vertex 60.683126669349534 24.030262044880253 109.48448983319814
  vertex 71.68522214401598 27.439260634829264 113.57629030937963
 endloop
endfacet
facet normal -0.24462480708996096 0.9544234484867539 -0.17098124088581204
 outer loop
  vertex 64.0386657838713 23.513256766820376 102.60121043364232
  vertex 71.68522214401598 27.439260634829264 113.57629030937963
  vertex 73.96727333821495 26.881653659471375 107.1987514646363
 endloop
endfacet
facet normal -0.4238527315014085 0.6691214434164695 0.6104304677512872
 outer loop
  vertex 60.683126669349534 24.030262044880253 109.48448983319814
  vertex 60.23768232712836 18.71418135864061 115.00240048618535
  vertex 72.03420947684087 22.89122642260883 118.61467075890138
 endloop
endfacet
facet normal -0.43328202825694856 0.653876657289998 0.6202515627072644
 outer loop
  vertex 60.683126669349534 24.030262044880253 109.48448983319814
  vertex 72.03420947684087 22.89122642260883 118.61467075890138
  vertex 71.68522214401598 27.439260634829264 113.57629030937963
 endloop
endfacet
facet normal -0.2473886061309328 -0.09728074478008578 0.9640204013669139
 outer loop
  vertex 60.23768232712836 18.71418135864061 115.00240048618535
  vertex 63.037761432308976 11.568131893123544 114.9998431260399
  vertex 74.75144075702822 16.662313547602825 118.51988957048052
 endloop
endfacet
facet normal -0.2502180043742264 -0.12376373142277484 0.96024657722446
 outer loop
  vertex 60.23768232712836 18.71418135864061 115.00240048618535
  vertex 74.75144075702822 16.662313547602825 118.51988957048052
  vertex 72.03420947684087 22.89122642260883 118.61467075890138
 endloop
endfacet
facet normal 0.16621142452658905 -0.7679582692790975 0.6185578865415066
 outer loop
  vertex 63.037761432308976 11.568131893123544 114.9998431260399
  vertex 66.97484730748583 7.973234648707297 109.47874349711198
  vertex 77.79078540918009 13.443020451357635 113.36331891218185
 endloop
endfacet
facet normal 0.16587939477566405 -0.7896255045924568 0.590741558455106
 outer loop
  vertex 63.037761432308976 11.568131893123544 114.9998431260399
  vertex 77.79078540918009 13.443020451357635 113.36331891218185
  vertex 74.75144075702822 16.662313547602825 118.51988957048052
 endloop
endfacet
facet normal 0.5099739052148102 -0.8432225755156818 -0.17000677674921186
 outer loop
  vertex 66.97484730748583 7.973234648707297 109.47874349711198
  vertex 69.08423398673489 10.636520572977176 102.59660222989221
  vertex 78.86355491889385 15.657540496957438 107.02796166457634
 endloop
endfacet
facet normal 0.500074477285263 -0.8403657850282589 -0.20907143401648484
 outer loop
  vertex 66.97484730748583 7.973234648707297 109.47874349711198
  vertex 78.86355491889385 15.657540496957438 107.02796166457634
  vertex 77.79078540918009 13.443020451357635 113.36331891218185
 endloop
endfacet
facet normal 0.5237200573905931 -0.2600685581841772 -0.8112223163417025
 outer loop
  vertex 69.08423398673489 10.636520572977176 102.59660222989221
  vertex 67.77751027693492 17.55248104382579 99.53581206869481
  vertex 77.16193196484505 21.638294922089063 104.28447105284727
 endloop
endfacet
facet normal 0.5000635975396078 -0.23947848423819157 -0.8322177924093688
 outer loop
  vertex 69.08423398673489 10.636520572977176 102.59660222989221
  vertex 77.16193196484505 21.638294922089063 104.28447105284727
  vertex 78.86355491889385 15.657540496957438 107.02796166457634
 endloop
endfacet
facet normal 0.07882553749697119 0.520559571616827 -0.8501789617700612
 outer loop
  vertex 77.16193196484505 21.638294922089063 104.28447105284727
  vertex 73.96727333821495 26.881653659471375 107.1987514646363
  vertex 84.31269098219545 30.772660521667724 110.54038199127929
 endloop
endfacet
facet normal 0.0562505325738005 0.5338145148422555 -0.8437285945900442
 outer loop
  vertex 77.16193196484505 21.638294922089063 104.28447105284727
  vertex 84.31269098219545 30.772660521667724 110.54038199127929
  vertex 86.95586402262242 26.241523235020377 107.84981659418072
 endloop
endfacet
facet normal -0.2849651092113668 0.9406701059363481 -0.18421356717096937
 outer loop
  vertex 73.96727333821495 26.881653659471375 107.1987514646363
  vertex 71.68522214401598 27.439260634829264 113.57629030937963
  vertex 82.95932835591371 31.377524747470137 116.24645418310075
 endloop
endfacet
facet normal -0.2982296643012017 0.93918061511913 -0.1702904563246129
 outer loop
  vertex 73.96727333821495 26.881653659471375 107.1987514646363
  vertex 82.95932835591371 31.377524747470137 116.24645418310075
  vertex 84.31269098219545 30.772660521667724 110.54038199127929
 endloop
endfacet
facet normal -0.3771897630608125 0.6743295949489405 0.6348287013188093
 outer loop
  vertex 71.68522214401598 27.439260634829264 113.57629030937963
  vertex 72.03420947684087 22.89122642260883 118.61467075890138
  vertex 83.91488580493385 27.60064081341675 120.67124442654298
 endloop
endfacet
facet normal -0.38353557236221664 0.6598948552167089 0.6460953836635159
 outer loop
  vertex 71.68522214401598 27.439260634829264 113.57629030937963
  vertex 83.91488580493385 27.60064081341675 120.67124442654298
  vertex 82.95932835591371 31.377524747470137 116.24645418310075
 endloop
endfacet
facet normal -0.13107199703304998 -0.07222235420169465 0.9887386222593577
 outer loop
  vertex 72.03420947684087 22.89122642260883 118.61467075890138
  vertex 74.75144075702822 16.662313547602825 118.51988957048052
  vertex 86.45980908032399 22.28607935624158 120.48279541902203
 endloop
endfacet
facet normal -0.13185555556581813 -0.09811695456350071 0.9864011231206163
 outer loop
  vertex 72.03420947684087 22.89122642260883 118.61467075890138
  vertex 86.45980908032399 22.28607935624158 120.48279541902203
  vertex 83.91488580493385 27.60064081341675 120.67124442654298
 endloop
endfacet
facet normal 0.26696437303291554 -0.7389107538556365 0.6186605865639392
 outer loop
  vertex 74.75144075702822 16.662313547602825 118.51988957048052
  vertex 77.79078540918009 13.443020451357635 113.36331891218185
  vertex 88.67771904874121 19.435813550494547 115.82301310686036
 endloop
endfacet
facet normal 0.266145678216819 -0.7607289978183583 0.5919948224814012
 outer loop
  vertex 74.75144075702822 16.662313547602825 118.51988957048052
  vertex 88.67771904874121 19.435813550494547 115.82301310686036
  vertex 86.45980908032399 22.28607935624158 120.48279541902203
 endloop
endfacet
facet normal 0.5213794064087072 -0.8291800432084416 -0.20155388986013373
 outer loop
  vertex 77.79078540918009 13.443020451357635 113.36331891218185
  vertex 78.86355491889385 15.657540496957438 107.02796166457634
  vertex 88.898484266849 21.196151682729838 110.2008086133523
 endloop
endfacet
facet normal 0.5091312526435079 -0.8268676762524966 -0.23890419324584708
 outer loop
  vertex 77.79078540918009 13.443020451357635 113.36331891218185
  vertex 88.898484266849 21.196151682729838 110.2008086133523
  vertex 88.67771904874121 19.435813550494547 115.82301310686036
 endloop
endfacet
facet normal 0.4384859973100568 -0.2686612729531025 -0.8576427872828077
 outer loop
  vertex 78.86355491889385 15.657540496957438 107.02796166457634
  vertex 77.16193196484505 21.638294922089063 104.28447105284727
  vertex 86.95586402262242 26.241523235020377 107.84981659418072
 endloop
endfacet
facet normal 0.4140680697569528 -0.2485941575991612 -0.8756418094262713
 outer loop
  vertex 78.86355491889385 15.657540496957438 107.02796166457634
  vertex 86.95586402262242 26.241523235020377 107.84981659418072
  vertex 88.898484266849 21.196151682729838 110.2008086133523
 endloop
endfacet
facet normal -0.039152648913323394 0.4931917159062368 -0.8690391253818965
 outer loop
  vertex 86.95586402262242 26.241523235020377 107.84981659418072
  vertex 84.31269098219545 30.772660521667724 110.54038199127929
  vertex 94.92667500576074 35.148756340397725 112.5456871206628
 endloop
endfacet
facet normal -0.059233493608689666 0.506502327728547 -0.8602015956974695
 outer loop
  vertex 86.95586402262242 26.241523235020377 107.84981659418072
  vertex 94.92667500576074 35.148756340397725 112.5456871206628
  vertex 97.02041720910267 31.332099302337223 110.15419499878283
 endloop
endfacet
facet normal -0.3395625784437774 0.9235038095760424 -0.17843197308540412
 outer loop
  vertex 84.31269098219545 30.772660521667724 110.54038199127929
  vertex 82.95932835591371 31.377524747470137 116.24645418310075
  vertex 94.33105792899846 35.788441013966654 117.43505372028652
 endloop
endfacet
facet normal -0.34952938239583203 0.9225875832354844 -0.16328307353089666
 outer loop
  vertex 84.31269098219545 30.772660521667724 110.54038199127929
  vertex 94.33105792899846 35.788441013966654 117.43505372028652
  vertex 94.92667500576074 35.148756340397725 112.5456871206628
 endloop
endfacet
facet normal -0.32610975082820154 0.6830850585625983 0.6534885103682392
 outer loop
  vertex 82.95932835591371 31.377524747470137 116.24645418310075
  vertex 83.91488580493385 27.60064081341675 120.67124442654298
  vertex 95.68207778599199 32.769457716657264 121.14050202323476
 endloop
endfacet
facet normal -0.32932451855000117 0.6696519585760515 0.6656662946680326
 outer loop
  vertex 82.95932835591371 31.377524747470137 116.24645418310075
  vertex 95.68207778599199 32.769457716657264 121.14050202323476
  vertex 94.33105792899846 35.788441013966654 117.43505372028652
 endloop
endfacet
facet normal -0.012019248182465579 -0.04118187027725956 0.999079371838692
 outer loop
  vertex 83.91488580493385 27.60064081341675 120.67124442654298
  vertex 86.45980908032399 22.28607935624158 120.48279541902203
  vertex 97.96238906864251 28.36516244737983 120.871753880017
 endloop
endfacet
facet normal -0.010628473971203502 -0.06638436258955921 0.9977375165566449
 outer loop
  vertex 83.91488580493385 27.60064081341675 120.67124442654298
  vertex 97.96238906864251 28.36516244737983 120.871753880017
  vertex 95.68207778599199 32.769457716657264 121.14050202323476
 endloop
endfacet
facet normal 0.36623951961641765 -0.7060012036926595 0.6061607993392938
 outer loop
  vertex 86.45980908032399 22.28607935624158 120.48279541902203
  vertex 88.67771904874121 19.435813550494547 115.82301310686036
  vertex 99.45487087124098 25.89207937515092 116.83118212393927
 endloop
endfacet
facet normal 0.36507929042510023 -0.7279221598483315 0.5803847352441701
 outer loop
  vertex 86.45980908032399 22.28607935624158 120.48279541902203
  vertex 99.45487087124098 25.89207937515092 116.83118212393927
  vertex 97.96238906864251 28.36516244737983 120.871753880017
 endloop
endfacet
facet normal 0.527617456345039 -0.8163620545775354 -0.23488894313256994
 outer loop
  vertex 88.67771904874121 19.435813550494547 115.82301310686036
  vertex 88.898484266849 21.196151682729838 110.2008086133523
  vertex 99.03565395535026 27.212490495059978 112.06141969997122
 endloop
endfacet
facet normal 0.5132399074882965 -0.8144760788321969 -0.2705799592939834
 outer loop
  vertex 88.67771904874121 19.435813550494547 115.82301310686036
  vertex 99.03565395535026 27.212490495059978 112.06141969997122
  vertex 99.45487087124098 25.89207937515092 116.83118212393927
 endloop
endfacet
facet normal 0.347674697370956 -0.2827029453358969 -0.893980620319268
 outer loop
  vertex 88.898484266849 21.196151682729838 110.2008086133523
  vertex 86.95586402262242 26.241523235020377 107.84981659418072
  vertex 97.02041720910267 31.332099302337223 110.15419499878283
 endloop
endfacet
facet normal 0.32292480761590986 -0.26294069575823964 -0.9091654190192237
 outer loop
  vertex 88.898484266849 21.196151682729838 110.2008086133523
  vertex 97.02041720910267 31.332099302337223 110.15419499878283
  vertex 99.03565395535026 27.212490495059978 112.06141969997122
 endloop
endfacet
facet normal -0.15708324336880472 0.46106419560303197 -0.8733525417525652
 outer loop
  vertex 97.02041720910267 31.332099302337223 110.15419499878283
  vertex 94.92667500576074 35.148756340397725 112.5456871206628
  vertex 105.65575209127529 39.949622602149 113.15042494299249
 endloop
endfacet
facet normal -0.1743519879436625 0.47467218409827744 -0.8627211032213503
 outer loop
  vertex 97.02041720910267 31.332099302337223 110.15419499878283
  vertex 105.65575209127529 39.949622602149 113.15042494299249
  vertex 107.21381355131246 36.86163967832569 111.13652878893086
 endloop
endfacet
facet normal -0.3901038306108453 0.9056811707139181 -0.16601391013108466
 outer loop
  vertex 94.92667500576074 35.148756340397725 112.5456871206628
  vertex 94.33105792899846 35.788441013966654 117.43505372028652
  vertex 105.62239524688067 40.590718636598524 117.10097616604565
 endloop
endfacet
facet normal -0.39672748223297444 0.9055476520037898 -0.150302211532325
 outer loop
  vertex 94.92667500576074 35.148756340397725 112.5456871206628
  vertex 105.62239524688067 40.590718636598524 117.10097616604565
  vertex 105.65575209127529 39.949622602149 113.15042494299249
 endloop
endfacet
facet normal -0.27050157398882796 0.6957071908806343 0.665447520865878
 outer loop
  vertex 94.33105792899846 35.788441013966654 117.43505372028652
  vertex 95.68207778599199 32.769457716657264 121.14050202323476
  vertex 107.13886140231338 38.302169391757914 120.01333681057243
 endloop
endfacet
facet normal -0.27061937179377005 0.6834571896612165 0.677975977089408
 outer loop
  vertex 94.33105792899846 35.788441013966654 117.43505372028652
  vertex 107.13886140231338 38.302169391757914 120.01333681057243
  vertex 105.62239524688067 40.590718636598524 117.10097616604565
 endloop
endfacet
facet normal 0.10814341090955061 -0.0046700840428432235 0.9941243347750225
 outer loop
  vertex 95.68207778599199 32.769457716657264 121.14050202323476
  vertex 97.96238906864251 28.36516244737983 120.871753880017
  vertex 109.06322061226042 34.807299126889134 119.6944399099136
 endloop
endfacet
facet normal 0.1117742581858814 -0.02909090286817345 0.9933077240096899
 outer loop
  vertex 95.68207778599199 32.769457716657264 121.14050202323476
  vertex 109.06322061226042 34.807299126889134 119.6944399099136
  vertex 107.13886140231338 38.302169391757914 120.01333681057243
 endloop
endfacet
facet normal 0.4620277911910138 -0.67017936192001 0.580852772244087
 outer loop
  vertex 97.96238906864251 28.36516244737983 120.871753880017
  vertex 99.45487087124098 25.89207937515092 116.83118212393927
  vertex 109.94639114185755 32.73781643379972 116.38442133457654
 endloop
endfacet
facet normal 0.4606121262340684 -0.6921619023310218 0.5556513026418919
 outer loop
  vertex 97.96238906864251 28.36516244737983 120.871753880017
  vertex 109.94639114185755 32.73781643379972 116.38442133457654
  vertex 109.06322061226042 34.807299126889134 119.6944399099136
 endloop
endfacet
facet normal 0.5279062385306417 -0.8054528063460121 -0.2693710824675927
 outer loop
  vertex 99.45487087124098 25.89207937515092 116.83118212393927
  vertex 99.03565395535026 27.212490495059978 112.06141969997122
  vertex 109.12332756892245 33.65208399013971 112.57579258386413
 endloop
endfacet
facet normal 0.5115826935464792 -0.8038404690018722 -0.3035187771103775
 outer loop
  vertex 99.45487087124098 25.89207937515092 116.83118212393927
  vertex 109.12332756892245 33.65208399013971 112.57579258386413
  vertex 109.94639114185755 32.73781643379972 116.38442133457654
 endloop
endfacet
facet normal 0.25245487766585667 -0.3020804087620253 -0.9192464095033961
 outer loop
  vertex 99.03565395535026 27.212490495059978 112.06141969997122
  vertex 97.02041720910267 31.332099302337223 110.15419499878283
  vertex 107.21381355131246 36.86163967832569 111.13652878893086
 endloop
endfacet
facet normal 0.22777056198830378 -0.2823694814947941 -0.9318734071814121
 outer loop
  vertex 99.03565395535026 27.212490495059978 112.06141969997122
  vertex 107.21381355131246 36.86163967832569 111.13652878893086
  vertex 109.12332756892245 33.65208399013971 112.57579258386413
 endloop
endfacet
facet normal -0.27232015640657364 0.4254486229918569 -0.8630383546569828
 outer loop
  vertex 107.21381355131246 36.86163967832569 111.13652878893086
  vertex 105.65575209127529 39.949622602149 113.15042494299249
  vertex 116.34708951257952 45.08930658409738 112.31060687219556
 endloop
endfacet
facet normal -0.2865396494712024 0.4395559984178122 -0.8512846489487761
 outer loop
  vertex 107.21381355131246 36.86163967832569 111.13652878893086
  vertex 116.34708951257952 45.08930658409738 112.31060687219556
  vertex 117.39680993033424 42.763931791838026 110.75658030694855
 endloop
endfacet
facet normal -0.4345349057765025 0.8884375757208479 -0.14784481630773716
 outer loop
  vertex 105.65575209127529 39.949622602149 113.15042494299249
  vertex 105.62239524688067 40.590718636598524 117.10097616604565
  vertex 116.65648338149376 45.67507539935934 115.22358297480345
 endloop
endfacet
facet normal -0.43788207000277424 0.8892432856194232 -0.13230900101980397
 outer loop
  vertex 105.65575209127529 39.949622602149 113.15042494299249
  vertex 116.65648338149376 45.67507539935934 115.22358297480345
  vertex 116.34708951257952 45.08930658409738 112.31060687219556
 endloop
endfacet
facet normal -0.21018968802296595 0.7125639443976495 0.669382491699082
 outer loop
  vertex 105.62239524688067 40.590718636598524 117.10097616604565
  vertex 107.13886140231338 38.302169391757914 120.01333681057243
  vertex 118.09201164329977 44.08014237222541 117.30197819562488
 endloop
endfacet
facet normal -0.20734013336177967 0.7016735383600518 0.6816629039802624
 outer loop
  vertex 105.62239524688067 40.590718636598524 117.10097616604565
  vertex 118.09201164329977 44.08014237222541 117.30197819562488
  vertex 116.65648338149376 45.67507539935934 115.22358297480345
 endloop
endfacet
facet normal 0.22786461089223412 0.03668410488637595 0.9730015393367146
 outer loop
  vertex 107.13886140231338 38.302169391757914 120.01333681057243
  vertex 109.06322061226042 34.807299126889134 119.6944399099136
  vertex 119.57269223741763 41.50552460283206 116.98071854184518
 endloop
endfacet
facet normal 0.23374351431872215 0.013115613984721223 0.9722098282694622
 outer loop
  vertex 107.13886140231338 38.302169391757914 120.01333681057243
  vertex 119.57269223741763 41.50552460283206 116.98071854184518
  vertex 118.09201164329977 44.08014237222541 117.30197819562488
 endloop
endfacet
facet normal 0.5525122386307357 -0.632482488030807 0.5428592160934664
 outer loop
  vertex 109.06322061226042 34.807299126889134 119.6944399099136
  vertex 109.94639114185755 32.73781643379972 116.38442133457654
  vertex 119.98354247609683 39.889961784163944 114.50171908526312
 endloop
endfacet
facet normal 0.5508685626813229 -0.654510819937602 0.5178411080959306
 outer loop
  vertex 109.06322061226042 34.807299126889134 119.6944399099136
  vertex 119.98354247609683 39.889961784163944 114.50171908526312
  vertex 119.57269223741763 41.50552460283206 116.98071854184518
 endloop
endfacet
facet normal 0.5217921105085646 -0.7970330524757024 -0.3040909513160205
 outer loop
  vertex 109.94639114185755 32.73781643379972 116.38442133457654
  vertex 109.12332756892245 33.65208399013971 112.57579258386413
  vertex 119.0151837497944 40.450005670153836 111.7317169790583
 endloop
endfacet
facet normal 0.5036545888599128 -0.7955031538045343 -0.336907683805804
 outer loop
  vertex 109.94639114185755 32.73781643379972 116.38442133457654
  vertex 119.0151837497944 40.450005670153836 111.7317169790583
  vertex 119.98354247609683 39.889961784163944 114.50171908526312
 endloop
endfacet
facet normal 0.15436409489690273 -0.3263500980465609 -0.9325595636267209
 outer loop
  vertex 109.12332756892245 33.65208399013971 112.57579258386413
  vertex 107.21381355131246 36.86163967832569 111.13652878893086
  vertex 117.39680993033424 42.763931791838026 110.75658030694855
 endloop
endfacet
facet normal 0.13009868756616852 -0.3063961401582256 -0.9429717582142645
 outer loop
  vertex 109.12332756892245 33.65208399013971 112.57579258386413
  vertex 117.39680993033424 42.763931791838026 110.75658030694855
  vertex 119.0151837497944 40.450005670153836 111.7317169790583
 endloop
endfacet
facet normal -0.3814836364322009 0.38837331910961903 -0.8388303762610425
 outer loop
  vertex 117.39680993033424 42.763931791838026 110.75658030694855
  vertex 116.34708951257952 45.08930658409738 112.31060687219556
  vertex 126.86187383747192 50.448442035808625 110.0099356134564
 endloop
endfacet
facet normal -0.39247947052884824 0.4030930537329341 -0.8267259855875181
 outer loop
  vertex 117.39680993033424 42.763931791838026 110.75658030694855
  vertex 126.86187383747192 50.448442035808625 110.0099356134564
  vertex 127.44361344322068 48.957177626402604 109.006653762371
 endloop
endfacet
facet normal -0.4702111753896014 0.873553591223067 -0.1257202203307485
 outer loop
  vertex 116.34708951257952 45.08930658409738 112.31060687219556
  vertex 116.65648338149376 45.67507539935934 115.22358297480345
  vertex 127.26622895068242 50.893430941581705 111.8008423102261
 endloop
endfacet
facet normal -0.4704959474122644 0.8753583065049563 -0.11127173361375596
 outer loop
  vertex 116.34708951257952 45.08930658409738 112.31060687219556
  vertex 127.26622895068242 50.893430941581705 111.8008423102261
  vertex 126.86187383747192 50.448442035808625 110.0099356134564
 endloop
endfacet
facet normal -0.1444801481268389 0.7342937172999591 0.6632783906709566
 outer loop
  vertex 116.65648338149376 45.67507539935934 115.22358297480345
  vertex 118.09201164329977 44.08014237222541 117.30197819562488
  vertex 128.35219113526352 49.957058621555255 113.03078458217355
 endloop
endfacet
facet normal -0.13894380868706704 0.7249766335444449 0.6746135922452907
 outer loop
  vertex 116.65648338149376 45.67507539935934 115.22358297480345
  vertex 128.35219113526352 49.957058621555255 113.03078458217355
  vertex 127.26622895068242 50.893430941581705 111.8008423102261
 endloop
endfacet
facet normal 0.34615122149296357 0.08246153044650896 0.9345477129902726
 outer loop
  vertex 118.09201164329977 44.08014237222541 117.30197819562488
  vertex 119.57269223741763 41.50552460283206 116.98071854184518
  vertex 129.30200871663416 48.3444325312236 112.77359081227223
 endloop
endfacet
facet normal 0.35424173484482474 0.05980406834634323 0.9332396619857916
 outer loop
  vertex 118.09201164329977 44.08014237222541 117.30197819562488
  vertex 129.30200871663416 48.3444325312236 112.77359081227223
  vertex 128.35219113526352 49.957058621555255 113.03078458217355
 endloop
endfacet
facet normal 0.6366046340477007 -0.593578315650296 0.49234065757232603
 outer loop
  vertex 119.57269223741763 41.50552460283206 116.98071854184518
  vertex 119.98354247609683 39.889961784163944 114.50171908526312
  vertex 129.40044968327447 47.26989300818383 111.22293315505465
 endloop
endfacet
facet normal 0.6347109809584595 -0.6157083122167712 0.46695315066709325
 outer loop
  vertex 119.57269223741763 41.50552460283206 116.98071854184518
  vertex 129.40044968327447 47.26989300818383 111.22293315505465
  vertex 129.30200871663416 48.3444325312236 112.77359081227223
 endloop
endfacet
facet normal 0.5097241901223043 -0.7911022401918928 -0.33813975744879493
 outer loop
  vertex 119.98354247609683 39.889961784163944 114.50171908526312
  vertex 119.0151837497944 40.450005670153836 111.7317169790583
  vertex 128.57338597947452 47.54259022989659 109.54648845405733
 endloop
endfacet
facet normal 0.4898029461840499 -0.7894029470238777 -0.3700487280608347
 outer loop
  vertex 119.98354247609683 39.889961784163944 114.50171908526312
  vertex 128.57338597947452 47.54259022989659 109.54648845405733
  vertex 129.40044968327447 47.26989300818383 111.22293315505465
 endloop
endfacet
facet normal 0.055834035838198376 -0.35432611928191327 -0.9334535669419439
 outer loop
  vertex 119.0151837497944 40.450005670153836 111.7317169790583
  vertex 117.39680993033424 42.763931791838026 110.75658030694855
  vertex 127.44361344322068 48.957177626402604 109.006653762371
 endloop
endfacet
facet normal 0.032271118885131976 -0.33375348451481435 -0.9421078422665429
 outer loop
  vertex 119.0151837497944 40.450005670153836 111.7317169790583
  vertex 127.44361344322068 48.957177626402604 109.006653762371
  vertex 128.57338597947452 47.54259022989659 109.54648845405733
 endloop
endfacet
facet normal -0.4722725839540347 0.35774651796394147 -0.8055904886045108
 outer loop
  vertex 127.44361344322068 48.957177626402604 109.006653762371
  vertex 126.86187383747192 50.448442035808625 110.0099356134564
  vertex 137.18950628639945 55.78193539404283 106.32392016603691
 endloop
endfacet
facet normal -0.479661365630392 0.3727116310681023 -0.794362017211386
 outer loop
  vertex 127.44361344322068 48.957177626402604 109.006653762371
  vertex 137.18950628639945 55.78193539404283 106.32392016603691
  vertex 137.32453997528805 55.36299413147732 106.0458168326393
 endloop
endfacet
facet normal -0.4854395226179438 0.8678175863282609 -0.10602408565912941
 outer loop
  vertex 126.86187383747192 50.448442035808625 110.0099356134564
  vertex 127.26622895068242 50.893430941581705 111.8008423102261
  vertex 137.3567672474446 55.92633749418389 106.79536384989196
 endloop
endfacet
facet normal -0.4833526931756646 0.8702482827972006 -0.09506892388344097
 outer loop
  vertex 126.86187383747192 50.448442035808625 110.0099356134564
  vertex 137.3567672474446 55.92633749418389 106.79536384989196
  vertex 137.18950628639945 55.78193539404283 106.32392016603691
 endloop
endfacet
facet normal -0.06404642911983577 0.7659625176984718 0.6396870144047134
 outer loop
  vertex 127.26622895068242 50.893430941581705 111.8008423102261
  vertex 128.35219113526352 49.957058621555255 113.03078458217355
  vertex 137.7003719432547 55.68746270522826 107.105141174563
 endloop
endfacet
facet normal -0.05692681694971501 0.7590904860223212 0.6484913041378194
 outer loop
  vertex 127.26622895068242 50.893430941581705 111.8008423102261
  vertex 137.7003719432547 55.68746270522826 107.105141174563
  vertex 137.3567672474446 55.92633749418389 106.79536384989196
 endloop
endfacet
facet normal 0.4697386628164115 0.13759466888448746 0.8720167978600055
 outer loop
  vertex 128.35219113526352 49.957058621555255 113.03078458217355
  vertex 129.30200871663416 48.3444325312236 112.77359081227223
  vertex 137.9615790296263 55.245188615417206 107.01998349626692
 endloop
endfacet
facet normal 0.4800286940946507 0.11607955186882186 0.869538952827139
 outer loop
  vertex 128.35219113526352 49.957058621555255 113.03078458217355
  vertex 137.9615790296263 55.245188615417206 107.01998349626692
  vertex 137.7003719432547 55.68746270522826 107.105141174563
 endloop
endfacet
facet normal 0.720837518965779 -0.5474287385289976 0.42510592501611916
 outer loop
  vertex 129.30200871663416 48.3444325312236 112.77359081227223
  vertex 129.40044968327447 47.26989300818383 111.22293315505465
  vertex 137.94369424286805 54.93255663512575 106.60401628366073
 endloop
endfacet
facet normal 0.7187277676100629 -0.5703027182605055 0.3977250376968164
 outer loop
  vertex 129.30200871663416 48.3444325312236 112.77359081227223
  vertex 137.94369424286805 54.93255663512575 106.60401628366073
  vertex 137.9615790296263 55.245188615417206 107.01998349626692
 endloop
endfacet
facet normal 0.5005500353135153 -0.7807770744786765 -0.3739476194818704
 outer loop
  vertex 129.40044968327447 47.26989300818383 111.22293315505465
  vertex 128.57338597947452 47.54259022989659 109.54648845405733
  vertex 137.66018519219205 54.98498502204355 106.17047133202168
 endloop
endfacet
facet normal 0.47817938619064826 -0.7783567956383975 -0.4068232703593303
 outer loop
  vertex 129.40044968327447 47.26989300818383 111.22293315505465
  vertex 137.66018519219205 54.98498502204355 106.17047133202168
  vertex 137.94369424286805 54.93255663512575 106.60401628366073
 endloop
endfacet
facet normal -0.031844234162790065 -0.3784579933229852 -0.9250705335489423
 outer loop
  vertex 128.57338597947452 47.54259022989659 109.54648845405733
  vertex 127.44361344322068 48.957177626402604 109.006653762371
  vertex 137.32453997528805 55.36299413147732 106.0458168326393
 endloop
endfacet
facet normal -0.054782225186053315 -0.35624363897457983 -0.9327858154441532
 outer loop
  vertex 128.57338597947452 47.54259022989659 109.54648845405733
  vertex 137.32453997528805 55.36299413147732 106.0458168326393
  vertex 137.66018519219205 54.98498502204355 106.17047133202168
 endloop
endfacet
facet normal 0 0 -1
 outer loop
  vertex 11.846306235315934 -14.854798166892568 0
  vertex -4.227897745169977 -18.523630331454648 0
  vertex -17.118408490145963 -8.243791043233601 0
 endloop
endfacet
facet normal 0 0 -1
 outer loop
  vertex 11.846306235315934 -14.854798166892568 0
  vertex -17.118408490145963 -8.243791043233601 0
  vertex -17.11840849014596 8.243791043233607 0
 endloop
endfacet
facet normal 0 0 -1
 outer loop
  vertex 11.846306235315934 -14.854798166892568 0
  vertex -17.11840849014596 8.243791043233607 0
  vertex -4.227897745169972 18.523630331454648 0
 endloop
endfacet
facet normal 0 0 -1
 outer loop
  vertex 11.846306235315934 -14.854798166892568 0
  vertex -4.227897745169972 18.523630331454648 0
  vertex 11.846306235315938 14.854798166892566 0
 endloop
endfacet
facet normal 0 0 -1
 outer loop
  vertex 11.846306235315934 -14.854798166892568 0
  vertex 11.846306235315938 14.854798166892566 0
  vertex 19 0 0
 endloop
endfacet
facet normal 0.7424038765061596 0.5198367907256386 -0.4226182617406586
 outer loop
  vertex 137.32453997528805 55.36299413147732 106.0458168326393
  vertex 137.18950628639945 55.78193539404283 106.32392016603691
  vertex 137.3567672474446 55.92633749418389 106.79536384989196
 endloop
endfacet
facet normal 0.7424038765061037 0.5198367907256891 -0.4226182617406941
 outer loop
  vertex 137.32453997528805 55.36299413147732 106.0458168326393
  vertex 137.3567672474446 55.92633749418389 106.79536384989196
  vertex 137.7003719432547 55.68746270522826 107.105141174563
 endloop
endfacet
facet normal 0.7424038765061053 0.519836790725687 -0.422618261740694
 outer loop
  vertex 137.32453997528805 55.36299413147732 106.0458168326393
  vertex 137.7003719432547 55.68746270522826 107.105141174563
  vertex 137.9615790296263 55.245188615417206 107.01998349626692
 endloop
endfacet
facet normal 0.7424038765060993 0.5198367907257004 -0.4226182617406884
 outer loop
  vertex 137.32453997528805 55.36299413147732 106.0458168326393
  vertex 137.9615790296263 55.245188615417206 107.01998349626692
  vertex 137.94369424286805 54.93255663512575 106.60401628366073
 endloop
endfacet
facet normal 0.7424038765061024 0.5198367907256808 -0.422618261740707
 outer loop
  vertex 137.32453997528805 55.36299413147732 106.0458168326393
  vertex 137.94369424286805 54.93255663512575 106.60401628366073
  vertex 137.66018519219205 54.98498502204355 106.17047133202168
 endloop
endfacet
endsolid horn
