# Horn Lab; coordinates in millimeters
v 19 0 0
v 11.846306235315938 14.854798166892566 0
v -4.227897745169972 18.523630331454648 0
v -17.11840849014596 8.243791043233607 0
v -17.118408490145963 -8.243791043233601 0
v -4.227897745169977 -18.523630331454648 0
v 11.846306235315934 -14.854798166892568 0
v 18.54231987653986 0.5341035853075558 10.696735193974131
v 11.33303339925659 14.503837801242256 11.26021092906864
v -4.0445454119161 17.56029450919519 12.538073510889776
v -16.010786066723075 7.401899467723223 13.56806635167997
v -15.554865285269425 -8.321868663449894 13.574583834299219
v -3.0201007150788315 -17.77069177513353 12.55271816140281
v 12.154574259895547 -13.829413343364116 11.271955026942713
v 19.019206996700106 1.0742860517203559 21.25122582933075
v 11.857875984378017 14.167347611442556 22.383465987324385
v -2.669418716361957 16.663998809774068 24.97563344368532
v -13.623327893055464 6.684210371968037 27.075773233193967
v -12.75533451662589 -8.257033457723002 27.102437259305802
v -0.7190553033628362 -16.908671329711154 25.035546966511603
v 13.421946003795131 -12.755843465138925 22.431512902163785
v 20.50335321103758 1.6905537571459162 31.70566746656681
v 13.486982991901463 13.920184619175558 33.353191369010496
v -0.041593829579963604 15.919023779475978 37.15975258343175
v -9.895082974156075 6.181904581452713 40.25893287567335
v -8.653606141412531 -7.958923617748504 40.31698627392053
v 2.7479792920825488 -15.855128763801957 37.29019738521963
v 15.724046944949539 -11.560707328498296 33.45779997800378
v 23.02752059151402 2.4562917208147272 41.98471567442743
v 16.241326251623228 13.83913797266766 44.07753029720344
v 3.8409021496519395 15.409490192624725 48.952463266375275
v -4.835979443061959 5.984841129710701 52.93859062564639
v -3.255449711076432 -7.337856243895092 53.034277171305796
v 7.392320220492449 -14.526339072367756 49.16746898282214
v 19.08934241824945 -10.167533167540636 44.24995149463593
v 26.599290437853377 3.445157375122369 51.98682206902572
v 20.115493953432555 13.999793023508317 54.44781686428708
v 8.946968993991945 15.215588405837012 60.21690151633814
v 1.503842650380875 6.177024801508828 64.94983761430393
v 3.390940871446322 -6.309675042320147 65.08262774211435
v 13.187240206937512 -12.841771460988777 60.515278225103195
v 23.515927449140555 -8.500462620755496 54.687096406531026
v 31.203929736911974 4.7283514125670845 61.59776847334594
v 25.08228871457401 14.474012450657927 64.34768872594866
v 15.219743576486284 15.410769278561665 70.81817165351792
v 9.042991970885986 6.8332248985098625 76.13681163779617
v 11.203253839561016 -4.799554821299866 76.29856429013806
v 20.073807934087668 -10.727849486388985 71.18162656417735
v 28.97494609495983 -6.487532298772459 64.63915693407003
v 36.80549442704958 6.371964586229912 70.69673803584948
v 31.09477138022632 15.327596462630858 73.65715115660052
v 22.580359173684105 16.059309307769798 80.62487151249782
v 17.67378386130619 8.016108425035187 86.35306355995772
v 20.069796729209486 -2.7453118694761383 86.52828185341951
v 27.96415121810741 -8.121382601028373 81.01858344410464
v 35.41223738237525 -4.063812856905115 73.97288361159264
v 43.34771863813723 8.434389424801886 79.16037949895114
v 38.08753718778126 16.618015029299638 82.25521175784154
v 30.930483527662126 17.21408896356271 89.51058923988866
v 27.265965041138088 9.773755397398626 95.463064718382
v 29.853438891116152 -0.10026273872549574 95.63030274964446
v 36.74448449371514 -4.9726283950445564 89.88636968510127
v 42.75000395846496 -1.1743508542037722 82.55656427723507
v 50.755131250967054 10.963839006950288 86.86616553594551
v 45.977746305052335 18.39216288435096 90.022065365571
v 40.15430474724064 18.914488686198062 97.35540092745006
v 37.66997684712349 12.1374944301961 103.34402097070375
v 40.39551218454287 3.164395016604119 103.47837245717562
v 46.27852705963318 -1.2478826782722834 97.65728597728152
v 50.88899127981788 2.2231964438712994 90.26415837890617
v 58.934634333802734 13.99609041880435 93.69536036341196
v 54.66621870133313 20.684173539728278 96.84113000566475
v 50.120332085427236 21.184396979668186 104.04740406869344
v 48.72011982704997 15.12008228565071 109.88771120183563
v 51.519970315884244 7.0577821117468815 109.96418101328088
v 56.41153902729623 3.0685729298584903 104.21923017531104
v 59.711374951775234 6.156410618985057 96.97892384455783
v 67.77751027693492 17.55248104382579 99.53581206869481
v 64.0386657838713 23.513256766820376 102.60121043364232
v 60.683126669349534 24.030262044880253 109.48448983319814
v 60.23768232712836 18.71418135864061 115.00240048618535
v 63.037761432308976 11.568131893123544 114.9998431260399
v 66.97484730748583 7.973234648707297 109.47874349711198
v 69.08423398673489 10.636520572977176 102.59660222989221
v 77.16193196484505 21.638294922089063 104.28447105284727
v 73.96727333821495 26.881653659471375 107.1987514646363
v 71.68522214401598 27.439260634829264 113.57629030937963
v 72.03420947684087 22.89122642260883 118.61467075890138
v 74.75144075702822 16.662313547602825 118.51988957048052
v 77.79078540918009 13.443020451357635 113.36331891218185
v 78.86355491889385 15.657540496957438 107.02796166457634
v 86.95586402262242 26.241523235020377 107.84981659418072
v 84.31269098219545 30.772660521667724 110.54038199127929
v 82.95932835591371 31.377524747470137 116.24645418310075
v 83.91488580493385 27.60064081341675 120.67124442654298
v 86.45980908032399 22.28607935624158 120.48279541902203
v 88.67771904874121 19.435813550494547 115.82301310686036
v 88.898484266849 21.196151682729838 110.2008086133523
v 97.02041720910267 31.332099302337223 110.15419499878283
v 94.92667500576074 35.148756340397725 112.5456871206628
v 94.33105792899846 35.788441013966654 117.43505372028652
v 95.68207778599199 32.769457716657264 121.14050202323476
v 97.96238906864251 28.36516244737983 120.871753880017
v 99.45487087124098 25.89207937515092 116.83118212393927
v 99.03565395535026 27.212490495059978 112.06141969997122
v 107.21381355131246 36.86163967832569 111.13652878893086
v 105.65575209127529 39.949622602149 113.15042494299249
v 105.62239524688067 40.590718636598524 117.10097616604565
v 107.13886140231338 38.302169391757914 120.01333681057243
v 109.06322061226042 34.807299126889134 119.6944399099136
v 109.94639114185755 32.73781643379972 116.38442133457654
v 109.12332756892245 33.65208399013971 112.57579258386413
v 117.39680993033424 42.763931791838026 110.75658030694855
v 116.34708951257952 45.08930658409738 112.31060687219556
v 116.65648338149376 45.67507539935934 115.22358297480345
v 118.09201164329977 44.08014237222541 117.30197819562488
v 119.57269223741763 41.50552460283206 116.98071854184518
v 119.98354247609683 39.889961784163944 114.50171908526312
v 119.0151837497944 40.450005670153836 111.7317169790583
v 127.44361344322068 48.957177626402604 109.006653762371
v 126.86187383747192 50.448442035808625 110.0099356134564
v 127.26622895068242 50.893430941581705 111.8008423102261
v 128.35219113526352 49.957058621555255 113.03078458217355
v 129.30200871663416 48.3444325312236 112.77359081227223
v 129.40044968327447 47.26989300818383 111.22293315505465
v 128.57338597947452 47.54259022989659 109.54648845405733
v 137.32453997528805 55.36299413147732 106.0458168326393
v 137.18950628639945 55.78193539404283 106.32392016603691
v 137.3567672474446 55.92633749418389 106.79536384989196
v 137.7003719432547 55.68746270522826 107.105141174563
v 137.9615790296263 55.245188615417206 107.01998349626692
v 137.94369424286805 54.93255663512575 106.60401628366073
v 137.66018519219205 54.98498502204355 106.17047133202168
f 1 2 9 8
f 2 3 10 9
f 3 4 11 10
f 4 5 12 11
f 5 6 13 12
f 6 7 14 13
f 7 1 8 14
f 8 9 16 15
f 9 10 17 16
f 10 11 18 17
f 11 12 19 18
f 12 13 20 19
f 13 14 21 20
f 14 8 15 21
f 15 16 23 22
f 16 17 24 23
f 17 18 25 24
f 18 19 26 25
f 19 20 27 26
f 20 21 28 27
f 21 15 22 28
f 22 23 30 29
f 23 24 31 30
f 24 25 32 31
f 25 26 33 32
f 26 27 34 33
f 27 28 35 34
f 28 22 29 35
f 29 30 37 36
f 30 31 38 37
f 31 32 39 38
f 32 33 40 39
f 33 34 41 40
f 34 35 42 41
f 35 29 36 42
f 36 37 44 43
f 37 38 45 44
f 38 39 46 45
f 39 40 47 46
f 40 41 48 47
f 41 42 49 48
f 42 36 43 49
f 43 44 51 50
f 44 45 52 51
f 45 46 53 52
f 46 47 54 53
f 47 48 55 54
f 48 49 56 55
f 49 43 50 56
f 50 51 58 57
f 51 52 59 58
f 52 53 60 59
f 53 54 61 60
f 54 55 62 61
f 55 56 63 62
f 56 50 57 63
f 57 58 65 64
f 58 59 66 65
f 59 60 67 66
f 60 61 68 67
f 61 62 69 68
f 62 63 70 69
f 63 57 64 70
f 64 65 72 71
f 65 66 73 72
f 66 67 74 73
f 67 68 75 74
f 68 69 76 75
f 69 70 77 76
f 70 64 71 77
f 71 72 79 78
f 72 73 80 79
f 73 74 81 80
f 74 75 82 81
f 75 76 83 82
f 76 77 84 83
f 77 71 78 84
f 78 79 86 85
f 79 80 87 86
f 80 81 88 87
f 81 82 89 88
f 82 83 90 89
f 83 84 91 90
f 84 78 85 91
f 85 86 93 92
f 86 87 94 93
f 87 88 95 94
f 88 89 96 95
f 89 90 97 96
f 90 91 98 97
f 91 85 92 98
f 92 93 100 99
f 93 94 101 100
f 94 95 102 101
f 95 96 103 102
f 96 97 104 103
f 97 98 105 104
f 98 92 99 105
f 99 100 107 106
f 100 101 108 107
f 101 102 109 108
f 102 103 110 109
f 103 104 111 110
f 104 105 112 111
f 105 99 106 112
f 106 107 114 113
f 107 108 115 114
f 108 109 116 115
f 109 110 117 116
f 110 111 118 117
f 111 112 119 118
f 112 106 113 119
f 113 114 121 120
f 114 115 122 121
f 115 116 123 122
f 116 117 124 123
f 117 118 125 124
f 118 119 126 125
f 119 113 120 126
f 120 121 128 127
f 121 122 129 128
f 122 123 130 129
f 123 124 131 130
f 124 125 132 131
f 125 126 133 132
f 126 120 127 133
f 7 6 5 4 3 2 1
f 127 128 129 130 131 132 133
