# Horn Lab; coordinates in millimeters
v 16 0 0
v 9.975836829739738 9.381977789616357 0
v -3.5603349433010294 11.699134946181884 0
v -14.415501886438705 5.2066048694106986 0
v -14.415501886438706 -5.206604869410696 0
v -3.5603349433010334 -11.699134946181884 0
v 9.975836829739734 -9.381977789616359 0
v 15.401221842440602 1.8410204390289309 8.142254762050962
v 7.741675395333765 10.109860376728234 8.359103180915033
v -5.648592639336323 10.77269138602446 8.78369184726159
v -14.68643731977306 3.330388197629017 9.096296835301276
v -12.566177263173993 -6.612843092277803 9.06152021306055
v -0.8844115375813699 -11.569546517441486 8.705549486400493
v 11.562252001039333 -7.807223300390282 8.296437872975641
v 14.71692997276593 3.565417490386427 16.257870469039602
v 5.7473285794262665 10.575623402692347 16.762889879985913
v -7.129649305718885 9.681307796814542 17.642248594030534
v -14.217376692676106 1.5559085646927662 18.233771563849086
v -10.178650295776313 -7.681982943946848 18.092029928298587
v 1.9452865331102824 -11.076046004453454 17.323758029951
v 13.02486207859111 -6.070481905996465 16.507480278152766
v 14.011321723103228 5.197069955558202 24.39652953363013
v 4.0788505175208964 10.851912160790329 25.22975830843694
v -7.953844554062986 8.541639144812935 26.53949145460348
v -13.02589868049744 0.005933609638159032 27.339473199379057
v -7.31795165352834 -8.327644080085678 27.027300972293975
v 4.871795994636338 -10.183739949991459 25.838046827496242
v 14.364215659391554 -4.164675952584357 24.66724339238209
v 13.336622137503545 6.770076774454154 32.56849842528192
v 2.7968508277919204 11.022090901002171 33.747201104665336
v -8.107600109073294 7.473951914290358 35.43905495154405
v -11.165456707370414 -1.2025191598420588 36.37005951168932
v -4.07409057967458 -8.473762634817952 35.83914936227971
v 7.826554942352152 -8.864383867644188 34.24611067441407
v 15.575051051695267 -2.0802371027815845 32.790534072122384
v 12.735800416598511 8.326271361274381 40.77157658192982
v 1.9399106309089307 11.175816562380263 42.2920751152766
v -7.606905166580749 6.596749297286878 44.30307310641776
v -8.715699960808502 -1.962799387440785 45.2902480511408
v -0.5515286564289377 -8.057314749229466 44.51023708137019
v 10.737821235615563 -7.097502415195069 42.55040436666732
v 16.65123898584548 0.19387935053096328 40.88654391450522
v 12.241553315192771 9.912788404839272 48.9944025735843
v 1.5246893000873856 11.405080785983586 50.83490745363308
v -6.494507330244603 6.022490752903314 53.09442879687822
v -5.777417951363046 -2.181781614665022 54.07150094602042
v 3.135974508476668 -7.02975188728528 53.030368644116
v 13.533703726944303 -4.870799569103015 50.75502574972757
v 17.58606752751088 2.6693402096890715 48.958851870866155
v 11.875113904925424 11.579513898886123 57.21827290961904
v 1.5462047055100285 11.800606201373526 59.34285272101007
v -4.8371791062488825 5.854120080712988 61.778747932770735
v -2.4682193227971094 -1.782119128027107 62.69167976723829
v 6.869209020953116 -5.357867549773078 61.39419193264305
v 16.143831933331235 -2.1805136909751335 58.86331923236367
v 18.37166919348722 5.357330186484864 57.00486043010519
v 11.645529170419806 13.37661056792074 65.4189931708006
v 1.9787060227282822 12.448739758995622 67.7822089008117
v -2.7227470676737244 6.18233316155715 70.32578147544218
v 1.0814599684520498 -0.7038772451240805 71.13434886657043
v 10.526681641221373 -3.0244345717240693 69.59904333690791
v 18.50047338362912 0.968088179429845 66.87598126481586
v 18.998407377933027 8.267239944096712 65.01568393092298
v 11.549538273764355 15.352365049788954 73.56891837672208
v 2.777068800111807 13.428933425994238 76.1204908590692
v -0.25699086040082975 7.083448448376073 78.71002957551501
v 4.7320681001305225 1.0941897293853504 79.38755905561251
v 13.987382526169618 -0.028808756964921578 77.6428857817656
v 20.53951188090106 4.560093754541425 74.78978431403
v 19.454569121130554 11.405360076187968 72.97669825027427
v 11.57195524180376 17.551532724170933 81.63902895162683
v 3.878503700445121 14.81177040562903 84.32791851892594
v 2.439450494145177 8.61765859938996 86.9105906085029
v 8.338432038583557 3.6334898324061857 87.44224045999663
v 17.133394913503928 3.6124448447308453 85.52252489155175
v 22.20155268954359 8.570370941322988 82.59702888126839
v 19.726479189766753 14.773848648187288 80.86871059413309
v 11.686345817631988 20.01423753769086 89.60080433730226
v 5.204376029857761 16.65738042327267 92.3782026025729
v 5.234119000703853 10.82742848253643 94.91032989977278
v 11.753177666477114 6.914454436203465 95.29044272812664
v 19.85256788728789 7.86500755128669 93.23230837499537
v 23.433283629414376 12.963301944378541 90.28574398657659
v 19.79897290574538 18.370217951227975 88.6695726463094
v 11.855758750314553 22.77533373513855 97.42766864417462
v 6.662015561447765 19.01400741468847 100.24859467214073
v 7.985792812579825 13.73585280954302 102.69455371928515
v 14.830259233473466 10.9154279921093 102.92368873463637
v 22.04139200752487 12.676570376096343 100.76345637813239
v 24.189061075571885 17.693103825604258 97.84055567493019
v 19.656027824910012 22.187476334520014 96.35599047084959
v 12.033338251264501 25.863998352860023 105.09585154437552
v 8.146533052407252 21.91647323472578 107.91926817756479
v 10.547726751009382 17.344886529661512 110.2494333040935
v 17.4287715165984 15.591736269954675 110.33168505697925
v 23.608100292952606 17.977180358912538 108.1040861886691
v 24.4325524761417 22.704930743358222 105.24406408173647
v 19.281298756464636 26.214894955271543 103.90527371652057
v 12.16274550204555 29.303296608383505 112.58458172157735
v 9.542768577928943 25.38438971108135 115.3721627780584
v 12.77126495588077 21.63354752790152 117.56042058321228
v 19.417111013979028 20.875230726015324 117.50155237743368
v 24.475849119921854 23.68046732408681 115.23988712036645
v 24.13814630048263 27.936856947369925 112.47850488014578
v 18.658299666581215 30.439251395007155 111.2967828055902
v 12.178486826146582 33.10942641050092 119.87563866203477
v 10.727605886693173 29.420053085249545 122.58948984914888
v 14.509992047789718 26.556285697197843 124.61088361257904
v 20.67743138351373 26.674599499757498 124.41766921954405
v 24.585716281229836 29.685901786439352 122.1553410488546
v 23.29182849847481 33.32262051599973 119.52747835612439
v 17.770091926163975 34.84623230953697 118.51291534760922
v 12.006376543037286 37.290484383282205 126.95235383989413
v 11.572897232904804 34.006160373348195 129.55209229681066
v 15.62446016461763 32.04185590710942 131.38110871702153
v 21.11015581377376 32.87673231215256 131.0621164309723
v 23.899143468760272 35.88211062710509 128.83532313631486
v 21.89125854039213 38.794879682262525 126.37754960223138
v 16.598479333118842 39.421664969430715 125.53954942933018
v 11.564483162286082 41.84475705114422 133.79821130888553
v 11.949197944160264 39.103647902142214 136.23781522937216
v 15.987354588474856 37.99305485495729 137.84771481988147
v 20.638138778677142 39.34927712608927 137.4156228527931
v 22.399415160836455 42.15105168348315 135.26691339239437
v 19.944906695696126 44.288585139635885 133.0196084880508
v 15.122908320354956 44.15227120432815 132.36597456939887
v 10.765017890056502 46.75880380225272 140.39522657952384
v 11.730406751367033 44.65013016740736 142.61993264259013
v 15.488728414936643 44.28763461540008 143.98335953349405
v 19.209890012306918 45.94428369045407 143.45881899454486
v 20.09178096279475 48.37258684957107 141.4413007502483
v 17.47031939338581 49.74398228557868 139.45003718843185
v 13.319519333915853 49.025781263794386 138.9844903855175
v 9.517812529847514 52.00605691012984 146.7222737817522
v 10.799251667866724 50.559681917445616 148.66538496982787
v 14.040546032080972 50.78057755888755 149.75625908327933
v 16.800934855881298 52.50240491099995 149.17344566490095
v 17.00178905327571 54.42859285876503 147.35581510595884
v 14.491861316947258 55.1086825904421 145.6720802902428
v 11.161178425546513 54.030552666776 145.39012787591804
v 7.736912942046375 57.547851734630804 152.75351398138423
v 9.053483507185508 56.72548787406748 154.33167633573925
v 11.578806037273239 57.307693215958366 155.12793330159698
v 13.411261159961695 58.856055263034975 154.5426871429845
v 13.17097279259406 60.20462581301886 153.01664015418305
v 11.038882976787592 60.337903735946185 151.6989368434456
v 8.620498830550831 59.15552803747851 151.58183468000652
v 5.357518889927011 63.34467395157871 158.45724136568106
v 6.413304959745194 63.031551213887234 159.55668856486307
v 8.056652312493135 63.69043985198618 160.04170045713354
v 9.050086873374726 64.82518328250822 159.54705319517325
v 8.645532155674148 65.58129655772265 158.44522625620357
v 7.14762611323226 65.38941095949302 157.56591779844226
v 5.684322547722649 64.39402025703912 157.57126502520728
v 2.536350727679344 69.52284118527218 163.80980689189113
v 2.8692817908346684 69.50991254966976 164.12958047260526
v 3.3043063449051653 69.76687432037454 164.2478086438346
v 3.5138420277920366 70.10022904298096 164.0754631812282
v 3.340104196532479 70.25895381216927 163.74232373333547
v 2.913920981670833 70.12352563934544 163.49925109922594
v 2.5562170365511787 69.7959247008771 163.5292839301622
f 1 2 9 8
f 2 3 10 9
f 3 4 11 10
f 4 5 12 11
f 5 6 13 12
f 6 7 14 13
f 7 1 8 14
f 8 9 16 15
f 9 10 17 16
f 10 11 18 17
f 11 12 19 18
f 12 13 20 19
f 13 14 21 20
f 14 8 15 21
f 15 16 23 22
f 16 17 24 23
f 17 18 25 24
f 18 19 26 25
f 19 20 27 26
f 20 21 28 27
f 21 15 22 28
f 22 23 30 29
f 23 24 31 30
f 24 25 32 31
f 25 26 33 32
f 26 27 34 33
f 27 28 35 34
f 28 22 29 35
f 29 30 37 36
f 30 31 38 37
f 31 32 39 38
f 32 33 40 39
f 33 34 41 40
f 34 35 42 41
f 35 29 36 42
f 36 37 44 43
f 37 38 45 44
f 38 39 46 45
f 39 40 47 46
f 40 41 48 47
f 41 42 49 48
f 42 36 43 49
f 43 44 51 50
f 44 45 52 51
f 45 46 53 52
f 46 47 54 53
f 47 48 55 54
f 48 49 56 55
f 49 43 50 56
f 50 51 58 57
f 51 52 59 58
f 52 53 60 59
f 53 54 61 60
f 54 55 62 61
f 55 56 63 62
f 56 50 57 63
f 57 58 65 64
f 58 59 66 65
f 59 60 67 66
f 60 61 68 67
f 61 62 69 68
f 62 63 70 69
f 63 57 64 70
f 64 65 72 71
f 65 66 73 72
f 66 67 74 73
f 67 68 75 74
f 68 69 76 75
f 69 70 77 76
f 70 64 71 77
f 71 72 79 78
f 72 73 80 79
f 73 74 81 80
f 74 75 82 81
f 75 76 83 82
f 76 77 84 83
f 77 71 78 84
f 78 79 86 85
f 79 80 87 86
f 80 81 88 87
f 81 82 89 88
f 82 83 90 89
f 83 84 91 90
f 84 78 85 91
f 85 86 93 92
f 86 87 94 93
f 87 88 95 94
f 88 89 96 95
f 89 90 97 96
f 90 91 98 97
f 91 85 92 98
f 92 93 100 99
f 93 94 101 100
f 94 95 102 101
f 95 96 103 102
f 96 97 104 103
f 97 98 105 104
f 98 92 99 105
f 99 100 107 106
f 100 101 108 107
f 101 102 109 108
f 102 103 110 109
f 103 104 111 110
f 104 105 112 111
f 105 99 106 112
f 106 107 114 113
f 107 108 115 114
f 108 109 116 115
f 109 110 117 116
f 110 111 118 117
f 111 112 119 118
f 112 106 113 119
f 113 114 121 120
f 114 115 122 121
f 115 116 123 122
f 116 117 124 123
f 117 118 125 124
f 118 119 126 125
f 119 113 120 126
f 120 121 128 127
f 121 122 129 128
f 122 123 130 129
f 123 124 131 130
f 124 125 132 131
f 125 126 133 132
f 126 120 127 133
f 127 128 135 134
f 128 129 136 135
f 129 130 137 136
f 130 131 138 137
f 131 132 139 138
f 132 133 140 139
f 133 127 134 140
f 134 135 142 141
f 135 136 143 142
f 136 137 144 143
f 137 138 145 144
f 138 139 146 145
f 139 140 147 146
f 140 134 141 147
f 141 142 149 148
f 142 143 150 149
f 143 144 151 150
f 144 145 152 151
f 145 146 153 152
f 146 147 154 153
f 147 141 148 154
f 148 149 156 155
f 149 150 157 156
f 150 151 158 157
f 151 152 159 158
f 152 153 160 159
f 153 154 161 160
f 154 148 155 161
f 7 6 5 4 3 2 1
f 155 156 157 158 159 160 161
