solid horn
facet normal 0.8284673668952672 0.5319584752094203 0.17510568992037737
 outer loop
  vertex 16 0 0
  vertex 9.975836829739738 9.381977789616357 0
  vertex 7.741675395333765 10.109860376728234 8.359103180915033
 endloop
endfacet
facet normal 0.7286653080174172 0.6775857910616974 -0.09962110541033135
 outer loop
  vertex 16 0 0
  vertex 7.741675395333765 10.109860376728234 8.359103180915033
  vertex 15.401221842440602 1.8410204390289309 8.142254762050962
 endloop
endfacet
facet normal 0.16700389860384585 0.9755891834370767 0.14260239483155387
 outer loop
  vertex 9.975836829739738 9.381977789616357 0
  vertex -3.5603349433010294 11.699134946181884 0
  vertex -5.648592639336323 10.77269138602446 8.78369184726159
 endloop
endfacet
facet normal 0.04695730767779796 0.9961379751465902 -0.0741899300882811
 outer loop
  vertex 9.975836829739738 9.381977789616357 0
  vertex -5.648592639336323 10.77269138602446 8.78369184726159
  vertex 7.741675395333765 10.109860376728234 8.359103180915033
 endloop
endfacet
facet normal -0.506715517854676 0.8472015491573085 0.1596524947212668
 outer loop
  vertex -3.5603349433010294 11.699134946181884 0
  vertex -14.415501886438705 5.2066048694106986 0
  vertex -14.68643731977306 3.330388197629017 9.096296835301276
 endloop
endfacet
facet normal -0.6355576146694405 0.7688732067580352 -0.07000364537155558
 outer loop
  vertex -3.5603349433010294 11.699134946181884 0
  vertex -14.68643731977306 3.330388197629017 9.096296835301276
  vertex -5.648592639336323 10.77269138602446 8.78369184726159
 endloop
endfacet
facet normal -0.9798033218915566 1.6714158033526229e-16 0.1999636227174093
 outer loop
  vertex -14.415501886438705 5.2066048694106986 0
  vertex -14.415501886438706 -5.206604869410696 0
  vertex -12.566177263173993 -6.612843092277803 9.06152021306055
 endloop
endfacet
facet normal -0.9755314073241664 -0.2077674147526495 -0.07191088019995132
 outer loop
  vertex -14.415501886438705 5.2066048694106986 0
  vertex -12.566177263173993 -6.612843092277803 9.06152021306055
  vertex -14.68643731977306 3.330388197629017 9.096296835301276
 endloop
endfacet
facet normal -0.5059929129818019 -0.84599339202346 0.16812600234595038
 outer loop
  vertex -14.415501886438706 -5.206604869410696 0
  vertex -3.5603349433010334 -11.699134946181884 0
  vertex -0.8844115375813699 -11.569546517441486 8.705549486400493
 endloop
endfacet
facet normal -0.3914532719635259 -0.9180673733891722 -0.06258301516670528
 outer loop
  vertex -14.415501886438706 -5.206604869410696 0
  vertex -0.8844115375813699 -11.569546517441486 8.705549486400493
  vertex -12.566177263173993 -6.612843092277803 9.06152021306055
 endloop
endfacet
facet normal 0.16674164058316895 -0.9740571468176875 0.15300294124303387
 outer loop
  vertex -3.5603349433010334 -11.699134946181884 0
  vertex 9.975836829739734 -9.381977789616359 0
  vertex 11.562252001039333 -7.807223300390282 8.296437872975641
 endloop
endfacet
facet normal 0.2863335669986933 -0.9552840458674796 -0.07379349646726159
 outer loop
  vertex -3.5603349433010334 -11.699134946181884 0
  vertex 11.562252001039333 -7.807223300390282 8.296437872975641
  vertex -0.8844115375813699 -11.569546517441486 8.705549486400493
 endloop
endfacet
facet normal 0.8275686478136391 -0.531381408143887 0.18100809991523806
 outer loop
  vertex 9.975836829739734 -9.381977789616359 0
  vertex 16 0 0
  vertex 15.401221842440602 1.8410204390289309 8.142254762050962
 endloop
endfacet
facet normal 0.9232807675129504 -0.3690688753261909 -0.10649314347016964
 outer loop
  vertex 9.975836829739734 -9.381977789616359 0
  vertex 15.401221842440602 1.8410204390289309 8.142254762050962
  vertex 11.562252001039333 -7.807223300390282 8.296437872975641
 endloop
endfacet
facet normal 0.7286041588331541 0.6713579002608364 0.13570021919065886
 outer loop
  vertex 15.401221842440602 1.8410204390289309 8.142254762050962
  vertex 7.741675395333765 10.109860376728234 8.359103180915033
  vertex 5.7473285794262665 10.575623402692347 16.762889879985913
 endloop
endfacet
facet normal 0.6076008991897064 0.7857661183272403 -0.11572706940384177
 outer loop
  vertex 15.401221842440602 1.8410204390289309 8.142254762050962
  vertex 5.7473285794262665 10.575623402692347 16.762889879985913
  vertex 14.71692997276593 3.565417490386427 16.257870469039602
 endloop
endfacet
facet normal 0.05315392709750494 0.9899758543579941 0.13085284797157828
 outer loop
  vertex 7.741675395333765 10.109860376728234 8.359103180915033
  vertex -5.648592639336323 10.77269138602446 8.78369184726159
  vertex -7.129649305718885 9.681307796814542 17.642248594030534
 endloop
endfacet
facet normal -0.07404011902083786 0.9946022038383379 -0.07269468271683795
 outer loop
  vertex 7.741675395333765 10.109860376728234 8.359103180915033
  vertex -7.129649305718885 9.681307796814542 17.642248594030534
  vertex 5.7473285794262665 10.575623402692347 16.762889879985913
 endloop
endfacet
facet normal -0.6215798699694973 0.7623984013910996 0.1799642820256248
 outer loop
  vertex -5.648592639336323 10.77269138602446 8.78369184726159
  vertex -14.68643731977306 3.330388197629017 9.096296835301276
  vertex -14.217376692676106 1.5559085646927662 18.233771563849086
 endloop
endfacet
facet normal -0.7544448039676511 0.6547869865016489 -0.04546471240755532
 outer loop
  vertex -5.648592639336323 10.77269138602446 8.78369184726159
  vertex -14.217376692676106 1.5559085646927662 18.233771563849086
  vertex -7.129649305718885 9.681307796814542 17.642248594030534
 endloop
endfacet
facet normal -0.9521792205939179 -0.20383545147675747 0.22760896421368282
 outer loop
  vertex -14.68643731977306 3.330388197629017 9.096296835301276
  vertex -12.566177263173993 -6.612843092277803 9.06152021306055
  vertex -10.178650295776313 -7.681982943946848 18.092029928298587
 endloop
endfacet
facet normal -0.9160030360057067 -0.39999823134729723 -0.030657021175616625
 outer loop
  vertex -14.68643731977306 3.330388197629017 9.096296835301276
  vertex -10.178650295776313 -7.681982943946848 18.092029928298587
  vertex -14.217376692676106 1.5559085646927662 18.233771563849086
 endloop
endfacet
facet normal -0.3798869058149411 -0.9079944288215335 0.17672593476738893
 outer loop
  vertex -12.566177263173993 -6.612843092277803 9.06152021306055
  vertex -0.8844115375813699 -11.569546517441486 8.705549486400493
  vertex 1.9452865331102824 -11.076046004453454 17.323758029951
 endloop
endfacet
facet normal -0.27181040448459637 -0.961435460880854 -0.04196377693607104
 outer loop
  vertex -12.566177263173993 -6.612843092277803 9.06152021306055
  vertex 1.9452865331102824 -11.076046004453454 17.323758029951
  vertex -10.178650295776313 -7.681982943946848 18.092029928298587
 endloop
endfacet
facet normal 0.2906110900477437 -0.9452982398246772 0.1481770296828406
 outer loop
  vertex -0.8844115375813699 -11.569546517441486 8.705549486400493
  vertex 11.562252001039333 -7.807223300390282 8.296437872975641
  vertex 13.02486207859111 -6.070481905996465 16.507480278152766
 endloop
endfacet
facet normal 0.40540334721932675 -0.910544900706762 -0.08096980832556637
 outer loop
  vertex -0.8844115375813699 -11.569546517441486 8.705549486400493
  vertex 13.02486207859111 -6.070481905996465 16.507480278152766
  vertex 1.9452865331102824 -11.076046004453454 17.323758029951
 endloop
endfacet
facet normal 0.9188213132807805 -0.3631216476035863 0.15462879195880325
 outer loop
  vertex 11.562252001039333 -7.807223300390282 8.296437872975641
  vertex 15.401221842440602 1.8410204390289309 8.142254762050962
  vertex 14.71692997276593 3.565417490386427 16.257870469039602
 endloop
endfacet
facet normal 0.9750715238222343 -0.17476462265300752 -0.13672179818864988
 outer loop
  vertex 11.562252001039333 -7.807223300390282 8.296437872975641
  vertex 14.71692997276593 3.565417490386427 16.257870469039602
  vertex 13.02486207859111 -6.070481905996465 16.507480278152766
 endloop
endfacet
facet normal 0.6162987825835993 0.7816464105457946 0.09594112500303609
 outer loop
  vertex 14.71692997276593 3.565417490386427 16.257870469039602
  vertex 5.7473285794262665 10.575623402692347 16.762889879985913
  vertex 4.0788505175208964 10.851912160790329 25.22975830843694
 endloop
endfacet
facet normal 0.48206648310065137 0.8661561055745711 -0.13185411122472404
 outer loop
  vertex 14.71692997276593 3.565417490386427 16.257870469039602
  vertex 4.0788505175208964 10.851912160790329 25.22975830843694
  vertex 14.011321723103228 5.197069955558202 24.39652953363013
 endloop
endfacet
facet normal -0.060525911983407885 0.9907684827023797 0.12130304061399763
 outer loop
  vertex 5.7473285794262665 10.575623402692347 16.762889879985913
  vertex -7.129649305718885 9.681307796814542 17.642248594030534
  vertex -7.953844554062986 8.541639144812935 26.53949145460348
 endloop
endfacet
facet normal -0.19547657132643134 0.978175392982121 -0.07044012085974702
 outer loop
  vertex 5.7473285794262665 10.575623402692347 16.762889879985913
  vertex -7.953844554062986 8.541639144812935 26.53949145460348
  vertex 4.0788505175208964 10.851912160790329 25.22975830843694
 endloop
endfacet
facet normal -0.7298615456915318 0.6516810392277107 0.20643145892004658
 outer loop
  vertex -7.129649305718885 9.681307796814542 17.642248594030534
  vertex -14.217376692676106 1.5559085646927662 18.233771563849086
  vertex -13.02589868049744 0.005933609638159032 27.339473199379057
 endloop
endfacet
facet normal -0.8601812526501549 0.509785579125297 -0.014383181327378916
 outer loop
  vertex -7.129649305718885 9.681307796814542 17.642248594030534
  vertex -13.02589868049744 0.005933609638159032 27.339473199379057
  vertex -7.953844554062986 8.541639144812935 26.53949145460348
 endloop
endfacet
facet normal -0.8845369738285109 -0.3906239863859922 0.2549651803486433
 outer loop
  vertex -14.217376692676106 1.5559085646927662 18.233771563849086
  vertex -10.178650295776313 -7.681982943946848 18.092029928298587
  vertex -7.31795165352834 -8.327644080085678 27.027300972293975
 endloop
endfacet
facet normal -0.8247686614210734 -0.5653495156233942 0.011686758407885477
 outer loop
  vertex -14.217376692676106 1.5559085646927662 18.233771563849086
  vertex -7.31795165352834 -8.327644080085678 27.027300972293975
  vertex -13.02589868049744 0.005933609638159032 27.339473199379057
 endloop
endfacet
facet normal -0.253852275168609 -0.9490503536491431 0.186714885936171
 outer loop
  vertex -10.178650295776313 -7.681982943946848 18.092029928298587
  vertex 1.9452865331102824 -11.076046004453454 17.323758029951
  vertex 4.871795994636338 -10.183739949991459 25.838046827496242
 endloop
endfacet
facet normal -0.15264116071159284 -0.9880249442784201 -0.022525220093100075
 outer loop
  vertex -10.178650295776313 -7.681982943946848 18.092029928298587
  vertex 4.871795994636338 -10.183739949991459 25.838046827496242
  vertex -7.31795165352834 -8.327644080085678 27.027300972293975
 endloop
endfacet
facet normal 0.4162118365836325 -0.898195412002854 0.1414662820063603
 outer loop
  vertex 1.9452865331102824 -11.076046004453454 17.323758029951
  vertex 13.02486207859111 -6.070481905996465 16.507480278152766
  vertex 14.364215659391554 -4.164675952584357 24.66724339238209
 endloop
endfacet
facet normal 0.5251428552409287 -0.8460445729765856 -0.09183442778322205
 outer loop
  vertex 1.9452865331102824 -11.076046004453454 17.323758029951
  vertex 14.364215659391554 -4.164675952584357 24.66724339238209
  vertex 4.871795994636338 -10.183739949991459 25.838046827496242
 endloop
endfacet
facet normal 0.9784898473601709 -0.16874931336049423 0.11866460236073548
 outer loop
  vertex 13.02486207859111 -6.070481905996465 16.507480278152766
  vertex 14.71692997276593 3.565417490386427 16.257870469039602
  vertex 14.011321723103228 5.197069955558202 24.39652953363013
 endloop
endfacet
facet normal 0.9850513712242167 0.03223855990085067 -0.16921723111081136
 outer loop
  vertex 13.02486207859111 -6.070481905996465 16.507480278152766
  vertex 14.011321723103228 5.197069955558202 24.39652953363013
  vertex 14.364215659391554 -4.164675952584357 24.66724339238209
 endloop
endfacet
facet normal 0.49758618257448645 0.8654999034650236 0.05760128482060574
 outer loop
  vertex 14.011321723103228 5.197069955558202 24.39652953363013
  vertex 4.0788505175208964 10.851912160790329 25.22975830843694
  vertex 2.7968508277919204 11.022090901002171 33.747201104665336
 endloop
endfacet
facet normal 0.35568929145513056 0.9227704911792605 -0.1482556864101123
 outer loop
  vertex 14.011321723103228 5.197069955558202 24.39652953363013
  vertex 2.7968508277919204 11.022090901002171 33.747201104665336
  vertex 13.336622137503545 6.770076774454154 32.56849842528192
 endloop
endfacet
facet normal -0.1753085827489318 0.977857716323747 0.11428555219566097
 outer loop
  vertex 4.0788505175208964 10.851912160790329 25.22975830843694
  vertex -7.953844554062986 8.541639144812935 26.53949145460348
  vertex -8.107600109073294 7.473951914290358 35.43905495154405
 endloop
endfacet
facet normal -0.3180790162337158 0.9457099938103044 -0.06677085471300626
 outer loop
  vertex 4.0788505175208964 10.851912160790329 25.22975830843694
  vertex -8.107600109073294 7.473951914290358 35.43905495154405
  vertex 2.7968508277919204 11.022090901002171 33.747201104665336
 endloop
endfacet
facet normal -0.8248850904951817 0.5125148357461615 0.23852280943096582
 outer loop
  vertex -7.953844554062986 8.541639144812935 26.53949145460348
  vertex -13.02589868049744 0.005933609638159032 27.339473199379057
  vertex -11.165456707370414 -1.2025191598420588 36.37005951168932
 endloop
endfacet
facet normal -0.9420672253080509 0.3345741894339361 0.023863251350451375
 outer loop
  vertex -7.953844554062986 8.541639144812935 26.53949145460348
  vertex -11.165456707370414 -1.2025191598420588 36.37005951168932
  vertex -8.107600109073294 7.473951914290358 35.43905495154405
 endloop
endfacet
facet normal -0.786954449472267 -0.5495221179933368 0.28058534582532685
 outer loop
  vertex -13.02589868049744 0.005933609638159032 27.339473199379057
  vertex -7.31795165352834 -8.327644080085678 27.027300972293975
  vertex -4.07409057967458 -8.473762634817952 35.83914936227971
 endloop
endfacet
facet normal -0.7129398966415855 -0.699195635665141 0.05331197654847104
 outer loop
  vertex -13.02589868049744 0.005933609638159032 27.339473199379057
  vertex -4.07409057967458 -8.473762634817952 35.83914936227971
  vertex -11.165456707370414 -1.2025191598420588 36.37005951168932
 endloop
endfacet
facet normal -0.12868093705868905 -0.9717781199605858 0.19770812326145484
 outer loop
  vertex -7.31795165352834 -8.327644080085678 27.027300972293975
  vertex 4.871795994636338 -10.183739949991459 25.838046827496242
  vertex 7.826554942352152 -8.864383867644188 34.24611067441407
 endloop
endfacet
facet normal -0.03337856271759419 -0.9994335939761994 -0.004285181761048821
 outer loop
  vertex -7.31795165352834 -8.327644080085678 27.027300972293975
  vertex 7.826554942352152 -8.864383867644188 34.24611067441407
  vertex -4.07409057967458 -8.473762634817952 35.83914936227971
 endloop
endfacet
facet normal 0.5423850674612773 -0.8296871852745771 0.13205155503126514
 outer loop
  vertex 4.871795994636338 -10.183739949991459 25.838046827496242
  vertex 14.364215659391554 -4.164675952584357 24.66724339238209
  vertex 15.575051051695267 -2.0802371027815845 32.790534072122384
 endloop
endfacet
facet normal 0.6434657328048138 -0.7579320856559447 -0.10719516891723023
 outer loop
  vertex 4.871795994636338 -10.183739949991459 25.838046827496242
  vertex 15.575051051695267 -2.0802371027815845 32.790534072122384
  vertex 7.826554942352152 -8.864383867644188 34.24611067441407
 endloop
endfacet
facet normal 0.9964206140465027 0.03971822867368174 0.07462186150328419
 outer loop
  vertex 14.364215659391554 -4.164675952584357 24.66724339238209
  vertex 14.011321723103228 5.197069955558202 24.39652953363013
  vertex 13.336622137503545 6.770076774454154 32.56849842528192
 endloop
endfacet
facet normal 0.9506608323162041 0.23537170154973447 -0.2020993419322404
 outer loop
  vertex 14.364215659391554 -4.164675952584357 24.66724339238209
  vertex 13.336622137503545 6.770076774454154 32.56849842528192
  vertex 15.575051051695267 -2.0802371027815845 32.790534072122384
 endloop
endfacet
facet normal 0.3760684912858286 0.9263527486078917 0.02104934698761441
 outer loop
  vertex 13.336622137503545 6.770076774454154 32.56849842528192
  vertex 2.7968508277919204 11.022090901002171 33.747201104665336
  vertex 1.9399106309089307 11.175816562380263 42.2920751152766
 endloop
endfacet
facet normal 0.22989892345075916 0.9591060841701167 -0.16511209617725428
 outer loop
  vertex 13.336622137503545 6.770076774454154 32.56849842528192
  vertex 1.9399106309089307 11.175816562380263 42.2920751152766
  vertex 12.735800416598511 8.326271361274381 40.77157658192982
 endloop
endfacet
facet normal -0.2919760191260481 0.9500199144013984 0.11050867158764333
 outer loop
  vertex 2.7968508277919204 11.022090901002171 33.747201104665336
  vertex -8.107600109073294 7.473951914290358 35.43905495154405
  vertex -7.606905166580749 6.596749297286878 44.30307310641776
 endloop
endfacet
facet normal -0.4419990793922412 0.8949778188610469 -0.060427788004645606
 outer loop
  vertex 2.7968508277919204 11.022090901002171 33.747201104665336
  vertex -7.606905166580749 6.596749297286878 44.30307310641776
  vertex 1.9399106309089307 11.175816562380263 42.2920751152766
 endloop
endfacet
facet normal -0.8969073912090806 0.3456898917954911 0.27578185274767925
 outer loop
  vertex -8.107600109073294 7.473951914290358 35.43905495154405
  vertex -11.165456707370414 -1.2025191598420588 36.37005951168932
  vertex -8.715699960808502 -1.962799387440785 45.2902480511408
 endloop
endfacet
facet normal -0.9882816159295004 0.13601152072072162 0.06928429726144339
 outer loop
  vertex -8.107600109073294 7.473951914290358 35.43905495154405
  vertex -8.715699960808502 -1.962799387440785 45.2902480511408
  vertex -7.606905166580749 6.596749297286878 44.30307310641776
 endloop
endfacet
facet normal -0.6705942090207528 -0.6762674250720299 0.304902897025065
 outer loop
  vertex -11.165456707370414 -1.2025191598420588 36.37005951168932
  vertex -4.07409057967458 -8.473762634817952 35.83914936227971
  vertex -0.5515286564289377 -8.057314749229466 44.51023708137019
 endloop
endfacet
facet normal -0.5898148234219307 -0.8020936438714699 0.09361762939075227
 outer loop
  vertex -11.165456707370414 -1.2025191598420588 36.37005951168932
  vertex -0.5515286564289377 -8.057314749229466 44.51023708137019
  vertex -8.715699960808502 -1.962799387440785 45.2902480511408
 endloop
endfacet
facet normal -0.004055503886232966 -0.9778072878531281 0.20946708741360456
 outer loop
  vertex -4.07409057967458 -8.473762634817952 35.83914936227971
  vertex 7.826554942352152 -8.864383867644188 34.24611067441407
  vertex 10.737821235615563 -7.097502415195069 42.55040436666732
 endloop
endfacet
facet normal 0.08687009469664972 -0.9961405753919194 0.012551522029247421
 outer loop
  vertex -4.07409057967458 -8.473762634817952 35.83914936227971
  vertex 10.737821235615563 -7.097502415195069 42.55040436666732
  vertex -0.5515286564289377 -8.057314749229466 44.51023708137019
 endloop
endfacet
facet normal 0.6665929933879982 -0.7360022186757346 0.11812923122760295
 outer loop
  vertex 7.826554942352152 -8.864383867644188 34.24611067441407
  vertex 15.575051051695267 -2.0802371027815845 32.790534072122384
  vertex 16.65123898584548 0.19387935053096328 40.88654391450522
 endloop
endfacet
facet normal 0.7557327819278972 -0.6421886233255276 -0.12830329064675303
 outer loop
  vertex 7.826554942352152 -8.864383867644188 34.24611067441407
  vertex 16.65123898584548 0.19387935053096328 40.88654391450522
  vertex 10.737821235615563 -7.097502415195069 42.55040436666732
 endloop
endfacet
facet normal 0.9690393025215157 0.24570148815360973 0.024364090126984678
 outer loop
  vertex 15.575051051695267 -2.0802371027815845 32.790534072122384
  vertex 13.336622137503545 6.770076774454154 32.56849842528192
  vertex 12.735800416598511 8.326271361274381 40.77157658192982
 endloop
endfacet
facet normal 0.8772165640566622 0.41903408999254965 -0.23431075768888546
 outer loop
  vertex 15.575051051695267 -2.0802371027815845 32.790534072122384
  vertex 12.735800416598511 8.326271361274381 40.77157658192982
  vertex 16.65123898584548 0.19387935053096328 40.88654391450522
 endloop
endfacet
facet normal 0.25338648403495195 0.9672689191835625 -0.013642862231506955
 outer loop
  vertex 12.735800416598511 8.326271361274381 40.77157658192982
  vertex 1.9399106309089307 11.175816562380263 42.2920751152766
  vertex 1.5246893000873856 11.405080785983586 50.83490745363308
 endloop
endfacet
facet normal 0.10482050455535001 0.9776350177255583 -0.18232507765392225
 outer loop
  vertex 12.735800416598511 8.326271361274381 40.77157658192982
  vertex 1.5246893000873856 11.405080785983586 50.83490745363308
  vertex 12.241553315192771 9.912788404839272 48.9944025735843
 endloop
endfacet
facet normal -0.41067450555040774 0.9049905975523106 0.11107866056466474
 outer loop
  vertex 1.9399106309089307 11.175816562380263 42.2920751152766
  vertex -7.606905166580749 6.596749297286878 44.30307310641776
  vertex -6.494507330244603 6.022490752903314 53.09442879687822
 endloop
endfacet
facet normal -0.5662223624756293 0.8227587336835379 -0.0496014352612685
 outer loop
  vertex 1.9399106309089307 11.175816562380263 42.2920751152766
  vertex -6.494507330244603 6.022490752903314 53.09442879687822
  vertex 1.5246893000873856 11.405080785983586 50.83490745363308
 endloop
endfacet
facet normal -0.9352637265199988 0.1576988950865131 0.3168798200334281
 outer loop
  vertex -7.606905166580749 6.596749297286878 44.30307310641776
  vertex -8.715699960808502 -1.962799387440785 45.2902480511408
  vertex -5.777417951363046 -2.181781614665022 54.07150094602042
 endloop
endfacet
facet normal -0.9900781695736659 -0.07217896375452772 0.12056291023769218
 outer loop
  vertex -7.606905166580749 6.596749297286878 44.30307310641776
  vertex -5.777417951363046 -2.181781614665022 54.07150094602042
  vertex -6.494507330244603 6.022490752903314 53.09442879687822
 endloop
endfacet
facet normal -0.544580784758076 -0.7715921642656849 0.3287511230643545
 outer loop
  vertex -8.715699960808502 -1.962799387440785 45.2902480511408
  vertex -0.5515286564289377 -8.057314749229466 44.51023708137019
  vertex 3.135974508476668 -7.02975188728528 53.030368644116
 endloop
endfacet
facet normal -0.4615847956831241 -0.8771333366253129 0.13257671807189217
 outer loop
  vertex -8.715699960808502 -1.962799387440785 45.2902480511408
  vertex 3.135974508476668 -7.02975188728528 53.030368644116
  vertex -5.777417951363046 -2.181781614665022 54.07150094602042
 endloop
endfacet
facet normal 0.12071944862628463 -0.967663295749424 0.22148264217028116
 outer loop
  vertex -0.5515286564289377 -8.057314749229466 44.51023708137019
  vertex 10.737821235615563 -7.097502415195069 42.55040436666732
  vertex 13.533703726944303 -4.870799569103015 50.75502574972757
 endloop
endfacet
facet normal 0.20897896284494985 -0.9775348347384968 0.02744886083299089
 outer loop
  vertex -0.5515286564289377 -8.057314749229466 44.51023708137019
  vertex 13.533703726944303 -4.870799569103015 50.75502574972757
  vertex 3.135974508476668 -7.02975188728528 53.030368644116
 endloop
endfacet
facet normal 0.7837410515849971 -0.6134114323668024 0.09734669332931047
 outer loop
  vertex 10.737821235615563 -7.097502415195069 42.55040436666732
  vertex 16.65123898584548 0.19387935053096328 40.88654391450522
  vertex 17.58606752751088 2.6693402096890715 48.958851870866155
 endloop
endfacet
facet normal 0.8540038928699188 -0.4962188750368199 -0.15634634316227866
 outer loop
  vertex 10.737821235615563 -7.097502415195069 42.55040436666732
  vertex 17.58606752751088 2.6693402096890715 48.958851870866155
  vertex 13.533703726944303 -4.870799569103015 50.75502574972757
 endloop
endfacet
facet normal 0.9007802777733503 0.43327518584097313 -0.029453429495324035
 outer loop
  vertex 16.65123898584548 0.19387935053096328 40.88654391450522
  vertex 12.735800416598511 8.326271361274381 40.77157658192982
  vertex 12.241553315192771 9.912788404839272 48.9944025735843
 endloop
endfacet
facet normal 0.7751562556267502 0.5732455552984806 -0.2655603748552355
 outer loop
  vertex 16.65123898584548 0.19387935053096328 40.88654391450522
  vertex 12.241553315192771 9.912788404839272 48.9944025735843
  vertex 17.58606752751088 2.6693402096890715 48.958851870866155
 endloop
endfacet
facet normal 0.1299512213074712 0.9904353748807092 -0.046372925997891175
 outer loop
  vertex 12.241553315192771 9.912788404839272 48.9944025735843
  vertex 1.5246893000873856 11.405080785983586 50.83490745363308
  vertex 1.5462047055100285 11.800606201373526 59.34285272101007
 endloop
endfacet
facet normal -0.020054492302420755 0.9797029255544364 -0.19944922912503532
 outer loop
  vertex 12.241553315192771 9.912788404839272 48.9944025735843
  vertex 1.5462047055100285 11.800606201373526 59.34285272101007
  vertex 11.875113904925424 11.579513898886123 57.21827290961904
 endloop
endfacet
facet normal -0.5304133859361704 0.8395563687199143 0.11750210109422918
 outer loop
  vertex 1.5246893000873856 11.405080785983586 50.83490745363308
  vertex -6.494507330244603 6.022490752903314 53.09442879687822
  vertex -4.8371791062488825 5.854120080712988 61.778747932770735
 endloop
endfacet
facet normal -0.6877802613197747 0.7252143833026775 -0.03197515269423399
 outer loop
  vertex 1.5246893000873856 11.405080785983586 50.83490745363308
  vertex -4.8371791062488825 5.854120080712988 61.778747932770735
  vertex 1.5462047055100285 11.800606201373526 59.34285272101007
 endloop
endfacet
facet normal -0.9322740073755426 -0.03864914928357724 0.3596823854897576
 outer loop
  vertex -6.494507330244603 6.022490752903314 53.09442879687822
  vertex -5.777417951363046 -2.181781614665022 54.07150094602042
  vertex -2.4682193227971094 -1.782119128027107 62.69167976723829
 endloop
endfacet
facet normal -0.9460484418710767 -0.27253586010712355 0.17526137791589597
 outer loop
  vertex -6.494507330244603 6.022490752903314 53.09442879687822
  vertex -2.4682193227971094 -1.782119128027107 62.69167976723829
  vertex -4.8371791062488825 5.854120080712988 61.778747932770735
 endloop
endfacet
facet normal -0.41492586814656357 -0.8386513310860619 0.3528462396149306
 outer loop
  vertex -5.777417951363046 -2.181781614665022 54.07150094602042
  vertex 3.135974508476668 -7.02975188728528 53.030368644116
  vertex 6.869209020953116 -5.357867549773078 61.39419193264305
 endloop
endfacet
facet normal -0.33166394820796513 -0.9278913523904674 0.170342782700336
 outer loop
  vertex -5.777417951363046 -2.181781614665022 54.07150094602042
  vertex 6.869209020953116 -5.357867549773078 61.39419193264305
  vertex -2.4682193227971094 -1.782119128027107 62.69167976723829
 endloop
endfacet
facet normal 0.24630335838107073 -0.9408019232983261 0.2328656195499375
 outer loop
  vertex 3.135974508476668 -7.02975188728528 53.030368644116
  vertex 13.533703726944303 -4.870799569103015 50.75502574972757
  vertex 16.143831933331235 -2.1805136909751335 58.86331923236367
 endloop
endfacet
facet normal 0.333459309762663 -0.9419388473396166 0.03944739034616283
 outer loop
  vertex 3.135974508476668 -7.02975188728528 53.030368644116
  vertex 16.143831933331235 -2.1805136909751335 58.86331923236367
  vertex 6.869209020953116 -5.357867549773078 61.39419193264305
 endloop
endfacet
facet normal 0.8854424102343874 -0.4598682737253062 0.06717818826989738
 outer loop
  vertex 13.533703726944303 -4.870799569103015 50.75502574972757
  vertex 17.58606752751088 2.6693402096890715 48.958851870866155
  vertex 18.37166919348722 5.357330186484864 57.00486043010519
 endloop
endfacet
facet normal 0.9273079935592062 -0.32137669844500316 -0.19187731178487055
 outer loop
  vertex 13.533703726944303 -4.870799569103015 50.75502574972757
  vertex 18.37166919348722 5.357330186484864 57.00486043010519
  vertex 16.143831933331235 -2.1805136909751335 58.86331923236367
 endloop
endfacet
facet normal 0.8016141863840257 0.5918773739509576 -0.08423698945709342
 outer loop
  vertex 17.58606752751088 2.6693402096890715 48.958851870866155
  vertex 12.241553315192771 9.912788404839272 48.9944025735843
  vertex 11.875113904925424 11.579513898886123 57.21827290961904
 endloop
endfacet
facet normal 0.6555883563363984 0.6946520743897352 -0.29607837236477963
 outer loop
  vertex 17.58606752751088 2.6693402096890715 48.958851870866155
  vertex 11.875113904925424 11.579513898886123 57.21827290961904
  vertex 18.37166919348722 5.357330186484864 57.00486043010519
 endloop
endfacet
facet normal 0.005533223130397351 0.9970269900402589 -0.07685417732986922
 outer loop
  vertex 11.875113904925424 11.579513898886123 57.21827290961904
  vertex 1.5462047055100285 11.800606201373526 59.34285272101007
  vertex 1.9787060227282822 12.448739758995622 67.7822089008117
 endloop
endfacet
facet normal -0.14540465996382598 0.9655802811669992 -0.2156668854559334
 outer loop
  vertex 11.875113904925424 11.579513898886123 57.21827290961904
  vertex 1.9787060227282822 12.448739758995622 67.7822089008117
  vertex 11.645529170419806 13.37661056792074 65.4189931708006
 endloop
endfacet
facet normal -0.6483454196873838 0.7498870457185105 0.13159648716418967
 outer loop
  vertex 1.5462047055100285 11.800606201373526 59.34285272101007
  vertex -4.8371791062488825 5.854120080712988 61.778747932770735
  vertex -2.7227470676737244 6.18233316155715 70.32578147544218
 endloop
endfacet
facet normal -0.8008523538377824 0.5988414003737895 -0.004948186621560941
 outer loop
  vertex 1.5462047055100285 11.800606201373526 59.34285272101007
  vertex -2.7227470676737244 6.18233316155715 70.32578147544218
  vertex 1.9787060227282822 12.448739758995622 67.7822089008117
 endloop
endfacet
facet normal -0.8870409352981015 -0.22712788116005664 0.40195933215340657
 outer loop
  vertex -4.8371791062488825 5.854120080712988 61.778747932770735
  vertex -2.4682193227971094 -1.782119128027107 62.69167976723829
  vertex 1.0814599684520498 -0.7038772451240805 71.13434886657043
 endloop
endfacet
facet normal -0.8629079603628197 -0.4496105776426712 0.2307383375477554
 outer loop
  vertex -4.8371791062488825 5.854120080712988 61.778747932770735
  vertex 1.0814599684520498 -0.7038772451240805 71.13434886657043
  vertex -2.7227470676737244 6.18233316155715 70.32578147544218
 endloop
endfacet
facet normal -0.28492918123915917 -0.8810496123132828 0.37758037862287863
 outer loop
  vertex -2.4682193227971094 -1.782119128027107 62.69167976723829
  vertex 6.869209020953116 -5.357867549773078 61.39419193264305
  vertex 10.526681641221373 -3.0244345717240693 69.59904333690791
 endloop
endfacet
facet normal -0.20155831457173645 -0.9573509263948006 0.20701074744567646
 outer loop
  vertex -2.4682193227971094 -1.782119128027107 62.69167976723829
  vertex 10.526681641221373 -3.0244345717240693 69.59904333690791
  vertex 1.0814599684520498 -0.7038772451240805 71.13434886657043
 endloop
endfacet
facet normal 0.3729513661805079 -0.895664809730455 0.24226396156795632
 outer loop
  vertex 6.869209020953116 -5.357867549773078 61.39419193264305
  vertex 16.143831933331235 -2.1805136909751335 58.86331923236367
  vertex 18.50047338362912 0.968088179429845 66.87598126481586
 endloop
endfacet
facet normal 0.4600335705411462 -0.8866518271191465 0.04709194667290336
 outer loop
  vertex 6.869209020953116 -5.357867549773078 61.39419193264305
  vertex 18.50047338362912 0.968088179429845 66.87598126481586
  vertex 10.526681641221373 -3.0244345717240693 69.59904333690791
 endloop
endfacet
facet normal 0.9603784602044965 -0.2775144589262576 0.025669792794395258
 outer loop
  vertex 16.143831933331235 -2.1805136909751335 58.86331923236367
  vertex 18.37166919348722 5.357330186484864 57.00486043010519
  vertex 18.998407377933027 8.267239944096712 65.01568393092298
 endloop
endfacet
facet normal 0.9640490606714973 -0.12546488459485275 -0.2342391328365181
 outer loop
  vertex 16.143831933331235 -2.1805136909751335 58.86331923236367
  vertex 18.998407377933027 8.267239944096712 65.01568393092298
  vertex 18.50047338362912 0.968088179429845 66.87598126481586
 endloop
endfacet
facet normal 0.6826914677717371 0.7175327957093706 -0.1381269232016914
 outer loop
  vertex 18.37166919348722 5.357330186484864 57.00486043010519
  vertex 11.875113904925424 11.579513898886123 57.21827290961904
  vertex 11.645529170419806 13.37661056792074 65.4189931708006
 endloop
endfacet
facet normal 0.5272825959540848 0.7845626795260594 -0.32624295532442016
 outer loop
  vertex 18.37166919348722 5.357330186484864 57.00486043010519
  vertex 11.645529170419806 13.37661056792074 65.4189931708006
  vertex 18.998407377933027 8.267239944096712 65.01568393092298
 endloop
endfacet
facet normal -0.12031254454541916 0.9872173553620031 -0.10453126277367365
 outer loop
  vertex 11.645529170419806 13.37661056792074 65.4189931708006
  vertex 1.9787060227282822 12.448739758995622 67.7822089008117
  vertex 2.777068800111807 13.428933425994238 76.1204908590692
 endloop
endfacet
facet normal -0.27173372558787845 0.9345436919089624 -0.22975828666513387
 outer loop
  vertex 11.645529170419806 13.37661056792074 65.4189931708006
  vertex 2.777068800111807 13.428933425994238 76.1204908590692
  vertex 11.549538273764355 15.352365049788954 73.56891837672208
 endloop
endfacet
facet normal -0.7589275922716483 0.6324029242226439 0.15522709532619525
 outer loop
  vertex 1.9787060227282822 12.448739758995622 67.7822089008117
  vertex -2.7227470676737244 6.18233316155715 70.32578147544218
  vertex -0.25699086040082975 7.083448448376073 78.71002957551501
 endloop
endfacet
facet normal -0.8962189826581501 0.44232134913626836 0.033813595216449534
 outer loop
  vertex 1.9787060227282822 12.448739758995622 67.7822089008117
  vertex -0.25699086040082975 7.083448448376073 78.71002957551501
  vertex 2.777068800111807 13.428933425994238 76.1204908590692
 endloop
endfacet
facet normal -0.8060391812801515 -0.39336100278578173 0.4422306634874918
 outer loop
  vertex -2.7227470676737244 6.18233316155715 70.32578147544218
  vertex 1.0814599684520498 -0.7038772451240805 71.13434886657043
  vertex 4.7320681001305225 1.0941897293853504 79.38755905561251
 endloop
endfacet
facet normal -0.7520816699879684 -0.594238846316573 0.2850497416179448
 outer loop
  vertex -2.7227470676737244 6.18233316155715 70.32578147544218
  vertex 4.7320681001305225 1.0941897293853504 79.38755905561251
  vertex -0.25699086040082975 7.083448448376073 78.71002957551501
 endloop
endfacet
facet normal -0.15605631263447037 -0.9018043301078416 0.4029830982630405
 outer loop
  vertex 1.0814599684520498 -0.7038772451240805 71.13434886657043
  vertex 10.526681641221373 -3.0244345717240693 69.59904333690791
  vertex 13.987382526169618 -0.028808756964921578 77.6428857817656
 endloop
endfacet
facet normal -0.07168191689963359 -0.9675022322358057 0.24248945009696213
 outer loop
  vertex 1.0814599684520498 -0.7038772451240805 71.13434886657043
  vertex 13.987382526169618 -0.028808756964921578 77.6428857817656
  vertex 4.7320681001305225 1.0941897293853504 79.38755905561251
 endloop
endfacet
facet normal 0.5000869047786772 -0.8297712829421678 0.24777551467687636
 outer loop
  vertex 10.526681641221373 -3.0244345717240693 69.59904333690791
  vertex 18.50047338362912 0.968088179429845 66.87598126481586
  vertex 20.53951188090106 4.560093754541425 74.78978431403
 endloop
endfacet
facet normal 0.5870429860713902 -0.8081084794219189 0.048386134282249374
 outer loop
  vertex 10.526681641221373 -3.0244345717240693 69.59904333690791
  vertex 20.53951188090106 4.560093754541425 74.78978431403
  vertex 13.987382526169618 -0.028808756964921578 77.6428857817656
 endloop
endfacet
facet normal 0.9968015416544423 -0.07501996099927832 -0.02754436434180466
 outer loop
  vertex 18.50047338362912 0.968088179429845 66.87598126481586
  vertex 18.998407377933027 8.267239944096712 65.01568393092298
  vertex 19.454569121130554 11.405360076187968 72.97669825027427
 endloop
endfacet
facet normal 0.9564853548335981 0.07705936555868154 -0.28142071737620766
 outer loop
  vertex 18.50047338362912 0.968088179429845 66.87598126481586
  vertex 19.454569121130554 11.405360076187968 72.97669825027427
  vertex 20.53951188090106 4.560093754541425 74.78978431403
 endloop
endfacet
facet normal 0.5531767557818295 0.8110813441910726 -0.19011188802358744
 outer loop
  vertex 18.998407377933027 8.267239944096712 65.01568393092298
  vertex 11.645529170419806 13.37661056792074 65.4189931708006
  vertex 11.549538273764355 15.352365049788954 73.56891837672208
 endloop
endfacet
facet normal 0.3958936504616951 0.8463538051547623 -0.3563052820604369
 outer loop
  vertex 18.998407377933027 8.267239944096712 65.01568393092298
  vertex 11.549538273764355 15.352365049788954 73.56891837672208
  vertex 19.454569121130554 11.405360076187968 72.97669825027427
 endloop
endfacet
facet normal -0.24791523798810652 0.9602199325204056 -0.12851348553287317
 outer loop
  vertex 11.549538273764355 15.352365049788954 73.56891837672208
  vertex 2.777068800111807 13.428933425994238 76.1204908590692
  vertex 3.878503700445121 14.81177040562903 84.32791851892594
 endloop
endfacet
facet normal -0.39904358203449436 0.8849526415573584 -0.2400479990288056
 outer loop
  vertex 11.549538273764355 15.352365049788954 73.56891837672208
  vertex 3.878503700445121 14.81177040562903 84.32791851892594
  vertex 11.57195524180376 17.551532724170933 81.63902895162683
 endloop
endfacet
facet normal -0.8533942384586813 0.4854923868862259 0.18977728009707173
 outer loop
  vertex 2.777068800111807 13.428933425994238 76.1204908590692
  vertex -0.25699086040082975 7.083448448376073 78.71002957551501
  vertex 2.439450494145177 8.61765859938996 86.9105906085029
 endloop
endfacet
facet normal -0.9620534029465999 0.25913737093977424 0.08544631566831223
 outer loop
  vertex 2.777068800111807 13.428933425994238 76.1204908590692
  vertex 2.439450494145177 8.61765859938996 86.9105906085029
  vertex 3.878503700445121 14.81177040562903 84.32791851892594
 endloop
endfacet
facet normal -0.6999542584392898 -0.5287531732309154 0.4800876148068613
 outer loop
  vertex -0.25699086040082975 7.083448448376073 78.71002957551501
  vertex 4.7320681001305225 1.0941897293853504 79.38755905561251
  vertex 8.338432038583557 3.6334898324061857 87.44224045999663
 endloop
endfacet
facet normal -0.6251338776297057 -0.7039005030087501 0.3372413333262647
 outer loop
  vertex -0.25699086040082975 7.083448448376073 78.71002957551501
  vertex 8.338432038583557 3.6334898324061857 87.44224045999663
  vertex 2.439450494145177 8.61765859938996 86.9105906085029
 endloop
endfacet
facet normal -0.028741502604590886 -0.9029681643633699 0.428745169272234
 outer loop
  vertex 4.7320681001305225 1.0941897293853504 79.38755905561251
  vertex 13.987382526169618 -0.028808756964921578 77.6428857817656
  vertex 17.133394913503928 3.6124448447308453 85.52252489155175
 endloop
endfacet
facet normal 0.05804270041834787 -0.95927901184831 0.2764323106213817
 outer loop
  vertex 4.7320681001305225 1.0941897293853504 79.38755905561251
  vertex 17.133394913503928 3.6124448447308453 85.52252489155175
  vertex 8.338432038583557 3.6334898324061857 87.44224045999663
 endloop
endfacet
facet normal 0.6257313258516686 -0.7399425199239708 0.24687117097076605
 outer loop
  vertex 13.987382526169618 -0.028808756964921578 77.6428857817656
  vertex 20.53951188090106 4.560093754541425 74.78978431403
  vertex 22.20155268954359 8.570370941322988 82.59702888126839
 endloop
endfacet
facet normal 0.7106516707470322 -0.702358108959237 0.040832458212263924
 outer loop
  vertex 13.987382526169618 -0.028808756964921578 77.6428857817656
  vertex 22.20155268954359 8.570370941322988 82.59702888126839
  vertex 17.133394913503928 3.6124448447308453 85.52252489155175
 endloop
endfacet
facet normal 0.9870441577378238 0.1324596994980328 -0.0905442360645934
 outer loop
  vertex 20.53951188090106 4.560093754541425 74.78978431403
  vertex 19.454569121130554 11.405360076187968 72.97669825027427
  vertex 19.726479189766753 14.773848648187288 80.86871059413309
 endloop
endfacet
facet normal 0.9046536585449845 0.2688149350007273 -0.33066643131973605
 outer loop
  vertex 20.53951188090106 4.560093754541425 74.78978431403
  vertex 19.726479189766753 14.773848648187288 80.86871059413309
  vertex 22.20155268954359 8.570370941322988 82.59702888126839
 endloop
endfacet
facet normal 0.41924402455543863 0.875636296448816 -0.23978224332915074
 outer loop
  vertex 19.454569121130554 11.405360076187968 72.97669825027427
  vertex 11.549538273764355 15.352365049788954 73.56891837672208
  vertex 11.57195524180376 17.551532724170933 81.63902895162683
 endloop
endfacet
facet normal 0.2645076658103111 0.8836452224585396 -0.38627298061575394
 outer loop
  vertex 19.454569121130554 11.405360076187968 72.97669825027427
  vertex 11.57195524180376 17.551532724170933 81.63902895162683
  vertex 19.726479189766753 14.773848648187288 80.86871059413309
 endloop
endfacet
facet normal -0.37715896409900357 0.9143273446208832 -0.1475012633108316
 outer loop
  vertex 11.57195524180376 17.551532724170933 81.63902895162683
  vertex 3.878503700445121 14.81177040562903 84.32791851892594
  vertex 5.204376029857761 16.65738042327267 92.3782026025729
 endloop
endfacet
facet normal -0.5264268496347118 0.8143570975393424 -0.2443302880753237
 outer loop
  vertex 11.57195524180376 17.551532724170933 81.63902895162683
  vertex 5.204376029857761 16.65738042327267 92.3782026025729
  vertex 11.686345817631988 20.01423753769086 89.60080433730226
 endloop
endfacet
facet normal -0.9204664027717799 0.3119909434634278 0.23537895523002839
 outer loop
  vertex 3.878503700445121 14.81177040562903 84.32791851892594
  vertex 2.439450494145177 8.61765859938996 86.9105906085029
  vertex 5.234119000703853 10.82742848253643 94.91032989977278
 endloop
endfacet
facet normal -0.987053254795559 0.05963389916115093 0.1488948295553977
 outer loop
  vertex 3.878503700445121 14.81177040562903 84.32791851892594
  vertex 5.234119000703853 10.82742848253643 94.91032989977278
  vertex 5.204376029857761 16.65738042327267 92.3782026025729
 endloop
endfacet
facet normal -0.5795314529679159 -0.6308718393546872 0.5158914782491858
 outer loop
  vertex 2.439450494145177 8.61765859938996 86.9105906085029
  vertex 8.338432038583557 3.6334898324061857 87.44224045999663
  vertex 11.753177666477114 6.914454436203465 95.29044272812664
 endloop
endfacet
facet normal -0.49100873971547393 -0.7804217990238322 0.3871075214090101
 outer loop
  vertex 2.439450494145177 8.61765859938996 86.9105906085029
  vertex 11.753177666477114 6.914454436203465 95.29044272812664
  vertex 5.234119000703853 10.82742848253643 94.91032989977278
 endloop
endfacet
facet normal 0.09703095233383809 -0.8855770806936363 0.45424467904349203
 outer loop
  vertex 8.338432038583557 3.6334898324061857 87.44224045999663
  vertex 17.133394913503928 3.6124448447308453 85.52252489155175
  vertex 19.85256788728789 7.86500755128669 93.23230837499537
 endloop
endfacet
facet normal 0.18776523991790478 -0.9326125738635029 0.3081850122090037
 outer loop
  vertex 8.338432038583557 3.6334898324061857 87.44224045999663
  vertex 19.85256788728789 7.86500755128669 93.23230837499537
  vertex 11.753177666477114 6.914454436203465 95.29044272812664
 endloop
endfacet
facet normal 0.7457652733857693 -0.6228569930143093 0.23639653818324297
 outer loop
  vertex 17.133394913503928 3.6124448447308453 85.52252489155175
  vertex 22.20155268954359 8.570370941322988 82.59702888126839
  vertex 23.433283629414376 12.963301944378541 90.28574398657659
 endloop
endfacet
facet normal 0.8239914642702338 -0.5661871730054558 0.021682987199314035
 outer loop
  vertex 17.133394913503928 3.6124448447308453 85.52252489155175
  vertex 23.433283629414376 12.963301944378541 90.28574398657659
  vertex 19.85256788728789 7.86500755128669 93.23230837499537
 endloop
endfacet
facet normal 0.9314056681696454 0.32717848066632277 -0.15949207845637048
 outer loop
  vertex 22.20155268954359 8.570370941322988 82.59702888126839
  vertex 19.726479189766753 14.773848648187288 80.86871059413309
  vertex 19.79897290574538 18.370217951227975 88.6695726463094
 endloop
endfacet
facet normal 0.8163876048341022 0.4353079225030161 -0.37949741933160225
 outer loop
  vertex 22.20155268954359 8.570370941322988 82.59702888126839
  vertex 19.79897290574538 18.370217951227975 88.6695726463094
  vertex 23.433283629414376 12.963301944378541 90.28574398657659
 endloop
endfacet
facet normal 0.2844656492909723 0.9147117711726199 -0.2870220724120603
 outer loop
  vertex 19.726479189766753 14.773848648187288 80.86871059413309
  vertex 11.57195524180376 17.551532724170933 81.63902895162683
  vertex 11.686345817631988 20.01423753769086 89.60080433730226
 endloop
endfacet
facet normal 0.13452446016274644 0.8994071131050174 -0.4158966392194338
 outer loop
  vertex 19.726479189766753 14.773848648187288 80.86871059413309
  vertex 11.686345817631988 20.01423753769086 89.60080433730226
  vertex 19.79897290574538 18.370217951227975 88.6695726463094
 endloop
endfacet
facet normal -0.507062198155219 0.8469848614890703 -0.15970150785242443
 outer loop
  vertex 11.686345817631988 20.01423753769086 89.60080433730226
  vertex 5.204376029857761 16.65738042327267 92.3782026025729
  vertex 6.662015561447765 19.01400741468847 100.24859467214073
 endloop
endfacet
facet normal -0.6514964454260418 0.7197534322187286 -0.23980696071338856
 outer loop
  vertex 11.686345817631988 20.01423753769086 89.60080433730226
  vertex 6.662015561447765 19.01400741468847 100.24859467214073
  vertex 11.855758750314553 22.77533373513855 97.42766864417462
 endloop
endfacet
facet normal -0.9492394433982171 0.12122469569230022 0.29025687287530705
 outer loop
  vertex 5.204376029857761 16.65738042327267 92.3782026025729
  vertex 5.234119000703853 10.82742848253643 94.91032989977278
  vertex 7.985792812579825 13.73585280954302 102.69455371928515
 endloop
endfacet
facet normal -0.9652763276873833 -0.13984349906604535 0.2206476987764077
 outer loop
  vertex 5.204376029857761 16.65738042327267 92.3782026025729
  vertex 7.985792812579825 13.73585280954302 102.69455371928515
  vertex 6.662015561447765 19.01400741468847 100.24859467214073
 endloop
endfacet
facet normal -0.4530756673441242 -0.7013751528286758 0.5502684205505783
 outer loop
  vertex 5.234119000703853 10.82742848253643 94.91032989977278
  vertex 11.753177666477114 6.914454436203465 95.29044272812664
  vertex 14.830259233473466 10.9154279921093 102.92368873463637
 endloop
endfacet
facet normal -0.35549973664707896 -0.8273850579547265 0.4348032924405142
 outer loop
  vertex 5.234119000703853 10.82742848253643 94.91032989977278
  vertex 14.830259233473466 10.9154279921093 102.92368873463637
  vertex 7.985792812579825 13.73585280954302 102.69455371928515
 endloop
endfacet
facet normal 0.2213260599165464 -0.8497112468570257 0.4785452665803892
 outer loop
  vertex 11.753177666477114 6.914454436203465 95.29044272812664
  vertex 19.85256788728789 7.86500755128669 93.23230837499537
  vertex 22.04139200752487 12.676570376096343 100.76345637813239
 endloop
endfacet
facet normal 0.31737831660788174 -0.8865040530877182 0.3367217961555135
 outer loop
  vertex 11.753177666477114 6.914454436203465 95.29044272812664
  vertex 22.04139200752487 12.676570376096343 100.76345637813239
  vertex 14.830259233473466 10.9154279921093 102.92368873463637
 endloop
endfacet
facet normal 0.8531817184210785 -0.4762319965035947 0.2128004719408669
 outer loop
  vertex 19.85256788728789 7.86500755128669 93.23230837499537
  vertex 23.433283629414376 12.963301944378541 90.28574398657659
  vertex 24.189061075571885 17.693103825604258 97.84055567493019
 endloop
endfacet
facet normal 0.9168077708897283 -0.3991650512667557 -0.011435605948774541
 outer loop
  vertex 19.85256788728789 7.86500755128669 93.23230837499537
  vertex 24.189061075571885 17.693103825604258 97.84055567493019
  vertex 22.04139200752487 12.676570376096343 100.76345637813239
 endloop
endfacet
facet normal 0.8381274667941223 0.49459442964669653 -0.2300406476423814
 outer loop
  vertex 23.433283629414376 12.963301944378541 90.28574398657659
  vertex 19.79897290574538 18.370217951227975 88.6695726463094
  vertex 19.656027824910012 22.187476334520014 96.35599047084959
 endloop
endfacet
facet normal 0.7034425212711699 0.5686516870439559 -0.42638465977298307
 outer loop
  vertex 23.433283629414376 12.963301944378541 90.28574398657659
  vertex 19.656027824910012 22.187476334520014 96.35599047084959
  vertex 24.189061075571885 17.693103825604258 97.84055567493019
 endloop
endfacet
facet normal 0.15063351449713183 0.9312526718731445 -0.3317800558191703
 outer loop
  vertex 19.79897290574538 18.370217951227975 88.6695726463094
  vertex 11.686345817631988 20.01423753769086 89.60080433730226
  vertex 11.855758750314553 22.77533373513855 97.42766864417462
 endloop
endfacet
facet normal 0.006404797485681601 0.8956625131913877 -0.4446882515120612
 outer loop
  vertex 19.79897290574538 18.370217951227975 88.6695726463094
  vertex 11.855758750314553 22.77533373513855 97.42766864417462
  vertex 19.656027824910012 22.187476334520014 96.35599047084959
 endloop
endfacet
facet normal -0.6351854773069323 0.7550160322789276 -0.16275810400760374
 outer loop
  vertex 11.855758750314553 22.77533373513855 97.42766864417462
  vertex 6.662015561447765 19.01400741468847 100.24859467214073
  vertex 8.146533052407252 21.91647323472578 107.91926817756479
 endloop
endfacet
facet normal -0.7696442912271707 0.5982141665802337 -0.2231310733271871
 outer loop
  vertex 11.855758750314553 22.77533373513855 97.42766864417462
  vertex 8.146533052407252 21.91647323472578 107.91926817756479
  vertex 12.033338251264501 25.863998352860023 105.09585154437552
 endloop
endfacet
facet normal -0.933698686925904 -0.07159635530697532 0.35082862474376325
 outer loop
  vertex 6.662015561447765 19.01400741468847 100.24859467214073
  vertex 7.985792812579825 13.73585280954302 102.69455371928515
  vertex 10.547726751009382 17.344886529661512 110.2494333040935
 endloop
endfacet
facet normal -0.8994641794732751 -0.32167119157740665 0.29579018637141974
 outer loop
  vertex 6.662015561447765 19.01400741468847 100.24859467214073
  vertex 10.547726751009382 17.344886529661512 110.2494333040935
  vertex 8.146533052407252 21.91647323472578 107.91926817756479
 endloop
endfacet
facet normal -0.32597001003800424 -0.7436228457927381 0.5837539000049019
 outer loop
  vertex 7.985792812579825 13.73585280954302 102.69455371928515
  vertex 14.830259233473466 10.9154279921093 102.92368873463637
  vertex 17.4287715165984 15.591736269954675 110.33168505697925
 endloop
endfacet
facet normal -0.22190608490060376 -0.8484267027563771 0.48055157843256335
 outer loop
  vertex 7.985792812579825 13.73585280954302 102.69455371928515
  vertex 17.4287715165984 15.591736269954675 110.33168505697925
  vertex 10.547726751009382 17.344886529661512 110.2494333040935
 endloop
endfacet
facet normal 0.3439451036952134 -0.7945767586110323 0.5003494182261774
 outer loop
  vertex 14.830259233473466 10.9154279921093 102.92368873463637
  vertex 22.04139200752487 12.676570376096343 100.76345637813239
  vertex 23.608100292952606 17.977180358912538 108.1040861886691
 endloop
endfacet
facet normal 0.44617878281251355 -0.8191011507378657 0.3605520747795638
 outer loop
  vertex 14.830259233473466 10.9154279921093 102.92368873463637
  vertex 23.608100292952606 17.977180358912538 108.1040861886691
  vertex 17.4287715165984 15.591736269954675 110.33168505697925
 endloop
endfacet
facet normal 0.9378875172740874 -0.3008393559585769 0.17280823721072103
 outer loop
  vertex 22.04139200752487 12.676570376096343 100.76345637813239
  vertex 24.189061075571885 17.693103825604258 97.84055567493019
  vertex 24.4325524761417 22.704930743358222 105.24406408173647
 endloop
endfacet
facet normal 0.9766785864806524 -0.20630253562110265 -0.05948279168346362
 outer loop
  vertex 22.04139200752487 12.676570376096343 100.76345637813239
  vertex 24.4325524761417 22.704930743358222 105.24406408173647
  vertex 23.608100292952606 17.977180358912538 108.1040861886691
 endloop
endfacet
facet normal 0.7194730235504062 0.6269741562296163 -0.2987674276145201
 outer loop
  vertex 24.189061075571885 17.693103825604258 97.84055567493019
  vertex 19.656027824910012 22.187476334520014 96.35599047084959
  vertex 19.281298756464636 26.214894955271543 103.90527371652057
 endloop
endfacet
facet normal 0.5770758276463357 0.6673640662758685 -0.4707533241412478
 outer loop
  vertex 24.189061075571885 17.693103825604258 97.84055567493019
  vertex 19.281298756464636 26.214894955271543 103.90527371652057
  vertex 24.4325524761417 22.704930743358222 105.24406408173647
 endloop
endfacet
facet normal 0.018509317443873186 0.9272741996972041 -0.3739250777143349
 outer loop
  vertex 19.656027824910012 22.187476334520014 96.35599047084959
  vertex 11.855758750314553 22.77533373513855 97.42766864417462
  vertex 12.033338251264501 25.863998352860023 105.09585154437552
 endloop
endfacet
facet normal -0.11980704559564408 0.8734609333524024 -0.47192400843016374
 outer loop
  vertex 19.656027824910012 22.187476334520014 96.35599047084959
  vertex 12.033338251264501 25.863998352860023 105.09585154437552
  vertex 19.281298756464636 26.214894955271543 103.90527371652057
 endloop
endfacet
facet normal -0.7568609182856615 0.6352254271976016 -0.1537862380494754
 outer loop
  vertex 12.033338251264501 25.863998352860023 105.09585154437552
  vertex 8.146533052407252 21.91647323472578 107.91926817756479
  vertex 9.542768577928943 25.38438971108135 115.3721627780584
 endloop
endfacet
facet normal -0.8733486113403404 0.44819381518632234 -0.19074723352811143
 outer loop
  vertex 12.033338251264501 25.863998352860023 105.09585154437552
  vertex 9.542768577928943 25.38438971108135 115.3721627780584
  vertex 12.16274550204555 29.303296608383505 112.58458172157735
 endloop
endfacet
facet normal -0.8759220131021144 -0.24964376063440044 0.4128421244730892
 outer loop
  vertex 8.146533052407252 21.91647323472578 107.91926817756479
  vertex 10.547726751009382 17.344886529661512 110.2494333040935
  vertex 12.77126495588077 21.63354752790152 117.56042058321228
 endloop
endfacet
facet normal -0.7998594082233281 -0.4727217221625125 0.3698095462157998
 outer loop
  vertex 8.146533052407252 21.91647323472578 107.91926817756479
  vertex 12.77126495588077 21.63354752790152 117.56042058321228
  vertex 9.542768577928943 25.38438971108135 115.3721627780584
 endloop
endfacet
facet normal -0.20127627368473905 -0.7610701401888461 0.6166523358948022
 outer loop
  vertex 10.547726751009382 17.344886529661512 110.2494333040935
  vertex 17.4287715165984 15.591736269954675 110.33168505697925
  vertex 19.417111013979028 20.875230726015324 117.50155237743368
 endloop
endfacet
facet normal -0.09193625408622189 -0.8464401772775964 0.5244871318486897
 outer loop
  vertex 10.547726751009382 17.344886529661512 110.2494333040935
  vertex 19.417111013979028 20.875230726015324 117.50155237743368
  vertex 12.77126495588077 21.63354752790152 117.56042058321228
 endloop
endfacet
facet normal 0.4641046990740928 -0.7185986385123476 0.5179023315505988
 outer loop
  vertex 17.4287715165984 15.591736269954675 110.33168505697925
  vertex 23.608100292952606 17.977180358912538 108.1040861886691
  vertex 24.475849119921854 23.68046732408681 115.23988712036645
 endloop
endfacet
facet normal 0.5724268889550435 -0.7278364047044084 0.37759982095892347
 outer loop
  vertex 17.4287715165984 15.591736269954675 110.33168505697925
  vertex 24.475849119921854 23.68046732408681 115.23988712036645
  vertex 19.417111013979028 20.875230726015324 117.50155237743368
 endloop
endfacet
facet normal 0.9880570583920388 -0.10294227029402651 0.11465661057428331
 outer loop
  vertex 23.608100292952606 17.977180358912538 108.1040861886691
  vertex 24.4325524761417 22.704930743358222 105.24406408173647
  vertex 24.13814630048263 27.936856947369925 112.47850488014578
 endloop
endfacet
facet normal 0.9926590316905817 0.00029257595019120273 -0.12094610867005966
 outer loop
  vertex 23.608100292952606 17.977180358912538 108.1040861886691
  vertex 24.13814630048263 27.936856947369925 112.47850488014578
  vertex 24.475849119921854 23.68046732408681 115.23988712036645
 endloop
endfacet
facet normal 0.5872302930928384 0.7230787497348397 -0.3637550062280933
 outer loop
  vertex 24.4325524761417 22.704930743358222 105.24406408173647
  vertex 19.281298756464636 26.214894955271543 103.90527371652057
  vertex 18.658299666581215 30.439251395007155 111.2967828055902
 endloop
endfacet
facet normal 0.4456793450666127 0.7338928306436325 -0.512612167735874
 outer loop
  vertex 24.4325524761417 22.704930743358222 105.24406408173647
  vertex 18.658299666581215 30.439251395007155 111.2967828055902
  vertex 24.13814630048263 27.936856947369925 112.47850488014578
 endloop
endfacet
facet normal -0.11162141222782708 0.9037957111128064 -0.4131512712147477
 outer loop
  vertex 19.281298756464636 26.214894955271543 103.90527371652057
  vertex 12.033338251264501 25.863998352860023 105.09585154437552
  vertex 12.16274550204555 29.303296608383505 112.58458172157735
 endloop
endfacet
facet normal -0.24412270207259476 0.8329355364169336 -0.49661101327559215
 outer loop
  vertex 19.281298756464636 26.214894955271543 103.90527371652057
  vertex 12.16274550204555 29.303296608383505 112.58458172157735
  vertex 18.658299666581215 30.439251395007155 111.2967828055902
 endloop
endfacet
facet normal -0.8644570302169663 0.4856954193980819 -0.12966881847300143
 outer loop
  vertex 12.16274550204555 29.303296608383505 112.58458172157735
  vertex 9.542768577928943 25.38438971108135 115.3721627780584
  vertex 10.727605886693173 29.420053085249545 122.58948984914888
 endloop
endfacet
facet normal -0.9521928087057374 0.2716561783124183 -0.13975612986116406
 outer loop
  vertex 12.16274550204555 29.303296608383505 112.58458172157735
  vertex 10.727605886693173 29.420053085249545 122.58948984914888
  vertex 12.178486826146582 33.10942641050092 119.87563866203477
 endloop
endfacet
facet normal -0.7851446439617565 -0.39993307347163715 0.4728651232663457
 outer loop
  vertex 9.542768577928943 25.38438971108135 115.3721627780584
  vertex 12.77126495588077 21.63354752790152 117.56042058321228
  vertex 14.509992047789718 26.556285697197843 124.61088361257904
 endloop
endfacet
facet normal -0.6795847918653045 -0.5871064827186554 0.4398528033503026
 outer loop
  vertex 9.542768577928943 25.38438971108135 115.3721627780584
  vertex 14.509992047789718 26.556285697197843 124.61088361257904
  vertex 10.727605886693173 29.420053085249545 122.58948984914888
 endloop
endfacet
facet normal -0.08056958583866888 -0.7564910064089345 0.6490222639171807
 outer loop
  vertex 12.77126495588077 21.63354752790152 117.56042058321228
  vertex 19.417111013979028 20.875230726015324 117.50155237743368
  vertex 20.67743138351373 26.674599499757498 124.41766921954405
 endloop
endfacet
facet normal 0.033544278185660824 -0.8233216231497392 0.5665829914982285
 outer loop
  vertex 12.77126495588077 21.63354752790152 117.56042058321228
  vertex 20.67743138351373 26.674599499757498 124.41766921954405
  vertex 14.509992047789718 26.556285697197843 124.61088361257904
 endloop
endfacet
facet normal 0.5800220391863039 -0.6195941319929645 0.5288454837266235
 outer loop
  vertex 19.417111013979028 20.875230726015324 117.50155237743368
  vertex 24.475849119921854 23.68046732408681 115.23988712036645
  vertex 24.585716281229836 29.685901786439352 122.1553410488546
 endloop
endfacet
facet normal 0.69273550619644 -0.6097788800402527 0.3850808173768428
 outer loop
  vertex 19.417111013979028 20.875230726015324 117.50155237743368
  vertex 24.585716281229836 29.685901786439352 122.1553410488546
  vertex 20.67743138351373 26.674599499757498 124.41766921954405
 endloop
endfacet
facet normal 0.993743949469796 0.10446614040526499 0.03949415654243998
 outer loop
  vertex 24.475849119921854 23.68046732408681 115.23988712036645
  vertex 24.13814630048263 27.936856947369925 112.47850488014578
  vertex 23.29182849847481 33.32262051599973 119.52747835612439
 endloop
endfacet
facet normal 0.9602095453483853 0.20313581717613655 -0.19165977356250452
 outer loop
  vertex 24.475849119921854 23.68046732408681 115.23988712036645
  vertex 23.29182849847481 33.32262051599973 119.52747835612439
  vertex 24.585716281229836 29.685901786439352 122.1553410488546
 endloop
endfacet
facet normal 0.4502640957923851 0.7856088044042768 -0.424359576871724
 outer loop
  vertex 24.13814630048263 27.936856947369925 112.47850488014578
  vertex 18.658299666581215 30.439251395007155 111.2967828055902
  vertex 17.770091926163975 34.84623230953697 118.51291534760922
 endloop
endfacet
facet normal 0.3145103769535179 0.7721261324074778 -0.5521815448220143
 outer loop
  vertex 24.13814630048263 27.936856947369925 112.47850488014578
  vertex 17.770091926163975 34.84623230953697 118.51291534760922
  vertex 23.29182849847481 33.32262051599973 119.52747835612439
 endloop
endfacet
facet normal -0.23954821796999565 0.8608818379739218 -0.4488865249860387
 outer loop
  vertex 18.658299666581215 30.439251395007155 111.2967828055902
  vertex 12.16274550204555 29.303296608383505 112.58458172157735
  vertex 12.178486826146582 33.10942641050092 119.87563866203477
 endloop
endfacet
facet normal -0.36631316243283263 0.7733774327298774 -0.5173992786742183
 outer loop
  vertex 18.658299666581215 30.439251395007155 111.2967828055902
  vertex 12.178486826146582 33.10942641050092 119.87563866203477
  vertex 17.770091926163975 34.84623230953697 118.51291534760922
 endloop
endfacet
facet normal -0.9473410895806337 0.3079470926572432 -0.08782623819866701
 outer loop
  vertex 12.178486826146582 33.10942641050092 119.87563866203477
  vertex 10.727605886693173 29.420053085249545 122.58948984914888
  vertex 11.572897232904804 34.006160373348195 129.55209229681066
 endloop
endfacet
facet normal -0.9946638647435401 0.076401127976043 -0.06933010758272823
 outer loop
  vertex 12.178486826146582 33.10942641050092 119.87563866203477
  vertex 11.572897232904804 34.006160373348195 129.55209229681066
  vertex 12.006376543037286 37.290484383282205 126.95235383989413
 endloop
endfacet
facet normal -0.6735456465503313 -0.5161472839749195 0.5290824541207256
 outer loop
  vertex 10.727605886693173 29.420053085249545 122.58948984914888
  vertex 14.509992047789718 26.556285697197843 124.61088361257904
  vertex 15.62446016461763 32.04185590710942 131.38110871702153
 endloop
endfacet
facet normal -0.5503303235727888 -0.6650277055676025 0.5048511521069945
 outer loop
  vertex 10.727605886693173 29.420053085249545 122.58948984914888
  vertex 15.62446016461763 32.04185590710942 131.38110871702153
  vertex 11.572897232904804 34.006160373348195 129.55209229681066
 endloop
endfacet
facet normal 0.03536184957241072 -0.7317101855284176 0.6806979829474941
 outer loop
  vertex 14.509992047789718 26.556285697197843 124.61088361257904
  vertex 20.67743138351373 26.674599499757498 124.41766921954405
  vertex 21.11015581377376 32.87673231215256 131.0621164309723
 endloop
endfacet
facet normal 0.15397565825599116 -0.7799487414298661 0.6066065095320047
 outer loop
  vertex 14.509992047789718 26.556285697197843 124.61088361257904
  vertex 21.11015581377376 32.87673231215256 131.0621164309723
  vertex 15.62446016461763 32.04185590710942 131.38110871702153
 endloop
endfacet
facet normal 0.6883571919844934 -0.49517435366829066 0.5300629544803276
 outer loop
  vertex 20.67743138351373 26.674599499757498 124.41766921954405
  vertex 24.585716281229836 29.685901786439352 122.1553410488546
  vertex 23.899143468760272 35.88211062710509 128.83532313631486
 endloop
endfacet
facet normal 0.8013271134891021 -0.46245685241786383 0.37948454097497286
 outer loop
  vertex 20.67743138351373 26.674599499757498 124.41766921954405
  vertex 23.899143468760272 35.88211062710509 128.83532313631486
  vertex 21.11015581377376 32.87673231215256 131.0621164309723
 endloop
endfacet
facet normal 0.9515297851656391 0.30376903393475896 -0.048119039526741424
 outer loop
  vertex 24.585716281229836 29.685901786439352 122.1553410488546
  vertex 23.29182849847481 33.32262051599973 119.52747835612439
  vertex 21.89125854039213 38.794879682262525 126.37754960223138
 endloop
endfacet
facet normal 0.8838374231973761 0.38476517081132605 -0.26605858882275046
 outer loop
  vertex 24.585716281229836 29.685901786439352 122.1553410488546
  vertex 21.89125854039213 38.794879682262525 126.37754960223138
  vertex 23.899143468760272 35.88211062710509 128.83532313631486
 endloop
endfacet
facet normal 0.31421485013623196 0.8186637121818032 -0.4806857126133194
 outer loop
  vertex 23.29182849847481 33.32262051599973 119.52747835612439
  vertex 17.770091926163975 34.84623230953697 118.51291534760922
  vertex 16.598479333118842 39.421664969430715 125.53954942933018
 endloop
endfacet
facet normal 0.1864219542171785 0.7858406712707752 -0.5896620170593876
 outer loop
  vertex 23.29182849847481 33.32262051599973 119.52747835612439
  vertex 16.598479333118842 39.421664969430715 125.53954942933018
  vertex 21.89125854039213 38.794879682262525 126.37754960223138
 endloop
endfacet
facet normal -0.3648014212806779 0.7977151667425578 -0.4801775044506881
 outer loop
  vertex 17.770091926163975 34.84623230953697 118.51291534760922
  vertex 12.178486826146582 33.10942641050092 119.87563866203477
  vertex 12.006376543037286 37.290484383282205 126.95235383989413
 endloop
endfacet
facet normal -0.485585381102491 0.6933380968951297 -0.5324369643942731
 outer loop
  vertex 17.770091926163975 34.84623230953697 118.51291534760922
  vertex 12.006376543037286 37.290484383282205 126.95235383989413
  vertex 16.598479333118842 39.421664969430715 125.53954942933018
 endloop
endfacet
facet normal -0.9936189243082051 0.10939070909510121 -0.0274791924968033
 outer loop
  vertex 12.006376543037286 37.290484383282205 126.95235383989413
  vertex 11.572897232904804 34.006160373348195 129.55209229681066
  vertex 11.949197944160264 39.103647902142214 136.23781522937216
 endloop
endfacet
facet normal -0.9922104614062316 -0.12327123285715137 0.017961164380710236
 outer loop
  vertex 12.006376543037286 37.290484383282205 126.95235383989413
  vertex 11.949197944160264 39.103647902142214 136.23781522937216
  vertex 11.564483162286082 41.84475705114422 133.79821130888553
 endloop
endfacet
facet normal -0.5521796181633291 -0.5978035411737809 0.5811442122615419
 outer loop
  vertex 11.572897232904804 34.006160373348195 129.55209229681066
  vertex 15.62446016461763 32.04185590710942 131.38110871702153
  vertex 15.987354588474856 37.99305485495729 137.84771481988147
 endloop
endfacet
facet normal -0.420483951251598 -0.7099414285462194 0.564957002588336
 outer loop
  vertex 11.572897232904804 34.006160373348195 129.55209229681066
  vertex 15.987354588474856 37.99305485495729 137.84771481988147
  vertex 11.949197944160264 39.103647902142214 136.23781522937216
 endloop
endfacet
facet normal 0.1460030681843966 -0.6875643883961703 0.7112934105487994
 outer loop
  vertex 15.62446016461763 32.04185590710942 131.38110871702153
  vertex 21.11015581377376 32.87673231215256 131.0621164309723
  vertex 20.638138778677142 39.34927712608927 137.4156228527931
 endloop
endfacet
facet normal 0.26869864749468214 -0.7162281809966997 0.6440638396779372
 outer loop
  vertex 15.62446016461763 32.04185590710942 131.38110871702153
  vertex 20.638138778677142 39.34927712608927 137.4156228527931
  vertex 15.987354588474856 37.99305485495729 137.84771481988147
 endloop
endfacet
facet normal 0.7835687819517146 -0.3436141029681622 0.5176382058852416
 outer loop
  vertex 21.11015581377376 32.87673231215256 131.0621164309723
  vertex 23.899143468760272 35.88211062710509 128.83532313631486
  vertex 22.399415160836455 42.15105168348315 135.26691339239437
 endloop
endfacet
facet normal 0.8894686938700012 -0.2854509252353074 0.35687982838415094
 outer loop
  vertex 21.11015581377376 32.87673231215256 131.0621164309723
  vertex 22.399415160836455 42.15105168348315 135.26691339239437
  vertex 20.638138778677142 39.34927712608927 137.4156228527931
 endloop
endfacet
facet normal 0.8668092411888475 0.4781487697360445 -0.1414761230367924
 outer loop
  vertex 23.899143468760272 35.88211062710509 128.83532313631486
  vertex 21.89125854039213 38.794879682262525 126.37754960223138
  vertex 19.944906695696126 44.288585139635885 133.0196084880508
 endloop
endfacet
facet normal 0.7749544390813771 0.533324505855694 -0.3391321111334755
 outer loop
  vertex 23.899143468760272 35.88211062710509 128.83532313631486
  vertex 19.944906695696126 44.288585139635885 133.0196084880508
  vertex 22.399415160836455 42.15105168348315 135.26691339239437
 endloop
endfacet
facet normal 0.18224729791503602 0.8261709952990768 -0.5331298237101358
 outer loop
  vertex 21.89125854039213 38.794879682262525 126.37754960223138
  vertex 16.598479333118842 39.421664969430715 125.53954942933018
  vertex 15.122908320354956 44.15227120432815 132.36597456939887
 endloop
endfacet
facet normal 0.06274188507880804 0.7780088940661531 -0.6251124831666051
 outer loop
  vertex 21.89125854039213 38.794879682262525 126.37754960223138
  vertex 15.122908320354956 44.15227120432815 132.36597456939887
  vertex 19.944906695696126 44.288585139635885 133.0196084880508
 endloop
endfacet
facet normal -0.4862972980074913 0.7127107784598149 -0.5055277284361541
 outer loop
  vertex 16.598479333118842 39.421664969430715 125.53954942933018
  vertex 12.006376543037286 37.290484383282205 126.95235383989413
  vertex 11.564483162286082 41.84475705114422 133.79821130888553
 endloop
endfacet
facet normal -0.6001575558285577 0.5908473953933734 -0.5391755405605473
 outer loop
  vertex 16.598479333118842 39.421664969430715 125.53954942933018
  vertex 11.564483162286082 41.84475705114422 133.79821130888553
  vertex 15.122908320354956 44.15227120432815 132.36597456939887
 endloop
endfacet
facet normal -0.994187656946939 -0.09578264498828326 0.04915880077263894
 outer loop
  vertex 11.564483162286082 41.84475705114422 133.79821130888553
  vertex 11.949197944160264 39.103647902142214 136.23781522937216
  vertex 11.730406751367033 44.65013016740736 142.61993264259013
 endloop
endfacet
facet normal -0.9437734412047051 -0.3095071798186154 0.11617657817889171
 outer loop
  vertex 11.564483162286082 41.84475705114422 133.79821130888553
  vertex 11.730406751367033 44.65013016740736 142.61993264259013
  vertex 10.765017890056502 46.75880380225272 140.39522657952384
 endloop
endfacet
facet normal -0.4291224339601764 -0.6476757294573495 0.6295792929758605
 outer loop
  vertex 11.949197944160264 39.103647902142214 136.23781522937216
  vertex 15.987354588474856 37.99305485495729 137.84771481988147
  vertex 15.488728414936643 44.28763461540008 143.98335953349405
 endloop
endfacet
facet normal -0.295292105384332 -0.72612267473128 0.6209254655260811
 outer loop
  vertex 11.949197944160264 39.103647902142214 136.23781522937216
  vertex 15.488728414936643 44.28763461540008 143.98335953349405
  vertex 11.730406751367033 44.65013016740736 142.61993264259013
 endloop
endfacet
facet normal 0.25071428576008253 -0.6239382243689331 0.7401644675929496
 outer loop
  vertex 15.987354588474856 37.99305485495729 137.84771481988147
  vertex 20.638138778677142 39.34927712608927 137.4156228527931
  vertex 19.209890012306918 45.94428369045407 143.45881899454486
 endloop
endfacet
facet normal 0.37657611763814985 -0.6311565535682313 0.6781090122631103
 outer loop
  vertex 15.987354588474856 37.99305485495729 137.84771481988147
  vertex 19.209890012306918 45.94428369045407 143.45881899454486
  vertex 15.488728414936643 44.28763461540008 143.98335953349405
 endloop
endfacet
facet normal 0.8574940728884808 -0.16542749401931678 0.4871731306051406
 outer loop
  vertex 20.638138778677142 39.34927712608927 137.4156228527931
  vertex 22.399415160836455 42.15105168348315 135.26691339239437
  vertex 20.09178096279475 48.37258684957107 141.4413007502483
 endloop
endfacet
facet normal 0.9458592396653781 -0.08275083297536816 0.313851236068166
 outer loop
  vertex 20.638138778677142 39.34927712608927 137.4156228527931
  vertex 20.09178096279475 48.37258684957107 141.4413007502483
  vertex 19.209890012306918 45.94428369045407 143.45881899454486
 endloop
endfacet
facet normal 0.7514919518273968 0.6168138429665518 -0.2340951290896149
 outer loop
  vertex 22.399415160836455 42.15105168348315 135.26691339239437
  vertex 19.944906695696126 44.288585139635885 133.0196084880508
  vertex 17.47031939338581 49.74398228557868 139.45003718843185
 endloop
endfacet
facet normal 0.6468426121620514 0.6445098421533157 -0.40767842530465354
 outer loop
  vertex 22.399415160836455 42.15105168348315 135.26691339239437
  vertex 17.47031939338581 49.74398228557868 139.45003718843185
  vertex 20.09178096279475 48.37258684957107 141.4413007502483
 endloop
endfacet
facet normal 0.05596981291264528 0.8112054646646087 -0.5820765191457217
 outer loop
  vertex 19.944906695696126 44.288585139635885 133.0196084880508
  vertex 15.122908320354956 44.15227120432815 132.36597456939887
  vertex 13.319519333915853 49.025781263794386 138.9844903855175
 endloop
endfacet
facet normal -0.05603546064837739 0.7506123295978584 -0.6583624820762495
 outer loop
  vertex 19.944906695696126 44.288585139635885 133.0196084880508
  vertex 13.319519333915853 49.025781263794386 138.9844903855175
  vertex 17.47031939338581 49.74398228557868 139.45003718843185
 endloop
endfacet
facet normal -0.601893697996172 0.6037641308606743 -0.5226785346640395
 outer loop
  vertex 15.122908320354956 44.15227120432815 132.36597456939887
  vertex 11.564483162286082 41.84475705114422 133.79821130888553
  vertex 10.765017890056502 46.75880380225272 140.39522657952384
 endloop
endfacet
facet normal -0.7067068082149088 0.4639260744114481 -0.5341704640878974
 outer loop
  vertex 15.122908320354956 44.15227120432815 132.36597456939887
  vertex 10.765017890056502 46.75880380225272 140.39522657952384
  vertex 13.319519333915853 49.025781263794386 138.9844903855175
 endloop
endfacet
facet normal -0.9473957608504088 -0.2893147539688346 0.136887711130795
 outer loop
  vertex 10.765017890056502 46.75880380225272 140.39522657952384
  vertex 11.730406751367033 44.65013016740736 142.61993264259013
  vertex 10.799251667866724 50.559681917445616 148.66538496982787
 endloop
endfacet
facet normal -0.8571906254683684 -0.4665892647141399 0.2179878199869558
 outer loop
  vertex 10.765017890056502 46.75880380225272 140.39522657952384
  vertex 10.799251667866724 50.559681917445616 148.66538496982787
  vertex 9.517812529847514 52.00605691012984 146.7222737817522
 endloop
endfacet
facet normal -0.3095487843197155 -0.6694469172393689 0.6752928069547993
 outer loop
  vertex 11.730406751367033 44.65013016740736 142.61993264259013
  vertex 15.488728414936643 44.28763461540008 143.98335953349405
  vertex 14.040546032080972 50.78057755888755 149.75625908327933
 endloop
endfacet
facet normal -0.17786677393899142 -0.7172512079846833 0.6737314861078173
 outer loop
  vertex 11.730406751367033 44.65013016740736 142.61993264259013
  vertex 14.040546032080972 50.78057755888755 149.75625908327933
  vertex 10.799251667866724 50.559681917445616 148.66538496982787
 endloop
endfacet
facet normal 0.34834469777665383 -0.5398101601760001 0.7663295391028935
 outer loop
  vertex 15.488728414936643 44.28763461540008 143.98335953349405
  vertex 19.209890012306918 45.94428369045407 143.45881899454486
  vertex 16.800934855881298 52.50240491099995 149.17344566490095
 endloop
endfacet
facet normal 0.4755297741096466 -0.5229062342853531 0.7074181960345238
 outer loop
  vertex 15.488728414936643 44.28763461540008 143.98335953349405
  vertex 16.800934855881298 52.50240491099995 149.17344566490095
  vertex 14.040546032080972 50.78057755888755 149.75625908327933
 endloop
endfacet
facet normal 0.8998535790524996 0.03446884312042265 0.4348280523613286
 outer loop
  vertex 19.209890012306918 45.94428369045407 143.45881899454486
  vertex 20.09178096279475 48.37258684957107 141.4413007502483
  vertex 17.00178905327571 54.42859285876503 147.35581510595884
 endloop
endfacet
facet normal 0.9589846398607434 0.13513234259782575 0.24917405662545172
 outer loop
  vertex 19.209890012306918 45.94428369045407 143.45881899454486
  vertex 17.00178905327571 54.42859285876503 147.35581510595884
  vertex 16.800934855881298 52.50240491099995 149.17344566490095
 endloop
endfacet
facet normal 0.6190467567562014 0.7165434153554929 -0.3214757329260079
 outer loop
  vertex 20.09178096279475 48.37258684957107 141.4413007502483
  vertex 17.47031939338581 49.74398228557868 139.45003718843185
  vertex 14.491861316947258 55.1086825904421 145.6720802902428
 endloop
endfacet
facet normal 0.5105449543188355 0.7198248465149993 -0.4703148306817845
 outer loop
  vertex 20.09178096279475 48.37258684957107 141.4413007502483
  vertex 14.491861316947258 55.1086825904421 145.6720802902428
  vertex 17.00178905327571 54.42859285876503 147.35581510595884
 endloop
endfacet
facet normal -0.0638422002742503 0.7758452896691526 -0.6276848412717415
 outer loop
  vertex 17.47031939338581 49.74398228557868 139.45003718843185
  vertex 13.319519333915853 49.025781263794386 138.9844903855175
  vertex 11.161178425546513 54.030552666776 145.39012787591804
 endloop
endfacet
facet normal -0.16979457974416 0.7047055548613227 -0.6888830681887161
 outer loop
  vertex 17.47031939338581 49.74398228557868 139.45003718843185
  vertex 11.161178425546513 54.030552666776 145.39012787591804
  vertex 14.491861316947258 55.1086825904421 145.6720802902428
 endloop
endfacet
facet normal -0.707844724990102 0.468830119325095 -0.528350418299545
 outer loop
  vertex 13.319519333915853 49.025781263794386 138.9844903855175
  vertex 10.765017890056502 46.75880380225272 140.39522657952384
  vertex 9.517812529847514 52.00605691012984 146.7222737817522
 endloop
endfacet
facet normal -0.7998057194657253 0.3116727135295861 -0.5130018818201525
 outer loop
  vertex 13.319519333915853 49.025781263794386 138.9844903855175
  vertex 9.517812529847514 52.00605691012984 146.7222737817522
  vertex 11.161178425546513 54.030552666776 145.39012787591804
 endloop
endfacet
facet normal -0.8607314731850826 -0.45446941012345543 0.22934447089623913
 outer loop
  vertex 9.517812529847514 52.00605691012984 146.7222737817522
  vertex 10.799251667866724 50.559681917445616 148.66538496982787
  vertex 9.053483507185508 56.72548787406748 154.33167633573925
 endloop
endfacet
facet normal -0.7461105882866838 -0.5852671412773666 0.31746080606512334
 outer loop
  vertex 9.517812529847514 52.00605691012984 146.7222737817522
  vertex 9.053483507185508 56.72548787406748 154.33167633573925
  vertex 7.736912942046375 57.547851734630804 152.75351398138423
 endloop
endfacet
facet normal -0.19670214301324868 -0.6662051163714563 0.7193601391893284
 outer loop
  vertex 10.799251667866724 50.559681917445616 148.66538496982787
  vertex 14.040546032080972 50.78057755888755 149.75625908327933
  vertex 11.578806037273239 57.307693215958366 155.12793330159698
 endloop
endfacet
facet normal -0.07034741481422861 -0.6857012341776229 0.7244757129650653
 outer loop
  vertex 10.799251667866724 50.559681917445616 148.66538496982787
  vertex 11.578806037273239 57.307693215958366 155.12793330159698
  vertex 9.053483507185508 56.72548787406748 154.33167633573925
 endloop
endfacet
facet normal 0.43670979958187683 -0.43326099770543164 0.7883967648439781
 outer loop
  vertex 14.040546032080972 50.78057755888755 149.75625908327933
  vertex 16.800934855881298 52.50240491099995 149.17344566490095
  vertex 13.411261159961695 58.856055263034975 154.5426871429845
 endloop
endfacet
facet normal 0.5618362910730699 -0.38895921397234723 0.7301032200307503
 outer loop
  vertex 14.040546032080972 50.78057755888755 149.75625908327933
  vertex 13.411261159961695 58.856055263034975 154.5426871429845
  vertex 11.578806037273239 57.307693215958366 155.12793330159698
 endloop
endfacet
facet normal 0.9004704717926071 0.24511840513090535 0.359262991269183
 outer loop
  vertex 16.800934855881298 52.50240491099995 149.17344566490095
  vertex 17.00178905327571 54.42859285876503 147.35581510595884
  vertex 13.17097279259406 60.20462581301886 153.01664015418305
 endloop
endfacet
facet normal 0.9213844946728956 0.3515946765002851 0.16562547036320394
 outer loop
  vertex 16.800934855881298 52.50240491099995 149.17344566490095
  vertex 13.17097279259406 60.20462581301886 153.01664015418305
  vertex 13.411261159961695 58.856055263034975 154.5426871429845
 endloop
endfacet
facet normal 0.480497214808693 0.7797954262247447 -0.401299787939213
 outer loop
  vertex 17.00178905327571 54.42859285876503 147.35581510595884
  vertex 14.491861316947258 55.1086825904421 145.6720802902428
  vertex 11.038882976787592 60.337903735946185 151.6989368434456
 endloop
endfacet
facet normal 0.3732510886478944 0.7637310422938193 -0.5266863581487166
 outer loop
  vertex 17.00178905327571 54.42859285876503 147.35581510595884
  vertex 11.038882976787592 60.337903735946185 151.6989368434456
  vertex 13.17097279259406 60.20462581301886 153.01664015418305
 endloop
endfacet
facet normal -0.17681192885036648 0.7213475285569676 -0.669623240980305
 outer loop
  vertex 14.491861316947258 55.1086825904421 145.6720802902428
  vertex 11.161178425546513 54.030552666776 145.39012787591804
  vertex 8.620498830550831 59.15552803747851 151.58183468000652
 endloop
endfacet
facet normal -0.2785865329097952 0.6406719400417831 -0.7154921445581338
 outer loop
  vertex 14.491861316947258 55.1086825904421 145.6720802902428
  vertex 8.620498830550831 59.15552803747851 151.58183468000652
  vertex 11.038882976787592 60.337903735946185 151.6989368434456
 endloop
endfacet
facet normal -0.7983247672799805 0.3071890792275853 -0.5179888372838485
 outer loop
  vertex 11.161178425546513 54.030552666776 145.39012787591804
  vertex 9.517812529847514 52.00605691012984 146.7222737817522
  vertex 7.736912942046375 57.547851734630804 152.75351398138423
 endloop
endfacet
facet normal -0.8718137533845444 0.13624469418013863 -0.4705084087636625
 outer loop
  vertex 11.161178425546513 54.030552666776 145.39012787591804
  vertex 7.736912942046375 57.547851734630804 152.75351398138423
  vertex 8.620498830550831 59.15552803747851 151.58183468000652
 endloop
endfacet
facet normal -0.7482528830284726 -0.5800465199672236 0.3219684110491156
 outer loop
  vertex 7.736912942046375 57.547851734630804 152.75351398138423
  vertex 9.053483507185508 56.72548787406748 154.33167633573925
  vertex 6.413304959745194 63.031551213887234 159.55668856486307
 endloop
endfacet
facet normal -0.6256401774025176 -0.6623436636292498 0.4121592406703135
 outer loop
  vertex 7.736912942046375 57.547851734630804 152.75351398138423
  vertex 6.413304959745194 63.031551213887234 159.55668856486307
  vertex 5.357518889927011 63.34467395157871 158.45724136568106
 endloop
endfacet
facet normal -0.09333486922546046 -0.6391847954952093 0.7633684558549779
 outer loop
  vertex 9.053483507185508 56.72548787406748 154.33167633573925
  vertex 11.578806037273239 57.307693215958366 155.12793330159698
  vertex 8.056652312493135 63.69043985198618 160.04170045713354
 endloop
endfacet
facet normal 0.024595981096540563 -0.6316980936614498 0.774824209855622
 outer loop
  vertex 9.053483507185508 56.72548787406748 154.33167633573925
  vertex 8.056652312493135 63.69043985198618 160.04170045713354
  vertex 6.413304959745194 63.031551213887234 159.55668856486307
 endloop
endfacet
facet normal 0.5114512391789313 -0.301080528372053 0.8048404471555471
 outer loop
  vertex 11.578806037273239 57.307693215958366 155.12793330159698
  vertex 13.411261159961695 58.856055263034975 154.5426871429845
  vertex 9.050086873374726 64.82518328250822 159.54705319517325
 endloop
endfacet
facet normal 0.6286411086173123 -0.22597795162280565 0.7441399881317744
 outer loop
  vertex 11.578806037273239 57.307693215958366 155.12793330159698
  vertex 9.050086873374726 64.82518328250822 159.54705319517325
  vertex 8.056652312493135 63.69043985198618 160.04170045713354
 endloop
endfacet
facet normal 0.8525948279661175 0.4508726791739224 0.26418911124411615
 outer loop
  vertex 13.411261159961695 58.856055263034975 154.5426871429845
  vertex 13.17097279259406 60.20462581301886 153.01664015418305
  vertex 8.645532155674148 65.58129655772265 158.44522625620357
 endloop
endfacet
facet normal 0.8328139140544791 0.5489869810323221 0.0709526547373342
 outer loop
  vertex 13.411261159961695 58.856055263034975 154.5426871429845
  vertex 8.645532155674148 65.58129655772265 158.44522625620357
  vertex 9.050086873374726 64.82518328250822 159.54705319517325
 endloop
endfacet
facet normal 0.3425693279556014 0.8122401427430563 -0.4721357919717455
 outer loop
  vertex 13.17097279259406 60.20462581301886 153.01664015418305
  vertex 11.038882976787592 60.337903735946185 151.6989368434456
  vertex 7.14762611323226 65.38941095949302 157.56591779844226
 endloop
endfacet
facet normal 0.23800412225827663 0.7819715380949487 -0.576085541736197
 outer loop
  vertex 13.17097279259406 60.20462581301886 153.01664015418305
  vertex 7.14762611323226 65.38941095949302 157.56591779844226
  vertex 8.645532155674148 65.58129655772265 158.44522625620357
 endloop
endfacet
facet normal -0.28304642560211624 0.6488820362128884 -0.7062838126660427
 outer loop
  vertex 11.038882976787592 60.337903735946185 151.6989368434456
  vertex 8.620498830550831 59.15552803747851 151.58183468000652
  vertex 5.684322547722649 64.39402025703912 157.57126502520728
 endloop
endfacet
facet normal -0.38298300105586314 0.5590650938128033 -0.7353708192349804
 outer loop
  vertex 11.038882976787592 60.337903735946185 151.6989368434456
  vertex 5.684322547722649 64.39402025703912 157.57126502520728
  vertex 7.14762611323226 65.38941095949302 157.56591779844226
 endloop
endfacet
facet normal -0.8657721547711247 0.12214099899142362 -0.48530418542223674
 outer loop
  vertex 8.620498830550831 59.15552803747851 151.58183468000652
  vertex 7.736912942046375 57.547851734630804 152.75351398138423
  vertex 5.357518889927011 63.34467395157871 158.45724136568106
 endloop
endfacet
facet normal -0.9144309839973667 -0.05389879707429533 -0.4011370030046489
 outer loop
  vertex 8.620498830550831 59.15552803747851 151.58183468000652
  vertex 5.357518889927011 63.34467395157871 158.45724136568106
  vertex 5.684322547722649 64.39402025703912 157.57126502520728
 endloop
endfacet
facet normal -0.633876499084437 -0.6464709948009203 0.4245890210421913
 outer loop
  vertex 5.357518889927011 63.34467395157871 158.45724136568106
  vertex 6.413304959745194 63.031551213887234 159.55668856486307
  vertex 2.8692817908346684 69.50991254966976 164.12958047260526
 endloop
endfacet
facet normal -0.5199177299779836 -0.6824808442149279 0.5137172873616576
 outer loop
  vertex 5.357518889927011 63.34467395157871 158.45724136568106
  vertex 2.8692817908346684 69.50991254966976 164.12958047260526
  vertex 2.536350727679344 69.52284118527218 163.80980689189113
 endloop
endfacet
facet normal -0.01096439498385341 -0.5748991955107615 0.8181507789177476
 outer loop
  vertex 6.413304959745194 63.031551213887234 159.55668856486307
  vertex 8.056652312493135 63.69043985198618 160.04170045713354
  vertex 3.3043063449051653 69.76687432037454 164.2478086438346
 endloop
endfacet
facet normal 0.0917785407710602 -0.5402451318039949 0.8364878343502784
 outer loop
  vertex 6.413304959745194 63.031551213887234 159.55668856486307
  vertex 3.3043063449051653 69.76687432037454 164.2478086438346
  vertex 2.8692817908346684 69.50991254966976 164.12958047260526
 endloop
endfacet
facet normal 0.553562279596758 -0.12576038126014358 0.8232576322834452
 outer loop
  vertex 8.056652312493135 63.69043985198618 160.04170045713354
  vertex 9.050086873374726 64.82518328250822 159.54705319517325
  vertex 3.5138420277920366 70.10022904298096 164.0754631812282
 endloop
endfacet
facet normal 0.6507224584898469 -0.016547064108544885 0.7591353480679959
 outer loop
  vertex 8.056652312493135 63.69043985198618 160.04170045713354
  vertex 3.5138420277920366 70.10022904298096 164.0754631812282
  vertex 3.3043063449051653 69.76687432037454 164.2478086438346
 endloop
endfacet
facet normal 0.7424203114729755 0.6475387708573855 0.1717720039729298
 outer loop
  vertex 9.050086873374726 64.82518328250822 159.54705319517325
  vertex 8.645532155674148 65.58129655772265 158.44522625620357
  vertex 3.340104196532479 70.25895381216927 163.74232373333547
 endloop
endfacet
facet normal 0.6852934808536776 0.7281921243581396 -0.010443903591567317
 outer loop
  vertex 9.050086873374726 64.82518328250822 159.54705319517325
  vertex 3.340104196532479 70.25895381216927 163.74232373333547
  vertex 3.5138420277920366 70.10022904298096 164.0754631812282
 endloop
endfacet
facet normal 0.199137514298373 0.8303564632117284 -0.5204348128263276
 outer loop
  vertex 8.645532155674148 65.58129655772265 158.44522625620357
  vertex 7.14762611323226 65.38941095949302 157.56591779844226
  vertex 2.913920981670833 70.12352563934544 163.49925109922594
 endloop
endfacet
facet normal 0.09356803049660863 0.7909239104485208 -0.6047184398956309
 outer loop
  vertex 8.645532155674148 65.58129655772265 158.44522625620357
  vertex 2.913920981670833 70.12352563934544 163.49925109922594
  vertex 3.340104196532479 70.25895381216927 163.74232373333547
 endloop
endfacet
facet normal -0.3907203910690983 0.5705093711718763 -0.7223964516855557
 outer loop
  vertex 7.14762611323226 65.38941095949302 157.56591779844226
  vertex 5.684322547722649 64.39402025703912 157.57126502520728
  vertex 2.5562170365511787 69.7959247008771 163.5292839301622
 endloop
endfacet
facet normal -0.49412738474551743 0.4726377560082273 -0.7296928663760273
 outer loop
  vertex 7.14762611323226 65.38941095949302 157.56591779844226
  vertex 2.5562170365511787 69.7959247008771 163.5292839301622
  vertex 2.913920981670833 70.12352563934544 163.49925109922594
 endloop
endfacet
facet normal -0.9105352773384225 -0.06159642770987424 -0.40881706032848536
 outer loop
  vertex 5.684322547722649 64.39402025703912 157.57126502520728
  vertex 5.357518889927011 63.34467395157871 158.45724136568106
  vertex 2.536350727679344 69.52284118527218 163.80980689189113
 endloop
endfacet
facet normal -0.9316979382686206 -0.22508012130952101 -0.28509277580691683
 outer loop
  vertex 5.684322547722649 64.39402025703912 157.57126502520728
  vertex 2.536350727679344 69.52284118527218 163.80980689189113
  vertex 2.5562170365511787 69.7959247008771 163.5292839301622
 endloop
endfacet
facet normal 0 0 -1
 outer loop
  vertex 9.975836829739734 -9.381977789616359 0
  vertex -3.5603349433010334 -11.699134946181884 0
  vertex -14.415501886438706 -5.206604869410696 0
 endloop
endfacet
facet normal 0 0 -1
 outer loop
  vertex 9.975836829739734 -9.381977789616359 0
  vertex -14.415501886438706 -5.206604869410696 0
  vertex -14.415501886438705 5.2066048694106986 0
 endloop
endfacet
facet normal 0 0 -1
 outer loop
  vertex 9.975836829739734 -9.381977789616359 0
  vertex -14.415501886438705 5.2066048694106986 0
  vertex -3.5603349433010294 11.699134946181884 0
 endloop
endfacet
facet normal 0 0 -1
 outer loop
  vertex 9.975836829739734 -9.381977789616359 0
  vertex -3.5603349433010294 11.699134946181884 0
  vertex 9.975836829739738 9.381977789616357 0
 endloop
endfacet
facet normal 0 0 -1
 outer loop
  vertex 9.975836829739734 -9.381977789616359 0
  vertex 9.975836829739738 9.381977789616357 0
  vertex 16 0 0
 endloop
endfacet
facet normal -0.5265407845183668 0.6275068715971017 0.5735764363510771
 outer loop
  vertex 2.536350727679344 69.52284118527218 163.80980689189113
  vertex 2.8692817908346684 69.50991254966976 164.12958047260526
  vertex 3.3043063449051653 69.76687432037454 164.2478086438346
 endloop
endfacet
facet normal -0.5265407845183583 0.6275068715971444 0.5735764363510383
 outer loop
  vertex 2.536350727679344 69.52284118527218 163.80980689189113
  vertex 3.3043063449051653 69.76687432037454 164.2478086438346
  vertex 3.5138420277920366 70.10022904298096 164.0754631812282
 endloop
endfacet
facet normal -0.5265407845183602 0.6275068715971527 0.5735764363510273
 outer loop
  vertex 2.536350727679344 69.52284118527218 163.80980689189113
  vertex 3.5138420277920366 70.10022904298096 164.0754631812282
  vertex 3.340104196532479 70.25895381216927 163.74232373333547
 endloop
endfacet
facet normal -0.5265407845183409 0.6275068715971349 0.5735764363510647
 outer loop
  vertex 2.536350727679344 69.52284118527218 163.80980689189113
  vertex 3.340104196532479 70.25895381216927 163.74232373333547
  vertex 2.913920981670833 70.12352563934544 163.49925109922594
 endloop
endfacet
facet normal -0.5265407845183527 0.6275068715971359 0.5735764363510525
 outer loop
  vertex 2.536350727679344 69.52284118527218 163.80980689189113
  vertex 2.913920981670833 70.12352563934544 163.49925109922594
  vertex 2.5562170365511787 69.7959247008771 163.5292839301622
 endloop
endfacet
endsolid horn
